<svg xmlns="http://www.w3.org/2000/svg" xmlns:xlink="http://www.w3.org/1999/xlink" xmlns:lucid="lucid" width="980" height="679"><g transform="translate(-500 -160)" lucid:page-tab-id="0_0"><path d="M800 365c0-2.76 2.24-5 5-5h150c2.76 0 5 2.24 5 5v88c0 2.76-2.24 5-5 5H805c-2.76 0-5-2.24-5-5z" stroke="#c92d39" stroke-width="4" fill="#fff"/><use xlink:href="#a" transform="matrix(1,0,0,1,808,368) translate(43.407407407407405 44.55555555555556)"/><path d="M1080 364.5c0-2.76 2.24-5 5-5h190c2.76 0 5 2.24 5 5v89c0 2.76-2.24 5-5 5h-190c-2.76 0-5-2.24-5-5z" stroke="#000" stroke-width="2" fill="#fff"/><use xlink:href="#b" transform="matrix(1,0,0,1,1088,367.5) translate(9.574999999999989 45.1)"/><path d="M780 185c0-2.76 2.24-5 5-5h190c2.76 0 5 2.24 5 5v89c0 2.76-2.24 5-5 5H785c-2.76 0-5-2.24-5-5z" stroke="#000" stroke-width="2" fill="#fff"/><use xlink:href="#c" transform="matrix(1,0,0,1,788,188) translate(42.64999999999999 45.1)"/><path d="M520 364.5c0-2.76 2.24-5 5-5h190c2.76 0 5 2.24 5 5v89c0 2.76-2.24 5-5 5H525c-2.76 0-5-2.24-5-5z" stroke="#000" stroke-width="2" fill="#fff"/><use xlink:href="#d" transform="matrix(1,0,0,1,528,367.5) translate(35.14999999999999 45.1)"/><path d="M780 565c0-2.76 2.24-5 5-5h190c2.76 0 5 2.24 5 5v89c0 2.76-2.24 5-5 5H785c-2.76 0-5-2.24-5-5z" stroke="#000" stroke-width="2" fill="#fff"/><use xlink:href="#e" transform="matrix(1,0,0,1,788,568) translate(13.125 45.1)"/><path d="M960 725c0-2.76 2.24-5 5-5h210c2.76 0 5 2.24 5 5v89c0 2.76-2.24 5-5 5H965c-2.76 0-5-2.24-5-5z" stroke="#000" stroke-width="2" fill="#fff"/><use xlink:href="#f" transform="matrix(1,0,0,1,968,728) translate(0.17500000000001137 45.1)"/><path d="M1260 725c0-2.76 2.24-5 5-5h190c2.76 0 5 2.24 5 5v89c0 2.76-2.24 5-5 5h-190c-2.76 0-5-2.24-5-5z" stroke="#000" stroke-width="2" fill="#fff"/><use xlink:href="#g" transform="matrix(1,0,0,1,1268,728) translate(7.150000000000006 45.1)"/><path d="M1080 565c0-2.76 2.24-5 5-5h270c2.76 0 5 2.24 5 5v89c0 2.76-2.24 5-5 5h-270c-2.76 0-5-2.24-5-5z" stroke="#000" stroke-width="2" fill="#fff"/><use xlink:href="#h" transform="matrix(1,0,0,1,1088,568) translate(20.22500000000001 45.1)"/><path d="M880 281v58.5" stroke="#000" stroke-width="2" fill="none"/><path d="M881 281.03h-2V280h2z"/><path d="M880 354.76l-4.64-14.26h9.28z" stroke="#000" stroke-width="2"/><path d="M722 409h57.5" stroke="#000" stroke-width="2" fill="none"/><path d="M722.03 410H721v-2h1.03z"/><path d="M794.76 409l-14.26 4.64v-9.28z" stroke="#000" stroke-width="2"/><path d="M880 558v-79.5" stroke="#000" stroke-width="2" fill="none"/><path d="M881 559h-2v-1.03h2z"/><path d="M880 463.24l4.64 14.26h-9.28z" stroke="#000" stroke-width="2"/><path d="M1078 409h-97.5" stroke="#000" stroke-width="2" fill="none"/><path d="M1079 410h-1.03v-2h1.03z"/><path d="M965.24 409l14.26-4.64v9.28z" stroke="#000" stroke-width="2"/><path d="M1078 609.5h-78.5" stroke="#000" stroke-width="2" fill="none"/><path d="M1079 610.5h-1.03v-2h1.03z"/><path d="M984.24 609.5l14.26-4.64v9.28z" stroke="#000" stroke-width="2"/><path d="M1220 678.5V739" stroke="#000" stroke-width="2" fill="none"/><path d="M1220 663.24l4.64 14.26h-9.28z" stroke="#000" stroke-width="2"/><path d="M1220 738.97V740M1182 769.5h33c2.76 0 5-2.24 5-5v-86" stroke="#000" stroke-width="2" fill="none"/><path d="M1182.03 770.5H1181v-2h1.03z"/><path d="M1220 663.24l4.64 14.26h-9.28z" stroke="#000" stroke-width="2"/><path d="M1258 769.5h-33c-2.76 0-5-2.24-5-5v-86" stroke="#000" stroke-width="2" fill="none"/><path d="M1259 770.5h-1.03v-2h1.03z"/><path d="M1220 663.24l4.64 14.26h-9.28z" stroke="#000" stroke-width="2"/><defs><path fill="#c92d39" d="M230 0l2-204L168 0h-37L68-204 70 0H24v-248h70l56 185 57-185h69V0h-46" id="i"/><path fill="#c92d39" d="M133-34C117-15 103 5 69 4 32 3 11-16 11-54c-1-60 55-63 116-61 1-26-3-47-28-47-18 1-26 9-28 27l-52-2c7-38 36-58 82-57s74 22 75 68l1 82c-1 14 12 18 25 15v27c-30 8-71 5-69-32zm-48 3c29 0 43-24 42-57-32 0-66-3-65 30 0 17 8 27 23 27" id="j"/><path fill="#c92d39" d="M135-150c-39-12-60 13-60 57V0H25l-1-190h47c2 13-1 29 3 40 6-28 27-53 61-41v41" id="k"/><path fill="#c92d39" d="M147 0L96-86 75-71V0H25v-261h50v150l67-79h53l-66 74L201 0h-54" id="l"/><path fill="#c92d39" d="M185-48c-13 30-37 53-82 52C43 2 14-33 14-96s30-98 90-98c62 0 83 45 84 108H66c0 31 8 55 39 56 18 0 30-7 34-22zm-45-69c5-46-57-63-70-21-2 6-4 13-4 21h74" id="m"/><path fill="#c92d39" d="M115-3C79 11 28 4 28-45v-112H4v-33h27l15-45h31v45h36v33H77v99c-1 23 16 31 38 25v30" id="n"/><g id="a"><use transform="matrix(0.04938271604938272,0,0,0.04938271604938272,0,0)" xlink:href="#i"/><use transform="matrix(0.04938271604938272,0,0,0.04938271604938272,14.765432098765434,0)" xlink:href="#j"/><use transform="matrix(0.04938271604938272,0,0,0.04938271604938272,24.641975308641978,0)" xlink:href="#k"/><use transform="matrix(0.04938271604938272,0,0,0.04938271604938272,31.555555555555557,0)" xlink:href="#l"/><use transform="matrix(0.04938271604938272,0,0,0.04938271604938272,41.4320987654321,0)" xlink:href="#m"/><use transform="matrix(0.04938271604938272,0,0,0.04938271604938272,51.308641975308646,0)" xlink:href="#n"/></g><path d="M238-95c0 69-44 99-111 99C63 4 22-25 22-93v-155h51v151c-1 38 19 59 55 60 90 1 49-130 58-211h52v153" id="o"/><path d="M137-138c1-29-70-34-71-4 15 46 118 7 119 86 1 83-164 76-172 9l43-7c4 19 20 25 44 25 33 8 57-30 24-41C81-84 22-81 20-136c-2-80 154-74 161-7" id="p"/><path d="M185-48c-13 30-37 53-82 52C43 2 14-33 14-96s30-98 90-98c62 0 83 45 84 108H66c0 31 8 55 39 56 18 0 30-7 34-22zm-45-69c5-46-57-63-70-21-2 6-4 13-4 21h74" id="q"/><path d="M135-150c-39-12-60 13-60 57V0H25l-1-190h47c2 13-1 29 3 40 6-28 27-53 61-41v41" id="r"/><path d="M169-182c-1-43-94-46-97-3 18 66 151 10 154 114 3 95-165 93-204 36-6-8-10-19-12-30l50-8c3 46 112 56 116 5-17-69-150-10-154-114-4-87 153-88 188-35 5 8 8 18 10 28" id="s"/><path d="M115-3C79 11 28 4 28-45v-112H4v-33h27l15-45h31v45h36v33H77v99c-1 23 16 31 38 25v30" id="t"/><path d="M133-34C117-15 103 5 69 4 32 3 11-16 11-54c-1-60 55-63 116-61 1-26-3-47-28-47-18 1-26 9-28 27l-52-2c7-38 36-58 82-57s74 22 75 68l1 82c-1 14 12 18 25 15v27c-30 8-71 5-69-32zm-48 3c29 0 43-24 42-57-32 0-66-3-65 30 0 17 8 27 23 27" id="u"/><path d="M220-157c-53 9-28 100-34 157h-49v-107c1-27-5-49-29-50C55-147 81-57 75 0H25l-1-190h47c2 12-1 28 3 38 10-53 101-56 108 0 13-22 24-43 59-42 82 1 51 116 57 194h-49v-107c-1-25-5-48-29-50" id="v"/><path d="M136-208V0H84v-208H4v-40h212v40h-80" id="w"/><path d="M190-63c-7 42-38 67-86 67-59 0-84-38-90-98-12-110 154-137 174-36l-49 2c-2-19-15-32-35-32-30 0-35 28-38 64-6 74 65 87 74 30" id="x"/><path d="M147 0L96-86 75-71V0H25v-261h50v150l67-79h53l-66 74L201 0h-54" id="y"/><g id="b"><use transform="matrix(0.05,0,0,0.05,0,0)" xlink:href="#o"/><use transform="matrix(0.05,0,0,0.05,12.950000000000001,0)" xlink:href="#p"/><use transform="matrix(0.05,0,0,0.05,22.950000000000003,0)" xlink:href="#q"/><use transform="matrix(0.05,0,0,0.05,32.95,0)" xlink:href="#r"/><use transform="matrix(0.05,0,0,0.05,39.95,0)" xlink:href="#s"/><use transform="matrix(0.05,0,0,0.05,51.95,0)" xlink:href="#t"/><use transform="matrix(0.05,0,0,0.05,57.900000000000006,0)" xlink:href="#r"/><use transform="matrix(0.05,0,0,0.05,64.9,0)" xlink:href="#q"/><use transform="matrix(0.05,0,0,0.05,74.9,0)" xlink:href="#u"/><use transform="matrix(0.05,0,0,0.05,84.9,0)" xlink:href="#v"/><use transform="matrix(0.05,0,0,0.05,100.9,0)" xlink:href="#w"/><use transform="matrix(0.05,0,0,0.05,110.85000000000001,0)" xlink:href="#r"/><use transform="matrix(0.05,0,0,0.05,117.85000000000001,0)" xlink:href="#u"/><use transform="matrix(0.05,0,0,0.05,127.85000000000001,0)" xlink:href="#x"/><use transform="matrix(0.05,0,0,0.05,137.85000000000002,0)" xlink:href="#y"/><use transform="matrix(0.05,0,0,0.05,147.85000000000002,0)" xlink:href="#q"/><use transform="matrix(0.05,0,0,0.05,157.85000000000002,0)" xlink:href="#r"/></g><path d="M230 0l2-204L168 0h-37L68-204 70 0H24v-248h70l56 185 57-185h69V0h-46" id="z"/><path d="M199 0l-22-63H83L61 0H9l90-248h61L250 0h-51zm-33-102l-36-108c-10 38-24 72-36 108h72" id="A"/><path d="M85 4C-2 5 27-109 22-190h50c7 57-23 150 33 157 60-5 35-97 40-157h50l1 190h-47c-2-12 1-28-3-38-12 25-28 42-61 42" id="B"/><path d="M114-157C55-157 80-60 75 0H25v-261h50l-1 109c12-26 28-41 61-42 86-1 58 113 63 194h-50c-7-57 23-157-34-157" id="C"/><g id="c"><use transform="matrix(0.05,0,0,0.05,0,0)" xlink:href="#z"/><use transform="matrix(0.05,0,0,0.05,14.950000000000001,0)" xlink:href="#u"/><use transform="matrix(0.05,0,0,0.05,24.950000000000003,0)" xlink:href="#r"/><use transform="matrix(0.05,0,0,0.05,31.950000000000003,0)" xlink:href="#y"/><use transform="matrix(0.05,0,0,0.05,41.95,0)" xlink:href="#q"/><use transform="matrix(0.05,0,0,0.05,51.95,0)" xlink:href="#t"/><use transform="matrix(0.05,0,0,0.05,57.900000000000006,0)" xlink:href="#A"/><use transform="matrix(0.05,0,0,0.05,70.85000000000001,0)" xlink:href="#B"/><use transform="matrix(0.05,0,0,0.05,81.80000000000001,0)" xlink:href="#t"/><use transform="matrix(0.05,0,0,0.05,87.75000000000001,0)" xlink:href="#C"/></g><path d="M24 0v-248h52V0H24" id="D"/><path d="M135-194c87-1 58 113 63 194h-50c-7-57 23-157-34-157-59 0-34 97-39 157H25l-1-190h47c2 12-1 28 3 38 12-26 28-41 61-42" id="E"/><path d="M76-208v77h127v40H76V0H24v-248h183v40H76" id="F"/><path d="M25 0v-261h50V0H25" id="G"/><path d="M25-224v-37h50v37H25zM25 0v-190h50V0H25" id="H"/><path d="M195-6C206 82 75 100 31 46c-4-6-6-13-8-21l49-6c3 16 16 24 34 25 40 0 42-37 40-79-11 22-30 35-61 35-53 0-70-43-70-97 0-56 18-96 73-97 30 0 46 14 59 34l2-30h47zm-90-29c32 0 41-27 41-63 0-35-9-62-40-62-32 0-39 29-40 63 0 36 9 62 39 62" id="I"/><path d="M140-251c80 0 125 45 125 126S219 4 139 4C58 4 15-44 15-125s44-126 125-126zm-1 214c52 0 73-35 73-88 0-50-21-86-72-86-52 0-73 35-73 86s22 88 72 88" id="J"/><path d="M88-194c31-1 46 15 58 34l-1-101h50l1 261h-48c-2-10 0-23-3-31C134-8 116 4 84 4 32 4 16-41 15-95c0-56 19-97 73-99zm17 164c33 0 40-30 41-66 1-37-9-64-41-64s-38 30-39 65c0 43 13 65 39 65" id="K"/><g id="d"><use transform="matrix(0.05,0,0,0.05,0,0)" xlink:href="#D"/><use transform="matrix(0.05,0,0,0.05,5,0)" xlink:href="#E"/><use transform="matrix(0.05,0,0,0.05,15.950000000000001,0)" xlink:href="#F"/><use transform="matrix(0.05,0,0,0.05,26.900000000000002,0)" xlink:href="#G"/><use transform="matrix(0.05,0,0,0.05,31.900000000000002,0)" xlink:href="#H"/><use transform="matrix(0.05,0,0,0.05,36.900000000000006,0)" xlink:href="#I"/><use transform="matrix(0.05,0,0,0.05,47.85000000000001,0)" xlink:href="#C"/><use transform="matrix(0.05,0,0,0.05,58.80000000000001,0)" xlink:href="#t"/><use transform="matrix(0.05,0,0,0.05,64.75000000000001,0)" xlink:href="#J"/><use transform="matrix(0.05,0,0,0.05,78.75000000000001,0)" xlink:href="#r"/><use transform="matrix(0.05,0,0,0.05,85.75000000000001,0)" xlink:href="#K"/><use transform="matrix(0.05,0,0,0.05,96.70000000000002,0)" xlink:href="#q"/><use transform="matrix(0.05,0,0,0.05,106.7,0)" xlink:href="#r"/></g><path d="M182-130c37 4 62 22 62 59C244 23 116-4 24 0v-248c84 5 203-23 205 63 0 31-19 50-47 55zM76-148c40-3 101 13 101-30 0-44-60-28-101-31v61zm0 110c48-3 116 14 116-37 0-48-69-32-116-35v72" id="L"/><path d="M110-194c64 0 96 36 96 99 0 64-35 99-97 99-61 0-95-36-95-99 0-62 34-99 96-99zm-1 164c35 0 45-28 45-65 0-40-10-65-43-65-34 0-45 26-45 65 0 36 10 65 43 65" id="M"/><g id="e"><use transform="matrix(0.05,0,0,0.05,0,0)" xlink:href="#J"/><use transform="matrix(0.05,0,0,0.05,14,0)" xlink:href="#r"/><use transform="matrix(0.05,0,0,0.05,21,0)" xlink:href="#K"/><use transform="matrix(0.05,0,0,0.05,31.950000000000003,0)" xlink:href="#q"/><use transform="matrix(0.05,0,0,0.05,41.95,0)" xlink:href="#r"/><use transform="matrix(0.05,0,0,0.05,48.95,0)" xlink:href="#L"/><use transform="matrix(0.05,0,0,0.05,61.900000000000006,0)" xlink:href="#M"/><use transform="matrix(0.05,0,0,0.05,72.85000000000001,0)" xlink:href="#M"/><use transform="matrix(0.05,0,0,0.05,83.80000000000001,0)" xlink:href="#y"/><use transform="matrix(0.05,0,0,0.05,93.80000000000001,0)" xlink:href="#w"/><use transform="matrix(0.05,0,0,0.05,103.75,0)" xlink:href="#r"/><use transform="matrix(0.05,0,0,0.05,110.75,0)" xlink:href="#u"/><use transform="matrix(0.05,0,0,0.05,120.75,0)" xlink:href="#x"/><use transform="matrix(0.05,0,0,0.05,130.75,0)" xlink:href="#y"/><use transform="matrix(0.05,0,0,0.05,140.75,0)" xlink:href="#q"/><use transform="matrix(0.05,0,0,0.05,150.75,0)" xlink:href="#r"/></g><path d="M24 0v-248h195v40H76v63h132v40H76v65h150V0H24" id="N"/><path d="M123 10C108 53 80 86 19 72V37c35 8 53-11 59-39L3-190h52l48 148c12-52 28-100 44-148h51" id="O"/><g id="f"><use transform="matrix(0.05,0,0,0.05,0,0)" xlink:href="#J"/><use transform="matrix(0.05,0,0,0.05,14,0)" xlink:href="#r"/><use transform="matrix(0.05,0,0,0.05,21,0)" xlink:href="#K"/><use transform="matrix(0.05,0,0,0.05,31.950000000000003,0)" xlink:href="#q"/><use transform="matrix(0.05,0,0,0.05,41.95,0)" xlink:href="#r"/><use transform="matrix(0.05,0,0,0.05,48.95,0)" xlink:href="#L"/><use transform="matrix(0.05,0,0,0.05,61.900000000000006,0)" xlink:href="#M"/><use transform="matrix(0.05,0,0,0.05,72.85000000000001,0)" xlink:href="#M"/><use transform="matrix(0.05,0,0,0.05,83.80000000000001,0)" xlink:href="#y"/><use transform="matrix(0.05,0,0,0.05,93.80000000000001,0)" xlink:href="#w"/><use transform="matrix(0.05,0,0,0.05,103.75,0)" xlink:href="#r"/><use transform="matrix(0.05,0,0,0.05,110.75,0)" xlink:href="#u"/><use transform="matrix(0.05,0,0,0.05,120.75,0)" xlink:href="#x"/><use transform="matrix(0.05,0,0,0.05,130.75,0)" xlink:href="#y"/><use transform="matrix(0.05,0,0,0.05,140.75,0)" xlink:href="#q"/><use transform="matrix(0.05,0,0,0.05,150.75,0)" xlink:href="#r"/><use transform="matrix(0.05,0,0,0.05,157.75,0)" xlink:href="#N"/><use transform="matrix(0.05,0,0,0.05,169.75,0)" xlink:href="#E"/><use transform="matrix(0.05,0,0,0.05,180.7,0)" xlink:href="#t"/><use transform="matrix(0.05,0,0,0.05,186.64999999999998,0)" xlink:href="#r"/><use transform="matrix(0.05,0,0,0.05,193.64999999999998,0)" xlink:href="#O"/></g><g id="g"><use transform="matrix(0.05,0,0,0.05,0,0)" xlink:href="#J"/><use transform="matrix(0.05,0,0,0.05,14,0)" xlink:href="#r"/><use transform="matrix(0.05,0,0,0.05,21,0)" xlink:href="#K"/><use transform="matrix(0.05,0,0,0.05,31.950000000000003,0)" xlink:href="#q"/><use transform="matrix(0.05,0,0,0.05,41.95,0)" xlink:href="#r"/><use transform="matrix(0.05,0,0,0.05,48.95,0)" xlink:href="#L"/><use transform="matrix(0.05,0,0,0.05,61.900000000000006,0)" xlink:href="#M"/><use transform="matrix(0.05,0,0,0.05,72.85000000000001,0)" xlink:href="#M"/><use transform="matrix(0.05,0,0,0.05,83.80000000000001,0)" xlink:href="#y"/><use transform="matrix(0.05,0,0,0.05,93.80000000000001,0)" xlink:href="#z"/><use transform="matrix(0.05,0,0,0.05,108.75,0)" xlink:href="#q"/><use transform="matrix(0.05,0,0,0.05,118.75,0)" xlink:href="#p"/><use transform="matrix(0.05,0,0,0.05,128.75,0)" xlink:href="#p"/><use transform="matrix(0.05,0,0,0.05,138.75,0)" xlink:href="#u"/><use transform="matrix(0.05,0,0,0.05,148.75,0)" xlink:href="#I"/><use transform="matrix(0.05,0,0,0.05,159.7,0)" xlink:href="#q"/></g><path d="M24-248c93 1 206-16 204 79-1 75-69 88-152 82V0H24v-248zm52 121c47 0 100 7 100-41 0-47-54-39-100-39v80" id="P"/><path d="M24-248c120-7 223 5 221 122C244-46 201 0 124 0H24v-248zM76-40c74 7 117-18 117-86 0-67-45-88-117-82v168" id="Q"/><g id="h"><use transform="matrix(0.05,0,0,0.05,0,0)" xlink:href="#A"/><use transform="matrix(0.05,0,0,0.05,12.950000000000001,0)" xlink:href="#P"/><use transform="matrix(0.05,0,0,0.05,24.950000000000003,0)" xlink:href="#D"/><use transform="matrix(0.05,0,0,0.05,29.950000000000003,0)" xlink:href="#J"/><use transform="matrix(0.05,0,0,0.05,43.95,0)" xlink:href="#r"/><use transform="matrix(0.05,0,0,0.05,50.95,0)" xlink:href="#K"/><use transform="matrix(0.05,0,0,0.05,61.900000000000006,0)" xlink:href="#q"/><use transform="matrix(0.05,0,0,0.05,71.9,0)" xlink:href="#r"/><use transform="matrix(0.05,0,0,0.05,78.9,0)" xlink:href="#L"/><use transform="matrix(0.05,0,0,0.05,91.85000000000001,0)" xlink:href="#M"/><use transform="matrix(0.05,0,0,0.05,102.80000000000001,0)" xlink:href="#M"/><use transform="matrix(0.05,0,0,0.05,113.75,0)" xlink:href="#y"/><use transform="matrix(0.05,0,0,0.05,123.75,0)" xlink:href="#Q"/><use transform="matrix(0.05,0,0,0.05,136.70000000000002,0)" xlink:href="#u"/><use transform="matrix(0.05,0,0,0.05,146.70000000000002,0)" xlink:href="#t"/><use transform="matrix(0.05,0,0,0.05,152.65,0)" xlink:href="#u"/><use transform="matrix(0.05,0,0,0.05,162.65,0)" xlink:href="#s"/><use transform="matrix(0.05,0,0,0.05,174.65,0)" xlink:href="#M"/><use transform="matrix(0.05,0,0,0.05,185.6,0)" xlink:href="#B"/><use transform="matrix(0.05,0,0,0.05,196.54999999999998,0)" xlink:href="#r"/><use transform="matrix(0.05,0,0,0.05,203.54999999999998,0)" xlink:href="#x"/><use transform="matrix(0.05,0,0,0.05,213.54999999999995,0)" xlink:href="#q"/></g></defs></g></svg>