<svg xmlns="http://www.w3.org/2000/svg" xmlns:xlink="http://www.w3.org/1999/xlink" xmlns:lucid="lucid" width="1100" height="679.5"><g transform="translate(-500 -159.5)" lucid:page-tab-id="0_0"><path d="M800 365c0-2.76 2.24-5 5-5h150c2.76 0 5 2.24 5 5v88c0 2.76-2.24 5-5 5H805c-2.76 0-5-2.24-5-5z" stroke="#c92d39" stroke-width="4" fill="#fff"/><use xlink:href="#a" transform="matrix(1,0,0,1,808,368) translate(43.736111111111114 47.076388888888886)"/><path d="M1080 364.5c0-2.76 2.24-5 5-5h190c2.76 0 5 2.24 5 5v89c0 2.76-2.24 5-5 5h-190c-2.76 0-5-2.24-5-5z" stroke="#000" stroke-width="2" fill="#fff"/><use xlink:href="#b" transform="matrix(1,0,0,1,1088,367.5) translate(9.574999999999989 45.1)"/><path d="M780 185c0-2.76 2.24-5 5-5h190c2.76 0 5 2.24 5 5v88c0 2.76-2.24 5-5 5H785c-2.76 0-5-2.24-5-5z" stroke="#000" stroke-width="2" fill="#fff"/><use xlink:href="#c" transform="matrix(1,0,0,1,788,188) translate(44.2138671875 47.15234375)"/><path d="M520 365c0-2.76 2.24-5 5-5h190c2.76 0 5 2.24 5 5v88c0 2.76-2.24 5-5 5H525c-2.76 0-5-2.24-5-5z" stroke="#000" stroke-width="2" fill="#fff"/><use xlink:href="#d" transform="matrix(1,0,0,1,528,368) translate(39.443576388888886 47.076388888888886)"/><path d="M780 565c0-2.76 2.24-5 5-5h190c2.76 0 5 2.24 5 5v89c0 2.76-2.24 5-5 5H785c-2.76 0-5-2.24-5-5z" stroke="#000" stroke-width="2" fill="#fff"/><use xlink:href="#e" transform="matrix(1,0,0,1,788,568) translate(13.125 45.1)"/><path d="M1040 725c0-2.76 2.24-5 5-5h210c2.76 0 5 2.24 5 5v89c0 2.76-2.24 5-5 5h-210c-2.76 0-5-2.24-5-5z" stroke="#000" stroke-width="2" fill="#fff"/><use xlink:href="#f" transform="matrix(1,0,0,1,1048,728) translate(0.17500000000001137 45.1)"/><path d="M1380 725c0-2.76 2.24-5 5-5h190c2.76 0 5 2.24 5 5v89c0 2.76-2.24 5-5 5h-190c-2.76 0-5-2.24-5-5z" stroke="#000" stroke-width="2" fill="#fff"/><use xlink:href="#g" transform="matrix(1,0,0,1,1388,728) translate(7.150000000000006 45.1)"/><path d="M1180 565c0-2.76 2.24-5 5-5h270c2.76 0 5 2.24 5 5v89c0 2.76-2.24 5-5 5h-270c-2.76 0-5-2.24-5-5z" stroke="#000" stroke-width="2" fill="#fff"/><use xlink:href="#h" transform="matrix(1,0,0,1,1188,568) translate(3.2250000000000227 45.1)"/><path d="M880 280v59.5" stroke="#000" stroke-width="2" fill="none"/><path d="M881 280.03h-2V279h2z"/><path d="M880 354.76l-4.64-14.26h9.28z" stroke="#000" stroke-width="2"/><path d="M722 409h57.5" stroke="#000" stroke-width="2" fill="none"/><path d="M722.03 410H721v-2h1.03z"/><path d="M794.76 409l-14.26 4.64v-9.28z" stroke="#000" stroke-width="2"/><path d="M880 558v-79.5" stroke="#000" stroke-width="2" fill="none"/><path d="M881 559h-2v-1.03h2z"/><path d="M880 463.24l4.64 14.26h-9.28z" stroke="#000" stroke-width="2"/><path d="M1078 409h-97.5" stroke="#000" stroke-width="2" fill="none"/><path d="M1079 410h-1.03v-2h1.03z"/><path d="M965.24 409l14.26-4.64v9.28z" stroke="#000" stroke-width="2"/><path d="M1178 609.5H999.5" stroke="#000" stroke-width="2" fill="none"/><path d="M1179 610.5h-1.03v-2h1.03z"/><path d="M984.24 609.5l14.26-4.64v9.28z" stroke="#000" stroke-width="2"/><path d="M1262 769.5h53c2.76 0 5-2.24 5-5v-86" stroke="#000" stroke-width="2" fill="none"/><path d="M1262.03 770.5H1261v-2h1.03z"/><path d="M1320 663.24l4.64 14.26h-9.28z" stroke="#000" stroke-width="2"/><path d="M1378 769.5h-53c-2.76 0-5-2.24-5-5v-86" stroke="#000" stroke-width="2" fill="none"/><path d="M1379 770.5h-1.03v-2h1.03z"/><path d="M1320 663.24l4.64 14.26h-9.28z" stroke="#000" stroke-width="2"/><path d="M770 725c0-2.76 2.24-5 5-5h210c2.76 0 5 2.24 5 5v89c0 2.76-2.24 5-5 5H775c-2.76 0-5-2.24-5-5z" stroke="#000" stroke-width="2" fill="#fff"/><use xlink:href="#i" transform="matrix(1,0,0,1,778,728) translate(18.599999999999994 45.1)"/><path d="M880 718v-39.5" stroke="#000" stroke-width="2" fill="none"/><path d="M881 719h-2v-1.03h2z"/><path d="M880 663.24l4.64 14.26h-9.28z" stroke="#000" stroke-width="2"/><path d="M1030 184.5c0-2.76 2.24-5 5-5h290c2.76 0 5 2.24 5 5v89c0 2.76-2.24 5-5 5h-290c-2.76 0-5-2.24-5-5z" stroke="#000" stroke-width="2" fill="#fff"/><use xlink:href="#j" transform="matrix(1,0,0,1,1038,187.5) translate(9.675000000000011 45.1)"/><path d="M1180 280.5V340" stroke="#000" stroke-width="2" fill="none"/><path d="M1181 280.53h-2v-1.03h2z"/><path d="M1180 355.26l-4.64-14.26h9.28z" stroke="#000" stroke-width="2"/><defs><path fill="#c92d39" d="M522-1456L896-400l372-1056h394V0h-301c-7-379 15-728 30-1085L998 0H792L400-1084c15 357 37 705 30 1084H130v-1456h392" id="k"/><path fill="#c92d39" d="M552-1102c254-4 435 134 435 383v469c1 103 15 180 43 233V0H738c-13-26-23-58-29-97C639-19 548 20 436 20 238 20 64-113 68-304c5-258 212-357 496-357h133c11-137-29-227-160-227-90 0-156 45-156 131H92c15-231 213-342 460-345zM357-325c0 76 61 124 142 124 88 0 168-45 198-105v-186H589c-152 2-232 51-232 167" id="l"/><path fill="#c92d39" d="M719-811c-143-24-279 1-319 103V0H111v-1082h273l8 129c74-124 180-175 331-136" id="m"/><path fill="#c92d39" d="M504-434L400-330V0H111v-1536h289v851c106-137 222-264 333-397h347L689-631 1114 0H782" id="n"/><path fill="#c92d39" d="M1031-175C952-60 797 20 609 20 287 20 60-206 72-543c12-330 180-559 505-559 309 0 482 214 477 537v118H365c15 134 115 234 263 234 111 0 198-40 261-121zM770-644c5-139-62-226-194-224-130 1-191 97-208 224h402" id="o"/><path fill="#c92d39" d="M457-330c2 83 25 111 111 112 32 0 60-2 85-7V-6c-57 17-115 26-175 26-203 0-310-102-310-307v-583H10v-212h158v-266h289v266h185v212H457v540" id="p"/><g id="a"><use transform="matrix(0.008680555555555556,0,0,0.008680555555555556,0,0)" xlink:href="#k"/><use transform="matrix(0.008680555555555556,0,0,0.008680555555555556,15.572916666666668,0)" xlink:href="#l"/><use transform="matrix(0.008680555555555556,0,0,0.008680555555555556,25.104166666666668,0)" xlink:href="#m"/><use transform="matrix(0.008680555555555556,0,0,0.008680555555555556,31.588541666666668,0)" xlink:href="#n"/><use transform="matrix(0.008680555555555556,0,0,0.008680555555555556,40.911458333333336,0)" xlink:href="#o"/><use transform="matrix(0.008680555555555556,0,0,0.008680555555555556,50.520833333333336,0)" xlink:href="#p"/></g><path d="M238-95c0 69-44 99-111 99C63 4 22-25 22-93v-155h51v151c-1 38 19 59 55 60 90 1 49-130 58-211h52v153" id="q"/><path d="M137-138c1-29-70-34-71-4 15 46 118 7 119 86 1 83-164 76-172 9l43-7c4 19 20 25 44 25 33 8 57-30 24-41C81-84 22-81 20-136c-2-80 154-74 161-7" id="r"/><path d="M185-48c-13 30-37 53-82 52C43 2 14-33 14-96s30-98 90-98c62 0 83 45 84 108H66c0 31 8 55 39 56 18 0 30-7 34-22zm-45-69c5-46-57-63-70-21-2 6-4 13-4 21h74" id="s"/><path d="M135-150c-39-12-60 13-60 57V0H25l-1-190h47c2 13-1 29 3 40 6-28 27-53 61-41v41" id="t"/><path d="M169-182c-1-43-94-46-97-3 18 66 151 10 154 114 3 95-165 93-204 36-6-8-10-19-12-30l50-8c3 46 112 56 116 5-17-69-150-10-154-114-4-87 153-88 188-35 5 8 8 18 10 28" id="u"/><path d="M115-3C79 11 28 4 28-45v-112H4v-33h27l15-45h31v45h36v33H77v99c-1 23 16 31 38 25v30" id="v"/><path d="M133-34C117-15 103 5 69 4 32 3 11-16 11-54c-1-60 55-63 116-61 1-26-3-47-28-47-18 1-26 9-28 27l-52-2c7-38 36-58 82-57s74 22 75 68l1 82c-1 14 12 18 25 15v27c-30 8-71 5-69-32zm-48 3c29 0 43-24 42-57-32 0-66-3-65 30 0 17 8 27 23 27" id="w"/><path d="M220-157c-53 9-28 100-34 157h-49v-107c1-27-5-49-29-50C55-147 81-57 75 0H25l-1-190h47c2 12-1 28 3 38 10-53 101-56 108 0 13-22 24-43 59-42 82 1 51 116 57 194h-49v-107c-1-25-5-48-29-50" id="x"/><path d="M136-208V0H84v-208H4v-40h212v40h-80" id="y"/><path d="M190-63c-7 42-38 67-86 67-59 0-84-38-90-98-12-110 154-137 174-36l-49 2c-2-19-15-32-35-32-30 0-35 28-38 64-6 74 65 87 74 30" id="z"/><path d="M147 0L96-86 75-71V0H25v-261h50v150l67-79h53l-66 74L201 0h-54" id="A"/><g id="b"><use transform="matrix(0.05,0,0,0.05,0,0)" xlink:href="#q"/><use transform="matrix(0.05,0,0,0.05,12.950000000000001,0)" xlink:href="#r"/><use transform="matrix(0.05,0,0,0.05,22.950000000000003,0)" xlink:href="#s"/><use transform="matrix(0.05,0,0,0.05,32.95,0)" xlink:href="#t"/><use transform="matrix(0.05,0,0,0.05,39.95,0)" xlink:href="#u"/><use transform="matrix(0.05,0,0,0.05,51.95,0)" xlink:href="#v"/><use transform="matrix(0.05,0,0,0.05,57.900000000000006,0)" xlink:href="#t"/><use transform="matrix(0.05,0,0,0.05,64.9,0)" xlink:href="#s"/><use transform="matrix(0.05,0,0,0.05,74.9,0)" xlink:href="#w"/><use transform="matrix(0.05,0,0,0.05,84.9,0)" xlink:href="#x"/><use transform="matrix(0.05,0,0,0.05,100.9,0)" xlink:href="#y"/><use transform="matrix(0.05,0,0,0.05,110.85000000000001,0)" xlink:href="#t"/><use transform="matrix(0.05,0,0,0.05,117.85000000000001,0)" xlink:href="#w"/><use transform="matrix(0.05,0,0,0.05,127.85000000000001,0)" xlink:href="#z"/><use transform="matrix(0.05,0,0,0.05,137.85000000000002,0)" xlink:href="#A"/><use transform="matrix(0.05,0,0,0.05,147.85000000000002,0)" xlink:href="#s"/><use transform="matrix(0.05,0,0,0.05,157.85000000000002,0)" xlink:href="#t"/></g><path d="M522-1456L896-400l372-1056h394V0h-301c-7-379 15-728 30-1085L998 0H792L400-1084c15 357 37 705 30 1084H130v-1456h392" id="B"/><path d="M552-1102c254-4 435 134 435 383v469c1 103 15 180 43 233V0H738c-13-26-23-58-29-97C639-19 548 20 436 20 238 20 64-113 68-304c5-258 212-357 496-357h133c11-137-29-227-160-227-90 0-156 45-156 131H92c15-231 213-342 460-345zM357-325c0 76 61 124 142 124 88 0 168-45 198-105v-186H589c-152 2-232 51-232 167" id="C"/><path d="M719-811c-143-24-279 1-319 103V0H111v-1082h273l8 129c74-124 180-175 331-136" id="D"/><path d="M504-434L400-330V0H111v-1536h289v851c106-137 222-264 333-397h347L689-631 1114 0H782" id="E"/><path d="M1031-175C952-60 797 20 609 20 287 20 60-206 72-543c12-330 180-559 505-559 309 0 482 214 477 537v118H365c15 134 115 234 263 234 111 0 198-40 261-121zM770-644c5-139-62-226-194-224-130 1-191 97-208 224h402" id="F"/><path d="M457-330c2 83 25 111 111 112 32 0 60-2 85-7V-6c-57 17-115 26-175 26-203 0-310-102-310-307v-583H10v-212h158v-266h289v266h185v212H457v540" id="G"/><path d="M952-300H426L326 0H7l542-1456h278L1372 0h-319zM507-543h364l-183-545" id="H"/><path d="M463 20c-241-1-359-147-359-393v-709h289v699c0 113 51 169 154 169 98 0 165-34 202-102v-766h290V0H767l-8-110C688-23 589 20 463 20" id="I"/><path d="M750-685c-1-124-48-182-173-182-85 0-146 33-184 98V0H104v-1536h289v572c77-92 173-138 289-138 235 0 357 136 357 409V0H750v-685" id="J"/><g id="c"><use transform="matrix(0.0087890625,0,0,0.0087890625,0,0)" xlink:href="#B"/><use transform="matrix(0.0087890625,0,0,0.0087890625,15.767578125,0)" xlink:href="#C"/><use transform="matrix(0.0087890625,0,0,0.0087890625,25.41796875,0)" xlink:href="#D"/><use transform="matrix(0.0087890625,0,0,0.0087890625,31.9833984375,0)" xlink:href="#E"/><use transform="matrix(0.0087890625,0,0,0.0087890625,41.4228515625,0)" xlink:href="#F"/><use transform="matrix(0.0087890625,0,0,0.0087890625,51.15234375,0)" xlink:href="#G"/><use transform="matrix(0.0087890625,0,0,0.0087890625,57.234375,0)" xlink:href="#H"/><use transform="matrix(0.0087890625,0,0,0.0087890625,69.345703125,0)" xlink:href="#I"/><use transform="matrix(0.0087890625,0,0,0.0087890625,79.41796875,0)" xlink:href="#G"/><use transform="matrix(0.0087890625,0,0,0.0087890625,85.5,0)" xlink:href="#J"/></g><path d="M449 0H149v-1456h300V0" id="K"/><path d="M750-692c-1-124-48-174-173-175-81 0-142 35-183 104V0H105v-1082h272l9 125c77-97 181-145 311-145 244 0 342 151 342 403V0H750v-692" id="L"/><path d="M1006-595H430V0H130v-1456h948v243H430v376h576v242" id="M"/><path d="M416 0H126v-1536h290V0" id="N"/><path d="M416 0H126v-1082h290V0zM271-1212c-92 0-162-61-162-150s68-149 162-149c93 0 162 60 162 149s-70 150-162 150" id="O"/><path d="M505 20C221 18 69-239 69-549c0-302 153-553 438-553 119 0 211 41 277 122l12-102h262V-36c-8 305-208 458-520 462-160 1-335-76-403-170L263 80c72 81 159 121 262 121 172 1 260-107 243-294C701-18 614 20 505 20zm76-887c-165 0-223 147-223 339 0 172 66 314 221 314 88 0 151-33 189-99v-455c-39-66-101-99-187-99" id="P"/><path d="M1248-1138c106 220 104 603 2 820-91 195-274 338-542 338C281 20 86-300 86-759c0-291 115-515 296-629 182-114 467-115 648 0 94 60 166 141 218 250zM940-344c111-153 110-617 0-765-57-77-133-119-234-119s-177 41-233 118c-64 88-83 240-83 415 0 149 27 264 82 346s133 123 236 123c101 0 176-40 232-118" id="Q"/><path d="M488 20C204 20 66-234 66-549c0-305 140-551 424-553 105 0 192 39 261 118v-552h290V0H780l-14-115C694-25 601 20 488 20zM355-528c0 176 51 314 207 314 89 0 152-38 189-113v-427c-36-75-98-113-187-113-139 0-209 113-209 339" id="R"/><g id="d"><use transform="matrix(0.008680555555555556,0,0,0.008680555555555556,0,0)" xlink:href="#K"/><use transform="matrix(0.008680555555555556,0,0,0.008680555555555556,5.182291666666667,0)" xlink:href="#L"/><use transform="matrix(0.008680555555555556,0,0,0.008680555555555556,15.13888888888889,0)" xlink:href="#M"/><use transform="matrix(0.008680555555555556,0,0,0.008680555555555556,24.878472222222225,0)" xlink:href="#N"/><use transform="matrix(0.008680555555555556,0,0,0.008680555555555556,29.59201388888889,0)" xlink:href="#O"/><use transform="matrix(0.008680555555555556,0,0,0.008680555555555556,34.30555555555556,0)" xlink:href="#P"/><use transform="matrix(0.008680555555555556,0,0,0.008680555555555556,44.453125,0)" xlink:href="#J"/><use transform="matrix(0.008680555555555556,0,0,0.008680555555555556,54.40104166666667,0)" xlink:href="#G"/><use transform="matrix(0.008680555555555556,0,0,0.008680555555555556,60.407986111111114,0)" xlink:href="#Q"/><use transform="matrix(0.008680555555555556,0,0,0.008680555555555556,72.68229166666667,0)" xlink:href="#D"/><use transform="matrix(0.008680555555555556,0,0,0.008680555555555556,79.00173611111111,0)" xlink:href="#R"/><use transform="matrix(0.008680555555555556,0,0,0.008680555555555556,89.01909722222223,0)" xlink:href="#F"/><use transform="matrix(0.008680555555555556,0,0,0.008680555555555556,98.62847222222223,0)" xlink:href="#D"/></g><path d="M140-251c80 0 125 45 125 126S219 4 139 4C58 4 15-44 15-125s44-126 125-126zm-1 214c52 0 73-35 73-88 0-50-21-86-72-86-52 0-73 35-73 86s22 88 72 88" id="S"/><path d="M88-194c31-1 46 15 58 34l-1-101h50l1 261h-48c-2-10 0-23-3-31C134-8 116 4 84 4 32 4 16-41 15-95c0-56 19-97 73-99zm17 164c33 0 40-30 41-66 1-37-9-64-41-64s-38 30-39 65c0 43 13 65 39 65" id="T"/><path d="M182-130c37 4 62 22 62 59C244 23 116-4 24 0v-248c84 5 203-23 205 63 0 31-19 50-47 55zM76-148c40-3 101 13 101-30 0-44-60-28-101-31v61zm0 110c48-3 116 14 116-37 0-48-69-32-116-35v72" id="U"/><path d="M110-194c64 0 96 36 96 99 0 64-35 99-97 99-61 0-95-36-95-99 0-62 34-99 96-99zm-1 164c35 0 45-28 45-65 0-40-10-65-43-65-34 0-45 26-45 65 0 36 10 65 43 65" id="V"/><g id="e"><use transform="matrix(0.05,0,0,0.05,0,0)" xlink:href="#S"/><use transform="matrix(0.05,0,0,0.05,14,0)" xlink:href="#t"/><use transform="matrix(0.05,0,0,0.05,21,0)" xlink:href="#T"/><use transform="matrix(0.05,0,0,0.05,31.950000000000003,0)" xlink:href="#s"/><use transform="matrix(0.05,0,0,0.05,41.95,0)" xlink:href="#t"/><use transform="matrix(0.05,0,0,0.05,48.95,0)" xlink:href="#U"/><use transform="matrix(0.05,0,0,0.05,61.900000000000006,0)" xlink:href="#V"/><use transform="matrix(0.05,0,0,0.05,72.85000000000001,0)" xlink:href="#V"/><use transform="matrix(0.05,0,0,0.05,83.80000000000001,0)" xlink:href="#A"/><use transform="matrix(0.05,0,0,0.05,93.80000000000001,0)" xlink:href="#y"/><use transform="matrix(0.05,0,0,0.05,103.75,0)" xlink:href="#t"/><use transform="matrix(0.05,0,0,0.05,110.75,0)" xlink:href="#w"/><use transform="matrix(0.05,0,0,0.05,120.75,0)" xlink:href="#z"/><use transform="matrix(0.05,0,0,0.05,130.75,0)" xlink:href="#A"/><use transform="matrix(0.05,0,0,0.05,140.75,0)" xlink:href="#s"/><use transform="matrix(0.05,0,0,0.05,150.75,0)" xlink:href="#t"/></g><path d="M24 0v-248h195v40H76v63h132v40H76v65h150V0H24" id="W"/><path d="M135-194c87-1 58 113 63 194h-50c-7-57 23-157-34-157-59 0-34 97-39 157H25l-1-190h47c2 12-1 28 3 38 12-26 28-41 61-42" id="X"/><path d="M123 10C108 53 80 86 19 72V37c35 8 53-11 59-39L3-190h52l48 148c12-52 28-100 44-148h51" id="Y"/><g id="f"><use transform="matrix(0.05,0,0,0.05,0,0)" xlink:href="#S"/><use transform="matrix(0.05,0,0,0.05,14,0)" xlink:href="#t"/><use transform="matrix(0.05,0,0,0.05,21,0)" xlink:href="#T"/><use transform="matrix(0.05,0,0,0.05,31.950000000000003,0)" xlink:href="#s"/><use transform="matrix(0.05,0,0,0.05,41.95,0)" xlink:href="#t"/><use transform="matrix(0.05,0,0,0.05,48.95,0)" xlink:href="#U"/><use transform="matrix(0.05,0,0,0.05,61.900000000000006,0)" xlink:href="#V"/><use transform="matrix(0.05,0,0,0.05,72.85000000000001,0)" xlink:href="#V"/><use transform="matrix(0.05,0,0,0.05,83.80000000000001,0)" xlink:href="#A"/><use transform="matrix(0.05,0,0,0.05,93.80000000000001,0)" xlink:href="#y"/><use transform="matrix(0.05,0,0,0.05,103.75,0)" xlink:href="#t"/><use transform="matrix(0.05,0,0,0.05,110.75,0)" xlink:href="#w"/><use transform="matrix(0.05,0,0,0.05,120.75,0)" xlink:href="#z"/><use transform="matrix(0.05,0,0,0.05,130.75,0)" xlink:href="#A"/><use transform="matrix(0.05,0,0,0.05,140.75,0)" xlink:href="#s"/><use transform="matrix(0.05,0,0,0.05,150.75,0)" xlink:href="#t"/><use transform="matrix(0.05,0,0,0.05,157.75,0)" xlink:href="#W"/><use transform="matrix(0.05,0,0,0.05,169.75,0)" xlink:href="#X"/><use transform="matrix(0.05,0,0,0.05,180.7,0)" xlink:href="#v"/><use transform="matrix(0.05,0,0,0.05,186.64999999999998,0)" xlink:href="#t"/><use transform="matrix(0.05,0,0,0.05,193.64999999999998,0)" xlink:href="#Y"/></g><path d="M230 0l2-204L168 0h-37L68-204 70 0H24v-248h70l56 185 57-185h69V0h-46" id="Z"/><path d="M195-6C206 82 75 100 31 46c-4-6-6-13-8-21l49-6c3 16 16 24 34 25 40 0 42-37 40-79-11 22-30 35-61 35-53 0-70-43-70-97 0-56 18-96 73-97 30 0 46 14 59 34l2-30h47zm-90-29c32 0 41-27 41-63 0-35-9-62-40-62-32 0-39 29-40 63 0 36 9 62 39 62" id="aa"/><g id="g"><use transform="matrix(0.05,0,0,0.05,0,0)" xlink:href="#S"/><use transform="matrix(0.05,0,0,0.05,14,0)" xlink:href="#t"/><use transform="matrix(0.05,0,0,0.05,21,0)" xlink:href="#T"/><use transform="matrix(0.05,0,0,0.05,31.950000000000003,0)" xlink:href="#s"/><use transform="matrix(0.05,0,0,0.05,41.95,0)" xlink:href="#t"/><use transform="matrix(0.05,0,0,0.05,48.95,0)" xlink:href="#U"/><use transform="matrix(0.05,0,0,0.05,61.900000000000006,0)" xlink:href="#V"/><use transform="matrix(0.05,0,0,0.05,72.85000000000001,0)" xlink:href="#V"/><use transform="matrix(0.05,0,0,0.05,83.80000000000001,0)" xlink:href="#A"/><use transform="matrix(0.05,0,0,0.05,93.80000000000001,0)" xlink:href="#Z"/><use transform="matrix(0.05,0,0,0.05,108.75,0)" xlink:href="#s"/><use transform="matrix(0.05,0,0,0.05,118.75,0)" xlink:href="#r"/><use transform="matrix(0.05,0,0,0.05,128.75,0)" xlink:href="#r"/><use transform="matrix(0.05,0,0,0.05,138.75,0)" xlink:href="#w"/><use transform="matrix(0.05,0,0,0.05,148.75,0)" xlink:href="#aa"/><use transform="matrix(0.05,0,0,0.05,159.7,0)" xlink:href="#s"/></g><path d="M24-248c120-7 223 5 221 122C244-46 201 0 124 0H24v-248zM76-40c74 7 117-18 117-86 0-67-45-88-117-82v168" id="ab"/><path d="M85 4C-2 5 27-109 22-190h50c7 57-23 150 33 157 60-5 35-97 40-157h50l1 190h-47c-2-12 1-28-3-38-12 25-28 42-61 42" id="ac"/><g id="h"><use transform="matrix(0.05,0,0,0.05,0,0)" xlink:href="#S"/><use transform="matrix(0.05,0,0,0.05,14,0)" xlink:href="#t"/><use transform="matrix(0.05,0,0,0.05,21,0)" xlink:href="#T"/><use transform="matrix(0.05,0,0,0.05,31.950000000000003,0)" xlink:href="#s"/><use transform="matrix(0.05,0,0,0.05,41.95,0)" xlink:href="#t"/><use transform="matrix(0.05,0,0,0.05,48.95,0)" xlink:href="#U"/><use transform="matrix(0.05,0,0,0.05,61.900000000000006,0)" xlink:href="#V"/><use transform="matrix(0.05,0,0,0.05,72.85000000000001,0)" xlink:href="#V"/><use transform="matrix(0.05,0,0,0.05,83.80000000000001,0)" xlink:href="#A"/><use transform="matrix(0.05,0,0,0.05,93.80000000000001,0)" xlink:href="#y"/><use transform="matrix(0.05,0,0,0.05,103.75,0)" xlink:href="#t"/><use transform="matrix(0.05,0,0,0.05,110.75,0)" xlink:href="#w"/><use transform="matrix(0.05,0,0,0.05,120.75,0)" xlink:href="#z"/><use transform="matrix(0.05,0,0,0.05,130.75,0)" xlink:href="#A"/><use transform="matrix(0.05,0,0,0.05,140.75,0)" xlink:href="#s"/><use transform="matrix(0.05,0,0,0.05,150.75,0)" xlink:href="#t"/><use transform="matrix(0.05,0,0,0.05,157.75,0)" xlink:href="#ab"/><use transform="matrix(0.05,0,0,0.05,170.7,0)" xlink:href="#w"/><use transform="matrix(0.05,0,0,0.05,180.7,0)" xlink:href="#v"/><use transform="matrix(0.05,0,0,0.05,186.64999999999998,0)" xlink:href="#w"/><use transform="matrix(0.05,0,0,0.05,196.64999999999998,0)" xlink:href="#u"/><use transform="matrix(0.05,0,0,0.05,208.64999999999998,0)" xlink:href="#V"/><use transform="matrix(0.05,0,0,0.05,219.59999999999997,0)" xlink:href="#ac"/><use transform="matrix(0.05,0,0,0.05,230.54999999999995,0)" xlink:href="#t"/><use transform="matrix(0.05,0,0,0.05,237.54999999999995,0)" xlink:href="#z"/><use transform="matrix(0.05,0,0,0.05,247.54999999999995,0)" xlink:href="#s"/></g><path d="M199 0l-22-63H83L61 0H9l90-248h61L250 0h-51zm-33-102l-36-108c-10 38-24 72-36 108h72" id="ad"/><path d="M25-224v-37h50v37H25zM25 0v-190h50V0H25" id="ae"/><path d="M128 0H69L1-190h53L99-40l48-150h52" id="af"/><g id="i"><use transform="matrix(0.05,0,0,0.05,0,0)" xlink:href="#ad"/><use transform="matrix(0.05,0,0,0.05,12.950000000000001,0)" xlink:href="#z"/><use transform="matrix(0.05,0,0,0.05,22.950000000000003,0)" xlink:href="#v"/><use transform="matrix(0.05,0,0,0.05,28.900000000000002,0)" xlink:href="#ae"/><use transform="matrix(0.05,0,0,0.05,33.900000000000006,0)" xlink:href="#af"/><use transform="matrix(0.05,0,0,0.05,43.900000000000006,0)" xlink:href="#s"/><use transform="matrix(0.05,0,0,0.05,53.900000000000006,0)" xlink:href="#S"/><use transform="matrix(0.05,0,0,0.05,67.9,0)" xlink:href="#t"/><use transform="matrix(0.05,0,0,0.05,74.9,0)" xlink:href="#T"/><use transform="matrix(0.05,0,0,0.05,85.85000000000001,0)" xlink:href="#s"/><use transform="matrix(0.05,0,0,0.05,95.85000000000001,0)" xlink:href="#t"/><use transform="matrix(0.05,0,0,0.05,102.85000000000001,0)" xlink:href="#y"/><use transform="matrix(0.05,0,0,0.05,112.80000000000001,0)" xlink:href="#t"/><use transform="matrix(0.05,0,0,0.05,119.80000000000001,0)" xlink:href="#w"/><use transform="matrix(0.05,0,0,0.05,129.8,0)" xlink:href="#z"/><use transform="matrix(0.05,0,0,0.05,139.8,0)" xlink:href="#A"/><use transform="matrix(0.05,0,0,0.05,149.8,0)" xlink:href="#s"/><use transform="matrix(0.05,0,0,0.05,159.8,0)" xlink:href="#t"/></g><g id="j"><use transform="matrix(0.05,0,0,0.05,0,0)" xlink:href="#q"/><use transform="matrix(0.05,0,0,0.05,12.950000000000001,0)" xlink:href="#r"/><use transform="matrix(0.05,0,0,0.05,22.950000000000003,0)" xlink:href="#s"/><use transform="matrix(0.05,0,0,0.05,32.95,0)" xlink:href="#t"/><use transform="matrix(0.05,0,0,0.05,39.95,0)" xlink:href="#u"/><use transform="matrix(0.05,0,0,0.05,51.95,0)" xlink:href="#v"/><use transform="matrix(0.05,0,0,0.05,57.900000000000006,0)" xlink:href="#t"/><use transform="matrix(0.05,0,0,0.05,64.9,0)" xlink:href="#s"/><use transform="matrix(0.05,0,0,0.05,74.9,0)" xlink:href="#w"/><use transform="matrix(0.05,0,0,0.05,84.9,0)" xlink:href="#x"/><use transform="matrix(0.05,0,0,0.05,100.9,0)" xlink:href="#y"/><use transform="matrix(0.05,0,0,0.05,110.85000000000001,0)" xlink:href="#t"/><use transform="matrix(0.05,0,0,0.05,117.85000000000001,0)" xlink:href="#w"/><use transform="matrix(0.05,0,0,0.05,127.85000000000001,0)" xlink:href="#z"/><use transform="matrix(0.05,0,0,0.05,137.85000000000002,0)" xlink:href="#A"/><use transform="matrix(0.05,0,0,0.05,147.85000000000002,0)" xlink:href="#s"/><use transform="matrix(0.05,0,0,0.05,157.85000000000002,0)" xlink:href="#t"/><use transform="matrix(0.05,0,0,0.05,164.85000000000002,0)" xlink:href="#ab"/><use transform="matrix(0.05,0,0,0.05,177.8,0)" xlink:href="#w"/><use transform="matrix(0.05,0,0,0.05,187.8,0)" xlink:href="#v"/><use transform="matrix(0.05,0,0,0.05,193.75,0)" xlink:href="#w"/><use transform="matrix(0.05,0,0,0.05,203.75,0)" xlink:href="#u"/><use transform="matrix(0.05,0,0,0.05,215.75,0)" xlink:href="#V"/><use transform="matrix(0.05,0,0,0.05,226.69999999999996,0)" xlink:href="#ac"/><use transform="matrix(0.05,0,0,0.05,237.64999999999998,0)" xlink:href="#t"/><use transform="matrix(0.05,0,0,0.05,244.64999999999998,0)" xlink:href="#z"/><use transform="matrix(0.05,0,0,0.05,254.64999999999998,0)" xlink:href="#s"/></g></defs></g></svg>