<svg viewBox="0 0 40 40" xmlns="http://www.w3.org/2000/svg">
  <path d="M16.875,3.75 C13.7679774,3.75 11.25,6.2679774 11.25,9.375 C11.25,12.4820226 13.7679774,15 16.875,15 C19.9820226,15 22.5,12.4820226 22.5,9.375 C22.5,6.2679774 19.9820226,3.75 16.875,3.75 Z M16.875,6.25 C18.6013107,6.25 20,7.64868927 20,9.375 C20,11.1013107 18.6013107,12.5 16.875,12.5 C15.1486893,12.5 13.75,11.1013107 13.75,9.375 C13.75,7.64868927 15.1486893,6.25 16.875,6.25 Z"></path>
  <path d="M33.1328542,8.95715013 L14.9109857,15.3543895 C13.0801796,15.9912442 11.0778493,15.1268467 10.2746231,13.3862606 L10.1958643,13.2031 C9.42563955,11.2800371 7.24400498,10.3449404 5.3215426,11.1124254 C3.3966036,11.8824007 2.46104193,14.0666666 3.23127905,15.9897586 L3.34596361,16.2670786 C5.58772585,21.4922714 11.3836333,24.2055032 16.8133135,22.6177752 L16.979,22.566 L17.835,24.159 L14.5327649,35.1639893 C13.9638136,37.0596968 14.9673877,39.0687397 16.8148805,39.7559235 L17.0091973,39.8217903 C17.4046576,39.9385791 17.7644041,39.9916667 18.125,39.9916667 L18.3228912,39.9864917 C19.8976399,39.9039918 21.2615587,38.842264 21.7175421,37.3183197 L24.559,27.87 L25.3624485,27.9704502 C26.0451685,28.0568314 26.5298616,28.6816271 26.4432195,29.3664333 C26.4331753,29.4475849 26.4151697,29.5266437 26.3891459,29.6047153 L25.8153067,31.3095829 C25.1098598,33.2179189 26.1010678,35.3750721 28.043556,36.0925678 C29.9862522,36.8101402 32.1434055,35.8189322 32.8609011,33.876444 C32.8905416,33.7956166 32.9159789,33.7186686 32.9387661,33.6401794 L33.4958541,31.9719514 C35.0241638,27.3870222 32.5468805,22.4324556 27.9619514,20.9041459 L27.634145,20.8017683 C27.1941044,20.6739628 26.7424898,20.5809748 26.2827484,20.5231162 L24.255,20.269 L24.143,20.061 L35.6099047,16.0447179 L35.7960879,15.9745364 C37.5675818,15.2531625 38.5115596,13.3016063 37.977802,11.4624808 L37.95,11.377 L37.9471131,11.3591291 L37.9191875,11.271382 C37.2249809,9.29930403 35.085529,8.27208883 33.1328542,8.95715013 Z M35.5057546,11.9634114 L35.549,12.069 L35.5560457,12.0939841 C35.7827805,12.7458466 35.4384215,13.457745 34.7864838,13.6842163 L21.936762,18.1852821 C21.2119952,18.4391573 20.8853892,19.2804136 21.2489834,19.9568297 L22.3589834,22.0218297 C22.5506743,22.3784439 22.9032138,22.6201295 23.3049566,22.6703473 L25.9716232,23.0036807 C26.3828685,23.0554365 26.7837317,23.1461783 27.1701166,23.2754316 C30.4464528,24.3675444 32.2158362,27.9063111 31.1241459,31.181382 L30.5147379,33.013015 C30.2770001,33.6566366 29.5581809,33.9869327 28.9097773,33.7474322 C28.2633634,33.5086667 27.9330673,32.7898476 28.1725678,32.141444 L28.7596933,30.3987504 C28.8388798,30.1612076 28.8937612,29.9202344 28.9238764,29.6768026 C29.1834301,27.6253685 27.7284939,25.7498769 25.6735667,25.4898861 L23.8208848,25.2595498 C23.2160884,25.1843589 22.6452256,25.5562889 22.4696571,26.1399054 L19.3229905,36.5999054 C19.1643097,37.1302283 18.6783038,37.4916667 18.125,37.4916667 C18.0057332,37.4916667 17.8822532,37.4734448 17.7579826,37.4370513 L17.6481247,37.3992196 C17.0726238,37.1844548 16.7377414,36.5140576 16.9272413,35.8826567 L20.3789018,24.3826774 C20.4740977,24.0655108 20.4395518,23.7235304 20.2828479,23.43181 L18.6811813,20.4501434 C18.3900876,19.9082426 17.7479996,19.6586742 17.1673492,19.8617432 L16.5573492,20.0750766 C12.138006,21.6235232 7.2853771,19.4125093 5.55295928,15.0625073 C5.2953425,14.4192954 5.60743456,13.6906507 6.24923835,13.4339292 C6.8897049,13.1782426 7.61784451,13.4903393 7.87461238,14.1314253 C9.11361107,17.2341297 12.5758554,18.8136114 15.7357335,17.7144272 L33.9607335,11.3160939 C34.5704711,11.1021783 35.2360244,11.3900636 35.5057546,11.9634114 Z"></path>
  <path d="M6.25,0 C3.77750657,0 1.875,2.28314808 1.875,5 C1.875,7.71685192 3.77750657,10 6.25,10 C8.72249343,10 10.625,7.71685192 10.625,5 C10.625,2.28314808 8.72249343,0 6.25,0 Z M6.25,2.5 C7.230648,2.5 8.125,3.5732883 8.125,5 C8.125,6.4267117 7.230648,7.5 6.25,7.5 C5.269352,7.5 4.375,6.4267117 4.375,5 C4.375,3.5732883 5.269352,2.5 6.25,2.5 Z"></path>
  <path d="M6.25,7.5 C6.89720869,7.5 7.4295339,7.99187466 7.49354639,8.62219476 L7.5,8.75 L7.5,12.1383333 C7.5,12.8286893 6.94035594,13.3883333 6.25,13.3883333 C5.60279131,13.3883333 5.0704661,12.8964587 5.00645361,12.2661386 L5,12.1383333 L5,8.75 C5,8.05964406 5.55964406,7.5 6.25,7.5 Z"></path>
  <path d="M26.3611165,0.73278319 C26.0879797,1.00591998 25.8817103,1.34036508 25.7585607,1.70648556 L24.5357587,5.37654368 C24.0988757,6.68719243 24.8090968,8.10453763 26.1207674,8.5384236 C26.632195,8.70779253 27.1844717,8.70779253 27.6963057,8.53828907 L31.365123,7.31590802 C32.6753326,6.87917148 33.3824578,5.46285961 32.9458541,4.15304863 C32.822957,3.78435739 32.616406,3.45030573 32.3422168,3.17611652 L29.8969154,0.732481883 C28.963171,-0.201262578 27.4741208,-0.241860163 26.4918251,0.610952817 L26.3611165,0.73278319 Z M26.907,6.165 L28.1294499,2.50055014 L30.5747153,4.94414588 L26.907,6.165 Z"></path>
</svg>