<svg viewBox="0 0 42 42" xmlns="http://www.w3.org/2000/svg">
  <path d="M31.705,8.86833333 C28.9429774,8.86833333 26.705,11.1063107 26.705,13.8683333 C26.705,16.6303559 28.9429774,18.8683333 31.705,18.8683333 C34.4670226,18.8683333 36.705,16.6303559 36.705,13.8683333 C36.705,11.1063107 34.4670226,8.86833333 31.705,8.86833333 Z M31.705,11.3683333 C33.0863107,11.3683333 34.205,12.4870226 34.205,13.8683333 C34.205,15.2496441 33.0863107,16.3683333 31.705,16.3683333 C30.3236893,16.3683333 29.205,15.2496441 29.205,13.8683333 C29.205,12.4870226 30.3236893,11.3683333 31.705,11.3683333 Z"></path>
  <path d="M3.40060621,4.30410459 C2.22780893,5.03918608 1.8742461,6.58228683 2.60751727,7.75218765 L9.08589348,17.9168329 L9.22237801,18.1171392 C9.65024896,18.7034177 10.2412472,19.1557156 10.9243925,19.4141422 L20.526,23.018 L26.3224606,30.014174 C27.6420891,31.6087254 30.0066982,31.8298759 31.6019596,30.5096596 C33.1976918,29.1890536 33.4196827,26.823729 32.0972517,25.2288122 L25.6638889,17.4704434 L25.5023121,17.2883073 C25.1124653,16.8765337 24.6343871,16.5582709 24.1018599,16.3552995 L14.734,12.833 L10.7186834,6.54083697 C10.4296274,6.08565083 9.99834836,5.73333838 9.49057097,5.54292186 L5.60966265,4.08613108 C4.87968589,3.80947322 4.06306694,3.89131499 3.40060621,4.30410459 Z M11.1952107,16.5749027 L4.725,6.424 L8.60978931,7.88343063 L12.8513166,14.529163 C12.9967294,14.7569992 13.2120734,14.9315652 13.4650659,15.0266914 L23.2167326,18.6933581 C23.4199181,18.7708153 23.6012151,18.8998523 23.7402149,19.0671515 L30.1727778,26.8245566 C30.6133275,27.3558812 30.5393649,28.1439569 30.0080404,28.5836738 C29.475776,29.0241684 28.687201,28.9504168 28.2479929,28.419707 L22.239206,21.1674927 C22.1002447,20.9997754 21.9198717,20.8712785 21.7159592,20.7947342 L11.8059592,17.0747342 C11.5565583,16.9803841 11.3410424,16.8045457 11.1952107,16.5749027 Z"></path>
  <path d="M15.1014779,14.3055023 C15.3442058,13.6592249 16.064887,13.3320833 16.7111644,13.5748112 C17.3170495,13.8023686 17.642444,14.4500022 17.48075,15.0625837 L17.4418554,15.1844977 L15.6835221,19.8661644 C15.4407942,20.5124418 14.720113,20.8395833 14.0738356,20.5968554 C13.4679505,20.369298 13.142556,19.7216645 13.30425,19.109083 L13.3431446,18.9871689 L15.1014779,14.3055023 Z"></path>
  <path d="M12.4384614,11.2300505 C13.0671176,10.9447741 13.8080064,11.2231384 14.0932828,11.8517947 C14.3607295,12.4411599 14.1327887,13.1291671 13.5852546,13.4479263 L13.4715386,13.5066162 L8.87320531,15.5932828 C8.24454906,15.8785593 7.50366024,15.6001949 7.21838382,14.9715386 C6.95093718,14.3821734 7.17887794,13.6941663 7.72641205,13.3754071 L7.84012802,13.3167172 L12.4384614,11.2300505 Z"></path>
  <path d="M7.49355289,33.2120074 C7.99384819,32.532791 9.0094695,32.5339774 9.50817646,33.2143609 C11.6303104,36.1095779 15.6965121,36.7367766 18.5905673,34.6154944 C19.12629,34.2224446 19.5991113,33.7496233 19.9921611,33.2139006 C20.4917609,32.5329514 21.5088877,32.5331837 22.0081765,33.2143609 C24.1303104,36.1095779 28.1965121,36.7367766 31.0905673,34.6154944 C31.62629,34.2224446 32.0991113,33.7496233 32.4921611,33.2139006 C32.9910373,32.5339376 34.0062936,32.5329834 34.5064471,33.2120074 C35.7348818,34.8797684 37.6808394,35.865806 39.7525321,35.8700026 C40.4428866,35.871401 41.0013959,36.4321775 40.9999999,37.1225321 C40.998599,37.8128866 40.4378225,38.3713959 39.7474679,38.3699974 C37.4968459,38.3654384 35.3533316,37.5226943 33.7141289,36.0431773 L33.501,35.844 L33.4721752,35.8733818 C33.2829781,36.0545133 33.0858402,36.2274716 32.8812903,36.3917249 L32.5689724,36.6315098 C29.0060729,39.2430411 24.1613156,38.8469857 21.0650457,35.9113134 L20.999,35.846 L20.9721752,35.8733818 C20.7829781,36.0545133 20.5858402,36.2274716 20.3812903,36.3917249 L20.0689724,36.6315098 C16.5060729,39.2430411 11.6613156,38.8469857 8.56504575,35.9113134 L8.497,35.845 L8.28587109,36.0431773 C6.7211776,37.4554435 4.69697705,38.2875097 2.55873388,38.3641993 L2.25253207,38.3699974 C1.56217755,38.3713959 1.00140099,37.8128866 0.999999944,37.1225321 C0.998604142,36.4321775 1.55711341,35.871401 2.24746793,35.8700026 C4.31916057,35.865806 6.26511818,34.8797684 7.49355289,33.2120074 Z"></path>
</svg>