<svg viewBox="0 0 42 42" xmlns="http://www.w3.org/2000/svg">
  <path d="M26.8333333,8.5 C27.5236893,8.5 28.0833333,9.05964406 28.0833333,9.75 C28.0833333,13.2020226 25.2853559,16 21.8333333,16 C18.3813107,16 15.5833333,13.2020226 15.5833333,9.75 C15.5833333,9.05964406 16.1429774,8.5 16.8333333,8.5 C17.5236893,8.5 18.0833333,9.05964406 18.0833333,9.75 C18.0833333,11.8213107 19.7620226,13.5 21.8333333,13.5 C23.9046441,13.5 25.5833333,11.8213107 25.5833333,9.75 C25.5833333,9.05964406 26.1429774,8.5 26.8333333,8.5 Z"></path>
  <path d="M21.8333333,2.25 C17.6913107,2.25 14.3333333,5.6079774 14.3333333,9.75 C14.3333333,10.4403559 14.8929774,11 15.5833333,11 L28.0833333,11 C28.7736893,11 29.3333333,10.4403559 29.3333333,9.75 C29.3333333,5.6079774 25.9753559,2.25 21.8333333,2.25 Z M22.0502145,4.75461974 C24.2025835,4.84649017 26.0026974,6.29924037 26.6119679,8.27428196 L26.675,8.5 L16.991,8.5 L16.9940147,8.48785393 C17.5533172,6.33754696 19.508019,4.75 21.8333333,4.75 L22.0502145,4.75461974 Z"></path>
  <path d="M38.9898497,1.04811855 C39.6536305,0.858417799 40.345514,1.24273561 40.5352148,1.90651641 C40.7130592,2.5288109 40.3863952,3.17580504 39.797929,3.41055707 L39.6768169,3.45188145 L33.2384836,5.29188145 C32.5747028,5.4815822 31.8828193,5.09726439 31.6931185,4.43348359 C31.5152741,3.8111891 31.8419381,3.16419496 32.4304044,2.92944293 L32.5515164,2.88811855 L38.9898497,1.04811855 Z"></path>
  <path d="M32.0230827,12.6616419 C32.2008622,12.0393288 32.8200388,11.6625915 33.4436963,11.7741817 L33.5683581,11.8030827 L39.6766914,13.5480827 C40.340492,13.7377141 40.7248821,14.4295575 40.5352506,15.0933581 C40.3574712,15.7156712 39.7382945,16.0924085 39.114637,15.9808183 L38.9899752,15.9519173 L32.8816419,14.2069173 C32.2178413,14.0172859 31.8334513,13.3254425 32.0230827,12.6616419 Z"></path>
  <path d="M14.1812761,15.8542928 C15.593137,14.4376051 17.8541014,14.3858713 19.3306943,15.7018289 L19.4858249,15.848058 L22.1655501,18.5294499 C22.30438,18.6682797 22.4751361,18.77216 22.6637792,18.8332513 L22.808396,18.8709243 L27.5678978,19.8224915 C29.5981847,20.2275487 30.9159232,22.2041566 30.5108418,24.2345645 C30.1057846,26.2648513 28.1291768,27.5825899 26.0987688,27.1775085 C25.4217551,27.0424393 24.9824223,26.3841159 25.1174915,25.7071022 C25.2441189,25.0724018 25.8306376,24.6466006 26.4613,24.7071484 L26.5878978,24.7258248 C27.264798,24.8608714 27.9243432,24.4211746 28.0591582,23.7454355 C28.1857643,23.1108416 27.8072249,22.4915011 27.2022106,22.3053963 L27.0782707,22.2740757 L22.3189983,21.3225543 C21.671769,21.1935532 21.0712912,20.897863 20.5775437,20.4654481 L20.3975085,20.296942 L17.7192928,17.6170572 C17.2295898,17.1290226 16.4393794,17.1300522 15.9505501,17.6205501 C15.8987556,17.6723447 15.8520339,17.7281796 15.8104604,17.7878403 L15.7519706,17.8801737 L10.7501959,26.6332691 C10.6636166,26.783784 10.6093014,26.9515682 10.5906151,27.121953 L10.5833333,27.25 L10.5833333,31.07 C10.5833333,31.569111 10.4840472,32.0614419 10.2917878,32.5197058 L10.1879395,32.7458726 L8.21439881,36.6912869 C7.9055525,37.3081471 8.15609319,38.0592536 8.77462028,38.3689345 C9.35292666,38.6584779 10.049223,38.4563726 10.3888437,37.9209806 L10.4518716,37.8095053 L12.423275,33.8650322 C12.8080053,33.0943386 13.0291987,32.2520628 13.0745804,31.3928795 L13.0833333,31.07 L13.0833333,30.7183333 C13.0833333,29.9076847 13.8378992,29.3234197 14.6073708,29.49853 L14.7288823,29.5325673 L16.966291,30.2789408 C17.8425249,30.5663825 18.5791009,31.169767 19.0317456,31.9597571 L19.1389081,32.1610674 L21.9727321,37.8087131 C22.282413,38.4272401 23.0335196,38.6777808 23.6503797,38.3689345 C24.2276717,38.079899 24.4844066,37.4063327 24.2653676,36.8170743 L24.2110919,36.692266 L21.3755037,31.0410828 C20.6823199,29.6455771 19.4915447,28.5656947 18.0412878,28.0090438 L17.766382,27.9108541 L15.121382,27.0291875 C14.4664528,26.8108777 14.1125028,26.1029778 14.3308125,25.4480486 C14.5354779,24.8340526 15.1704472,24.4845889 15.7886639,24.6231861 L15.9119514,24.6574792 L18.5544368,25.5383106 C20.6637341,26.2364452 22.4220533,27.7128287 23.473305,29.656489 L23.6122414,29.9244007 L26.4460655,35.5720464 C27.3734252,37.4242662 26.6220146,39.6769517 24.7696203,40.6043988 C22.9791412,41.5008465 20.814449,40.8285767 19.8348094,39.1103861 L19.7377586,38.9289326 L16.9005098,33.2743938 C16.7763087,33.0224632 16.5688881,32.8217108 16.3129621,32.7041388 L16.1811177,32.6524327 L15.476,32.417 L15.4578764,32.5404968 C15.334049,33.2659345 15.1194226,33.9741912 14.8178242,34.6481307 L14.6597951,34.9821614 L12.6877321,38.9279536 C11.760285,40.780348 9.50759951,41.5317585 7.65537972,40.6043988 C5.86473185,39.7078666 5.10289217,37.5729727 5.89158574,35.7589136 L5.97872715,35.5724608 L7.95196601,31.6276497 C8.01684081,31.4979001 8.05829753,31.3584392 8.07497121,31.2148114 L8.08333333,31.07 L8.08334251,27.2452108 C8.08552884,26.6745771 8.21778601,26.1121109 8.46729098,25.6040841 L8.58136274,25.3898263 L13.5825249,16.6377969 C13.7477151,16.3499655 13.9484884,16.0870779 14.1812761,15.8542928 Z"></path>
  <path d="M4.05608449,12.1119802 L1.1629415,17.1766469 C0.592275547,18.1763535 0.938918655,19.4482373 1.93864684,20.0189155 L4.83149299,21.6719706 C5.83135351,22.2427245 7.10323733,21.8960813 7.67391551,20.8963532 L10.5670585,15.8316865 C11.1377245,14.8319798 10.7910813,13.560096 9.79135316,12.9894178 L6.89997241,11.3372014 C5.9016229,10.7649258 4.62691379,11.1119873 4.05608449,12.1119802 Z M6.02,13.713 L8.189,14.953 L5.709,19.294 L3.54,18.055 L6.02,13.713 Z"></path>
</svg>