<svg viewBox="0 0 42 42" xmlns="http://www.w3.org/2000/svg">
  <path d="M25.1768741,24.7499531 L14.55,24.7499531 C11.9927438,24.7480589 9.56183179,25.8669418 7.90112134,27.8115676 L1.90259591,34.8098441 C1.31999221,35.4899651 1,36.3550565 1,37.25 C1,39.3203559 2.67964406,41 4.75,41 C5.84750127,41 6.89169132,40.5180661 7.60421038,39.6830438 L13.6024041,32.6851559 C13.8393073,32.4073844 14.1836632,32.2491669 14.5471461,32.2499967 L25.18,32.25 C25.5106134,32.2508346 25.8304994,32.3832701 26.0676009,32.61869 L28.3241241,34.876891 C30.2262637,36.7790306 33.1322118,37.2503948 35.5386297,36.0482276 L38.9271303,34.3548106 C40.780348,33.4269517 41.5317585,31.1742662 40.6043988,29.3220464 L40.5073006,29.1404983 C39.5272176,27.4214233 37.3625255,26.7491535 35.5720464,27.6456012 L32.99,28.937 L31.3675425,27.313109 C29.7303341,25.6681193 27.5000951,24.7441706 25.1768741,24.7499531 Z M14.5490629,27.2499531 L25.1831259,27.2499531 C26.8389756,27.2458317 28.4290099,27.9045549 29.5973578,29.0784532 L31.8591241,31.341891 C32.239618,31.7226655 32.8211492,31.8170863 33.3025703,31.5762573 L36.6909036,29.8812573 C37.3081471,29.5722192 38.0592536,29.8227599 38.3689345,30.4412869 C38.6777808,31.0581471 38.4272401,31.8092536 37.8087131,32.1189345 L34.421203,33.811856 C32.9770873,34.5332887 31.2331827,34.2504158 30.0922168,33.1094499 L27.8325425,30.848109 C27.1254105,30.1459786 26.1749887,29.752496 25.1831407,29.7500039 L14.55,29.75 C13.455849,29.7474987 12.4137102,30.2263192 11.7022494,31.060532 L5.70426258,38.0581774 C5.46479488,38.338812 5.11555429,38.5 4.75,38.5 C4.06035594,38.5 3.5,37.9396441 3.5,37.25 C3.5,36.9516851 3.60662564,36.6634252 3.80098374,36.4365351 L9.80073742,29.4368226 C10.9873682,28.0473283 12.7226897,27.2486068 14.5490629,27.2499531 Z"></path>
  <path d="M29.75,14.125 C26.6429774,14.125 24.125,16.6429774 24.125,19.75 C24.125,22.8570226 26.6429774,25.375 29.75,25.375 C32.8570226,25.375 35.375,22.8570226 35.375,19.75 C35.375,16.6429774 32.8570226,14.125 29.75,14.125 Z M29.75,16.625 C31.4763107,16.625 32.875,18.0236893 32.875,19.75 C32.875,21.4763107 31.4763107,22.875 29.75,22.875 C28.0236893,22.875 26.625,21.4763107 26.625,19.75 C26.625,18.0236893 28.0236893,16.625 29.75,16.625 Z"></path>
  <path d="M3.07307591,1.0059642 L2.25466067,0.999999283 C1.22230668,0.996159494 0.630562786,2.17455015 1.25020339,3.0002711 C3.96572889,6.61892734 4.81803261,11.3061832 3.55008068,15.6497235 C3.2848535,16.558295 4.08642898,17.4205707 5.01191136,17.222253 L40.0119114,9.72225302 C41.0739517,9.49467295 41.3603846,8.11414517 40.4765477,7.48283316 C36.5758487,4.69661958 29.0674964,2.93639864 19.0962549,1.91095264 C15.5403378,1.54526088 11.8784834,1.29860747 8.27223141,1.14958879 L6.45947329,1.08260823 C5.16570557,1.04064215 4.02519491,1.01660887 3.07307591,1.0059642 Z M4.72095571,3.8365032 L4.557,3.531 L5.66917166,3.55962476 C6.44117114,3.58172452 7.27751672,3.61061839 8.16901371,3.64745711 C11.7274919,3.79450166 15.3396549,4.03780797 18.8405029,4.39783642 L19.4217547,4.45880084 C26.3315022,5.19781644 31.9813353,6.31756989 35.7968135,7.83516442 L36.171,7.988 L6.4,14.367 L6.45277817,14.0339392 C6.95809149,10.5353656 6.34989022,6.9662578 4.72095571,3.8365032 Z"></path>
  <path d="M19.1347949,12.3853746 C19.2846254,11.7114739 19.9523914,11.286631 20.6262921,11.4364615 C21.258074,11.5769276 21.6709574,12.1726105 21.5966434,12.8017992 L21.5752051,12.9279588 L19.7202051,21.2712921 C19.5703746,21.9451928 18.9026086,22.3700356 18.2287079,22.2202051 C17.596926,22.0797391 17.1840426,21.4840562 17.2583566,20.8548674 L17.2797949,20.7287079 L19.1347949,12.3853746 Z"></path>
</svg>