<svg viewBox="0 0 42 42" xmlns="http://www.w3.org/2000/svg">
  <path d="M21,11 C17.8929774,11 15.375,13.5179774 15.375,16.625 C15.375,19.7320226 17.8929774,22.25 21,22.25 C24.1070226,22.25 26.625,19.7320226 26.625,16.625 C26.625,13.5179774 24.1070226,11 21,11 Z M21,13.5 C22.7263107,13.5 24.125,14.8986893 24.125,16.625 C24.125,18.3513107 22.7263107,19.75 21,19.75 C19.2736893,19.75 17.875,18.3513107 17.875,16.625 C17.875,14.8986893 19.2736893,13.5 21,13.5 Z"></path>
  <path d="M7.22565447,14.7509744 C7.91547227,14.7237216 8.49677284,15.2608367 8.52402563,15.9506545 C8.66813209,19.5982524 10.0162535,23.0932923 12.3201119,25.8472281 C13.4694541,27.0971002 14.8851933,28.0735512 16.4648094,28.7062994 C16.899558,28.880447 17.1970457,29.2810515 17.2436079,29.7401376 L17.25,29.8666667 L17.25,39.75 C17.25,40.4403559 16.6903559,41 16,41 C15.3527913,41 14.8204661,40.5081253 14.7564536,39.8778052 L14.75,39.75 L14.749,30.683 L14.4041684,30.5141158 C13.0527071,29.8264959 11.8176712,28.9177435 10.7334766,27.8044411 L10.4415529,27.4957542 C7.74434527,24.2740895 6.19190475,20.2493468 6.02597437,16.0493455 C5.99872159,15.3595277 6.53583666,14.7782272 7.22565447,14.7509744 Z"></path>
  <path d="M30.5718355,10.1457068 C31.1890836,9.83652059 31.940107,10.0862541 32.2492932,10.7035022 C32.5391553,11.2821723 32.3377793,11.9784183 31.8028783,12.3179502 L31.6914978,12.3809599 C31.2724362,12.5908723 31.009565,13.0150204 31.0014816,13.4774297 L31.0173536,13.8532513 C31.0826871,15.7345194 30.8715657,17.9633137 30.1282813,20.1580454 C29.606562,21.698551 28.8592181,23.0507085 27.8325237,24.1680162 C27.1916913,24.8419615 26.4511005,25.4100256 25.6376749,25.8496627 C25.5007525,25.923666 25.3516275,25.9712291 25.1980745,25.9903854 L25.0433333,26 L16.9583333,26 C16.7506196,26 16.5461799,25.9482381 16.3634927,25.8493929 C15.5614592,25.4154423 14.8301381,24.859247 14.1761139,24.1807697 C12.5539841,22.4218736 11.6239799,20.0805549 11.2074196,17.4274254 C10.9590336,15.8454211 10.930798,14.3649112 10.9973468,13.5999126 C11.0344402,13.1381375 10.8125705,12.6970967 10.4297207,12.449935 L10.3101344,12.381776 C9.69243556,12.0734912 9.44160593,11.3228332 9.74989071,10.7051344 C10.0581755,10.0874356 10.8088335,9.83660593 11.4265323,10.1448907 C12.7353547,10.7981056 13.5397274,12.150795 13.4994008,13.6088623 L13.47798,14.0351773 C13.4729838,14.2102086 13.4705485,14.4577962 13.4757884,14.7325451 C13.4897019,15.4620896 13.5520666,16.2428969 13.6771638,17.0396579 C14.0237165,19.2468994 14.7779824,21.1457909 15.9946633,22.4655165 C16.2992486,22.7812793 16.6344567,23.0642551 16.9947092,23.3101389 L17.292,23.5 L24.709,23.5 L24.7351296,23.4857293 C25.1106144,23.2563154 25.4611186,22.9879337 25.7764252,22.6899234 L26.0061459,22.4610062 C26.7631681,21.6369703 27.3435894,20.5868232 27.7603896,19.3561173 C28.1164724,18.3046943 28.3383401,17.1680502 28.4482911,16.0073049 C28.5131833,15.3222421 28.5331268,14.7087986 28.525116,14.1908979 L28.511,13.762 L28.503003,13.6134971 C28.460627,12.2256332 29.1890621,10.9262745 30.3961672,10.2395814 L30.5718355,10.1457068 Z"></path>
  <path d="M34.7737951,14.7509527 C35.4636248,14.7779015 36.000996,15.3589653 35.9740473,16.0487951 C35.809882,20.2510692 34.2571755,24.2792865 31.5185467,27.5478042 C30.3950626,28.765034 29.0652175,29.7692208 27.5935614,30.5160692 L27.25,30.683 L27.25,39.75 C27.25,40.3972087 26.7581253,40.9295339 26.1278052,40.9935464 L26,41 C25.3527913,41 24.8204661,40.5081253 24.7564536,39.8778052 L24.75,39.75 L24.75,29.8666667 C24.75,29.3555359 25.0611887,28.8959 25.5357617,28.7060708 C27.1133206,28.0750472 28.5296658,27.1000907 29.6415954,25.8975284 C31.9850368,23.098719 33.3333831,19.6006774 33.4759527,15.9512049 C33.5029015,15.2613752 34.0839653,14.724004 34.7737951,14.7509527 Z"></path>
  <path d="M7.02492681,6.02906972 C16.2648224,4.32475454 25.7385109,4.32475454 34.9784065,6.02906972 C35.6573101,6.15429468 36.1061552,6.80616965 35.9809303,7.48507319 C35.8557053,8.16397674 35.2038304,8.61282192 34.5249268,8.48759695 C25.5848224,6.83857879 16.4185109,6.83857879 7.47840653,8.48759695 C6.79950298,8.61282192 6.14762802,8.16397674 6.02240305,7.48507319 C5.89717808,6.80616965 6.34602326,6.15429468 7.02492681,6.02906972 Z"></path>
  <path d="M37.25,1 C35.1796441,1 33.5,2.67964406 33.5,4.75 L33.5,9.75 C33.5,11.8203559 35.1796441,13.5 37.25,13.5 C39.3203559,13.5 41,11.8203559 41,9.75 L41,4.75 C41,2.67964406 39.3203559,1 37.25,1 Z M37.25,3.5 C37.9396441,3.5 38.5,4.06035594 38.5,4.75 L38.5,9.75 C38.5,10.4396441 37.9396441,11 37.25,11 C36.5603559,11 36,10.4396441 36,9.75 L36,4.75 C36,4.06035594 36.5603559,3.5 37.25,3.5 Z"></path>
  <path d="M4.75,1 C2.67964406,1 1,2.67964406 1,4.75 L1,9.75 C1,11.8203559 2.67964406,13.5 4.75,13.5 C6.82035594,13.5 8.5,11.8203559 8.5,9.75 L8.5,4.75 C8.5,2.67964406 6.82035594,1 4.75,1 Z M4.75,3.5 C5.43964406,3.5 6,4.06035594 6,4.75 L6,9.75 C6,10.4396441 5.43964406,11 4.75,11 C4.06035594,11 3.5,10.4396441 3.5,9.75 L3.5,4.75 C3.5,4.06035594 4.06035594,3.5 4.75,3.5 Z"></path>
</svg>