<svg width="96" height="85" viewBox="0 0 96 85" fill="none" xmlns="http://www.w3.org/2000/svg">
<path d="M46.6904 37.5996H56.8617V42.2996H46.6904V37.5996Z" fill="#2F91EB"/>
<path d="M46.6904 18.8008H56.8617V23.5008H46.6904V18.8008Z" fill="#2F91EB"/>
<path d="M46.6904 47H56.8617V51.7H46.6904V47Z" fill="#2F91EB"/>
<path d="M97.5472 56.4008V42.3008C82.0432 42.2978 67.0217 47.2831 55.0617 56.4008H48.4911C36.5311 47.2831 21.5096 42.2978 6.00557 42.3008V56.4008C4.65677 56.4008 3.36322 56.896 2.40947 57.7774C1.45573 58.6588 0.919922 59.8543 0.919922 61.1008V70.5008C0.919922 71.7473 1.45573 72.9428 2.40947 73.8242C3.36322 74.7056 4.65677 75.2008 6.00557 75.2008V94.0008C23.0021 93.9864 39.3672 99.9521 51.7764 110.686C64.1986 99.9711 80.5552 94.0085 97.5472 94.0008V75.2008C98.896 75.2008 100.19 74.7056 101.143 73.8242C102.097 72.9428 102.633 71.7473 102.633 70.5008V61.1008C102.633 59.8543 102.097 58.6588 101.143 57.7774C100.19 56.896 98.896 56.4008 97.5472 56.4008Z" fill="#2F91EB"/>
<path d="M36.5192 23.4996C39.328 23.4996 41.6049 21.3953 41.6049 18.7996C41.6049 16.2039 39.328 14.0996 36.5192 14.0996C33.7105 14.0996 31.4336 16.2039 31.4336 18.7996C31.4336 21.3953 33.7105 23.4996 36.5192 23.4996Z" fill="#2F91EB"/>
<path d="M67.0329 23.4996C69.8416 23.4996 72.1186 21.3953 72.1186 18.7996C72.1186 16.2039 69.8416 14.0996 67.0329 14.0996C64.2242 14.0996 61.9473 16.2039 61.9473 18.7996C61.9473 21.3953 64.2242 23.4996 67.0329 23.4996Z" fill="#2F91EB"/>
<path d="M72.1194 37.6H31.4342C27.389 37.5963 23.5107 36.1095 20.6504 33.4661C17.79 30.8226 16.1813 27.2384 16.1772 23.5V14.1C16.1813 10.3616 17.79 6.77737 20.6504 4.13392C23.5107 1.49046 27.389 0.00373281 31.4342 0L72.1194 0C76.1645 0.00373281 80.0428 1.49046 82.9032 4.13392C85.7636 6.77737 87.3723 10.3616 87.3763 14.1V23.5C87.3723 27.2384 85.7636 30.8226 82.9032 33.4661C80.0428 36.1095 76.1645 37.5963 72.1194 37.6ZM31.4342 9.4C30.0858 9.40124 28.793 9.89682 27.8396 10.778C26.8861 11.6591 26.3499 12.8539 26.3485 14.1V23.5C26.3499 24.7461 26.8861 25.9409 27.8396 26.822C28.793 27.7032 30.0858 28.1988 31.4342 28.2H72.1194C73.4678 28.1988 74.7605 27.7032 75.714 26.822C76.6674 25.9409 77.2037 24.7461 77.205 23.5V14.1C77.2037 12.8539 76.6674 11.6591 75.714 10.778C74.7605 9.89682 73.4678 9.40124 72.1194 9.4H31.4342Z" fill="#2F91EB"/>
</svg>
