<svg width="16" height="14" viewBox="0 0 16 14" fill="none" xmlns="http://www.w3.org/2000/svg">
<path d="M5.33374 7.99877C5.92496 7.99862 6.49945 8.19498 6.9669 8.55696C7.43434 8.91894 7.76821 9.42602 7.91601 9.99846H15.3322C15.4988 9.99816 15.6594 10.0602 15.7825 10.1724C15.9056 10.2847 15.9822 10.4389 15.9973 10.6048C16.0123 10.7707 15.9647 10.9362 15.8638 11.0687C15.7629 11.2013 15.6161 11.2913 15.4522 11.3209L15.3322 11.3316L7.91601 11.3329C7.76871 11.9059 7.43505 12.4135 6.96756 12.776C6.50007 13.1385 5.92531 13.3352 5.33374 13.3352C4.74218 13.3352 4.16741 13.1385 3.69993 12.776C3.23244 12.4135 2.89878 11.9059 2.75147 11.3329L0.667793 11.3316C0.501224 11.3319 0.340576 11.2698 0.217485 11.1576C0.094393 11.0454 0.0177782 10.8911 0.00272788 10.7253C-0.0123224 10.5594 0.0352823 10.3939 0.136167 10.2613C0.237053 10.1288 0.383907 10.0388 0.547811 10.0091L0.667793 9.99846H2.75147C2.89928 9.42602 3.23315 8.91894 3.70059 8.55696C4.16803 8.19498 4.74253 7.99862 5.33374 7.99877ZM10.6663 8.61755e-08C11.2575 -0.000150174 11.832 0.196204 12.2994 0.558188C12.7669 0.920172 13.1007 1.42725 13.2485 1.99969H15.3322C15.4988 1.99939 15.6594 2.06146 15.7825 2.17368C15.9056 2.2859 15.9822 2.44014 15.9973 2.60603C16.0123 2.77192 15.9647 2.93743 15.8638 3.06997C15.7629 3.20251 15.6161 3.29248 15.4522 3.32216L15.3322 3.33282L13.2485 3.33415C13.1012 3.90708 12.7676 4.41475 12.3001 4.77725C11.8326 5.13974 11.2578 5.33648 10.6663 5.33648C10.0747 5.33648 9.49993 5.13974 9.03244 4.77725C8.56495 4.41475 8.23129 3.90708 8.08399 3.33415L0.667793 3.33282C0.501224 3.33313 0.340576 3.27106 0.217485 3.15884C0.094393 3.04661 0.0177782 2.89237 0.00272788 2.72649C-0.0123224 2.5606 0.0352823 2.39509 0.136167 2.26254C0.237053 2.13 0.383907 2.04003 0.547811 2.01036L0.667793 1.99969H8.08399C8.23179 1.42725 8.56566 0.920172 9.03311 0.558188C9.50055 0.196204 10.075 -0.000150174 10.6663 8.61755e-08Z" fill="#2F91EB"/>
</svg>
