<svg width="56" height="47" viewBox="0 0 56 47" fill="none" xmlns="http://www.w3.org/2000/svg">
<path fill-rule="evenodd" clip-rule="evenodd" d="M36.7743 9.9885C35.5685 12.6571 33.8889 14.8661 32.0584 16.1911L31.9568 16.2646L32.2578 16.386C33.9461 17.0661 35.7461 18.4536 36.8697 19.9405C37.0749 20.2121 37.1458 20.2538 37.2907 20.188C37.3222 20.1737 37.3955 20.1545 37.4538 20.1449C37.512 20.1355 37.5678 20.1239 37.5778 20.1192C37.5877 20.1145 37.6123 20.1075 37.6322 20.1037C37.6521 20.0998 37.6928 20.0862 37.7227 20.0733C37.7526 20.0606 37.8096 20.0442 37.8496 20.0371C37.8894 20.0299 37.9628 20.0082 38.0126 19.9886C38.299 19.8763 38.6868 19.7444 38.7101 19.7513C38.7252 19.7558 38.7374 19.7463 38.7374 19.7304C38.7374 19.7016 38.9679 19.6056 39.0134 19.6155C39.0265 19.6183 39.0472 19.607 39.0594 19.5903C39.1001 19.5348 39.3786 19.3981 39.4025 19.4219C39.4153 19.4347 39.4259 19.4236 39.4259 19.397C39.4259 19.3703 39.4358 19.3586 39.4479 19.3707C39.4599 19.3827 39.5044 19.3603 39.5467 19.321C39.5892 19.2815 39.6607 19.24 39.706 19.2286C39.7513 19.2173 39.7882 19.1924 39.7882 19.1734C39.7882 19.1545 39.8045 19.1492 39.8244 19.1614C39.8445 19.1738 39.8608 19.1688 39.8608 19.1503C39.8608 19.1318 39.9259 19.0735 40.0057 19.0207C40.0854 18.9681 40.1507 18.9333 40.1507 18.9435C40.1507 18.9537 40.182 18.9336 40.2206 18.8987C40.2589 18.8638 40.32 18.8122 40.3564 18.7839C40.3927 18.7557 40.4618 18.6987 40.5097 18.6572C40.5584 18.615 40.5835 18.6056 40.5663 18.636C40.5492 18.6659 40.6013 18.6251 40.682 18.5453C40.7627 18.4656 40.9309 18.3027 41.0557 18.1834L41.2826 17.9661L41.1967 17.8038C41.1496 17.7145 41.0756 17.5894 41.0324 17.5256C40.9893 17.462 40.9622 17.4017 40.9721 17.3917C40.9821 17.3817 40.9563 17.3554 40.9148 17.3331C40.8731 17.3109 40.8391 17.2761 40.8391 17.2558C40.8391 17.2354 40.7902 17.1666 40.7306 17.103C40.6709 17.0393 40.622 16.9744 40.6219 16.9588C40.6219 16.9431 40.5484 16.8537 40.4586 16.76C40.3689 16.6665 40.2956 16.5769 40.2956 16.5609C40.2956 16.5252 39.8294 16.0631 39.7934 16.0631C39.779 16.0631 39.7033 15.9939 39.6252 15.9092C39.5472 15.8244 39.4734 15.7582 39.4612 15.7619C39.4491 15.7657 39.3713 15.7069 39.2886 15.6311C39.2057 15.5555 39.1298 15.5018 39.1197 15.5118C39.1097 15.5218 39.0912 15.5032 39.0785 15.4704C39.066 15.4377 39.0331 15.4109 39.0052 15.4109C38.9775 15.4109 38.9548 15.3946 38.9548 15.3747C38.9548 15.3547 38.9313 15.3384 38.9025 15.3384C38.8737 15.3384 38.8245 15.3017 38.7931 15.2569C38.7617 15.212 38.7241 15.1796 38.7095 15.1847C38.6949 15.1899 38.6586 15.1736 38.6287 15.1485C38.5988 15.1233 38.5295 15.0829 38.4747 15.0583C38.4199 15.0339 38.3749 14.9963 38.3749 14.9747C38.3749 14.9532 38.3586 14.9455 38.3387 14.9579C38.3189 14.9703 38.3026 14.9621 38.3026 14.9397C38.3026 14.9175 38.2863 14.9094 38.2662 14.9217C38.2463 14.934 38.23 14.9267 38.23 14.9058C38.23 14.8846 38.2056 14.8674 38.1757 14.8674C38.0825 14.8674 38.1085 14.8362 38.6105 14.3464C38.8796 14.084 39.0997 13.855 39.0997 13.8375C39.0997 13.8201 39.1691 13.7288 39.2538 13.6347C39.3384 13.5407 39.4729 13.3712 39.5527 13.2583C39.6324 13.1452 39.7181 13.03 39.743 13.0023C39.7679 12.9746 39.7882 12.9428 39.7882 12.9315C39.7882 12.9204 39.8595 12.7999 39.9468 12.664C40.0339 12.528 40.1164 12.3813 40.1303 12.3377C40.1441 12.2943 40.1747 12.2383 40.1983 12.2132C40.222 12.1881 40.2901 12.0617 40.3499 11.9322C40.4098 11.8025 40.4709 11.6911 40.4857 11.6845C40.5008 11.6778 40.513 11.6321 40.513 11.5827C40.513 11.5242 40.5276 11.5019 40.5548 11.5188C40.5797 11.5342 40.5869 11.5289 40.5724 11.5055C40.559 11.4839 40.5794 11.3873 40.6175 11.2905C40.6828 11.1249 40.6527 10.9349 40.5736 11.0138C40.5612 11.0264 40.5407 11.0099 40.5282 10.9772C40.5157 10.9446 40.4908 10.9269 40.4729 10.9379C40.455 10.949 40.4405 10.9407 40.4405 10.9195C40.4405 10.8986 40.4192 10.8812 40.393 10.8812C40.3669 10.8812 40.3105 10.8486 40.2677 10.8088C40.2249 10.7689 40.1761 10.7363 40.1592 10.7363C40.1424 10.7363 40.0534 10.6887 39.9616 10.6304C39.8699 10.5721 39.7851 10.5341 39.7734 10.5458C39.7616 10.5576 39.7521 10.5482 39.7521 10.525C39.7521 10.5016 39.7398 10.4858 39.7248 10.4897C39.6712 10.504 39.5347 10.4407 39.5347 10.4017C39.5347 10.3798 39.5243 10.3721 39.5118 10.3848C39.4991 10.3973 39.4543 10.3884 39.412 10.3649C39.3699 10.3414 39.3271 10.3203 39.3172 10.3179C39.1756 10.2849 39.0997 10.2502 39.0997 10.2191C39.0997 10.1979 39.089 10.1913 39.0759 10.2045C39.0627 10.2177 39.0301 10.2101 39.0035 10.1881C38.9767 10.1658 38.9548 10.1597 38.9548 10.1746C38.9548 10.1895 38.9304 10.1813 38.9004 10.1564C38.8705 10.1317 38.8461 10.1235 38.8461 10.1384C38.8461 10.1533 38.8217 10.1451 38.7917 10.1202C38.7618 10.0955 38.7374 10.0873 38.7374 10.1021C38.7374 10.1169 38.7129 10.1088 38.683 10.084C38.6531 10.0591 38.6287 10.0475 38.6287 10.0582C38.6287 10.0689 38.543 10.0538 38.4384 10.0247C38.3337 9.9957 38.2073 9.96453 38.1575 9.95513C38.1077 9.94589 38.0263 9.92804 37.9764 9.91535C37.859 9.88559 37.8076 9.87603 37.6322 9.85144C37.5524 9.84032 37.4301 9.82011 37.3604 9.80649C37.2905 9.79302 37.2212 9.78472 37.206 9.78816C37.1909 9.79161 37.1139 9.77986 37.0349 9.762L36.8913 9.72974L36.7743 9.9885Z" fill="#3D3D3C"/>
<path fill-rule="evenodd" clip-rule="evenodd" d="M28.2923 0.0139887C28.2574 0.0337248 28.2288 0.0669314 28.2288 0.0880772C28.2288 0.124417 28.1095 0.288257 27.9931 0.411529C27.9633 0.44317 27.9389 0.480919 27.9389 0.495643C27.9389 0.520078 27.6892 0.850892 27.56 0.997347C27.5293 1.03228 27.5041 1.06987 27.5041 1.08099C27.5041 1.09869 27.3008 1.3728 27.2505 1.42324C27.2405 1.43311 27.1758 1.52286 27.1066 1.62248C26.9697 1.81984 26.9341 1.8673 26.8519 1.96238C26.8219 1.99684 26.741 2.10586 26.6717 2.20438C26.5281 2.4091 26.5428 2.38952 26.3267 2.66191C26.2369 2.77516 26.1633 2.88152 26.1633 2.89843C26.1633 2.91519 26.1348 2.9556 26.0999 2.98787C26.0651 3.02029 25.9957 3.10707 25.9459 3.18069C25.8961 3.25431 25.8268 3.34108 25.7919 3.37351C25.757 3.40577 25.7285 3.44619 25.7285 3.46295C25.7285 3.47986 25.6592 3.58152 25.5745 3.68913C25.4898 3.79674 25.3552 3.97655 25.2755 4.08902C25.1958 4.20148 25.1021 4.32444 25.0672 4.36219C25.0322 4.39994 25.0037 4.44082 25.0037 4.45288C25.0037 4.46494 24.9671 4.51898 24.9223 4.57287C24.8773 4.6269 24.8081 4.71666 24.7681 4.77226C24.664 4.91778 24.3369 5.35166 24.3153 5.37312C24.3053 5.38298 24.2406 5.47274 24.1714 5.57236C24.1021 5.67198 24.0327 5.76987 24.0171 5.78977C24.0014 5.80966 23.9074 5.93199 23.8083 6.06153C23.7091 6.19107 23.6032 6.32295 23.573 6.35444C23.5428 6.38608 23.518 6.42461 23.518 6.44012C23.518 6.45562 23.4529 6.54616 23.3731 6.64139C23.2934 6.73663 23.2281 6.8256 23.2281 6.83907C23.2281 6.86209 22.9736 7.19792 22.8492 7.33889C22.8185 7.37382 22.7933 7.4122 22.7933 7.42426C22.7933 7.43632 22.7566 7.49036 22.7117 7.5444C22.6669 7.59844 22.5976 7.68819 22.5577 7.74395C22.3929 7.97436 22.1793 8.25803 22.1257 8.3174C22.0942 8.35217 22.0685 8.3907 22.0685 8.40276C22.0685 8.41482 22.0319 8.46886 21.9871 8.52274C21.9421 8.57678 21.8729 8.66716 21.833 8.72371C21.7932 8.7801 21.6912 8.91339 21.6065 9.01975C21.5219 9.1261 21.4525 9.22917 21.4525 9.24859C21.4525 9.26817 21.4199 9.30154 21.38 9.32284C21.3402 9.3443 21.3076 9.37923 21.3076 9.40053C21.3076 9.43734 21.1889 9.60055 21.0719 9.72461C21.0421 9.75609 21.0177 9.794 21.0177 9.80857C21.0177 9.82313 20.9484 9.92307 20.8637 10.0307C20.779 10.1381 20.6444 10.3181 20.5647 10.4304C20.4849 10.5427 20.3913 10.6611 20.3563 10.6934C20.3214 10.7258 20.2929 10.7661 20.2929 10.7828C20.2929 10.7998 20.2202 10.9063 20.1314 11.0195C19.8882 11.3297 19.8465 11.3716 19.8302 11.3228C19.8222 11.2991 19.8001 11.2797 19.7812 11.2797C19.7621 11.2797 19.7022 11.2493 19.6482 11.2122C19.471 11.0902 18.9328 10.7827 18.8511 10.7567C18.8069 10.7427 18.7709 10.7133 18.7709 10.6915C18.7709 10.6696 18.7609 10.6618 18.7485 10.6741C18.7361 10.6865 18.6302 10.6483 18.5131 10.5891C18.3961 10.53 18.288 10.4801 18.2729 10.4782C18.2579 10.4763 18.1802 10.4407 18.1005 10.3991C18.0209 10.3574 17.9183 10.3178 17.8727 10.3109C17.8272 10.3042 17.7455 10.2804 17.6915 10.2581C17.5693 10.2078 17.5743 10.2092 17.2672 10.14C16.7168 10.0158 16.0603 10.039 15.5674 10.1998C15.3038 10.286 14.6399 10.6204 14.6399 10.6671C14.6399 10.6851 14.6168 10.7 14.5886 10.7C14.5604 10.7 14.5319 10.7125 14.5251 10.7277C14.5185 10.7431 14.4192 10.8358 14.3047 10.934C14.1901 11.032 14.0964 11.126 14.0964 11.1428C14.0964 11.1595 14.0311 11.2557 13.9514 11.3566C13.8716 11.4573 13.8065 11.5536 13.8065 11.5702C13.8065 11.587 13.7861 11.6227 13.7612 11.6497C13.7191 11.6952 13.57 11.9672 13.3977 12.3125C13.202 12.7048 12.8231 13.2004 12.7191 13.2004C12.6992 13.2004 12.6831 13.2127 12.6831 13.2279C12.6831 13.2433 12.6179 13.2961 12.5382 13.3452C12.4585 13.3946 12.3932 13.45 12.3932 13.4685C12.3932 13.4872 12.3833 13.4923 12.3712 13.4803C12.3592 13.4682 12.3147 13.4906 12.2722 13.5301C12.2299 13.5694 12.1584 13.611 12.1131 13.6223C12.0678 13.6338 12.0309 13.6585 12.0309 13.6775C12.0309 13.6964 12.0146 13.7019 11.9945 13.6895C11.9746 13.6772 11.9583 13.6872 11.9583 13.7115C11.9583 13.7359 11.9485 13.7461 11.9364 13.734C11.9243 13.7219 11.8797 13.7442 11.8374 13.7837C11.7951 13.8231 11.7235 13.8646 11.6783 13.8761C11.633 13.8874 11.596 13.9121 11.596 13.9311C11.596 13.95 11.5796 13.9555 11.5597 13.9431C11.5398 13.9309 11.5235 13.9348 11.5235 13.9519C11.5235 13.969 11.4665 14.0036 11.3966 14.0288C11.3269 14.054 11.2698 14.0927 11.2698 14.1146C11.2698 14.1366 11.2594 14.1442 11.2467 14.1314C11.2341 14.1187 11.1811 14.1377 11.129 14.1734C10.9407 14.3026 10.6252 14.4641 10.6034 14.4425C10.5914 14.4303 10.5814 14.4403 10.5814 14.4647C10.5814 14.4891 10.5651 14.499 10.5452 14.4868C10.5251 14.4744 10.5088 14.4826 10.5088 14.5048C10.5088 14.5271 10.4925 14.5354 10.4726 14.523C10.4528 14.5106 10.4363 14.5175 10.4363 14.5382C10.4363 14.559 10.3956 14.5861 10.3458 14.5986C10.296 14.6112 10.2552 14.6387 10.2552 14.6597C10.2552 14.6809 10.2455 14.6885 10.2339 14.6768C10.2222 14.6651 10.1382 14.7026 10.0474 14.7601C9.95653 14.8178 9.86835 14.8563 9.85128 14.8458C9.8342 14.8353 9.82042 14.8467 9.82042 14.8712C9.82042 14.8956 9.81086 14.9061 9.79927 14.8945C9.78768 14.8829 9.72049 14.9125 9.65 14.9603C9.57951 15.0082 9.50746 15.0385 9.48992 15.0277C9.47237 15.0167 9.45796 15.0261 9.45796 15.0483C9.45796 15.0707 9.44308 15.0797 9.42491 15.0684C9.40659 15.0571 9.38623 15.0602 9.37949 15.0753C9.36038 15.1185 9.05948 15.2739 9.05886 15.241C9.05854 15.2247 9.04633 15.2286 9.0316 15.2496C8.99542 15.3016 8.69718 15.4526 8.6964 15.4193C8.69609 15.4047 8.68387 15.4111 8.6693 15.4337C8.63265 15.4899 8.05514 15.7715 8.02929 15.7457C8.01786 15.7342 8.00846 15.7449 8.00846 15.7692C8.00846 15.7936 7.99217 15.8036 7.97228 15.7913C7.95238 15.7789 7.93594 15.7842 7.93594 15.8028C7.93594 15.839 7.71915 15.9413 7.67326 15.9267C7.65838 15.9221 7.64616 15.9354 7.64616 15.9565C7.64616 15.9777 7.62987 15.9847 7.60982 15.9725C7.58993 15.9601 7.57364 15.9653 7.57364 15.9841C7.57364 16.0201 7.3567 16.1224 7.31096 16.108C7.29592 16.1031 7.28371 16.1166 7.28371 16.1376C7.28371 16.1587 7.26742 16.1659 7.24752 16.1537C7.22763 16.1413 7.21134 16.1465 7.21134 16.1651C7.21134 16.2013 6.9944 16.3036 6.94851 16.289C6.93363 16.2843 6.92141 16.2977 6.92141 16.3188C6.92141 16.34 6.90512 16.3472 6.88507 16.3348C6.86518 16.3226 6.84889 16.3277 6.84889 16.3464C6.84889 16.3826 6.63195 16.4848 6.58621 16.4703C6.57117 16.4656 6.55895 16.4779 6.55895 16.4978C6.55895 16.5179 6.54674 16.5306 6.53186 16.5264C6.51682 16.522 6.42033 16.5614 6.31742 16.6139C6.21451 16.6664 6.12069 16.6997 6.1091 16.6882C6.09751 16.6766 6.08795 16.6849 6.08795 16.7068C6.08795 16.7458 5.95137 16.8091 5.89764 16.795C5.88276 16.7911 5.87054 16.8069 5.87054 16.8301C5.87054 16.8532 5.86161 16.8636 5.85081 16.8528C5.80554 16.8075 5.45358 17.0246 5.44214 17.105C5.43588 17.1498 5.4481 17.1864 5.4694 17.1864C5.4907 17.1864 5.50809 17.2082 5.50809 17.2347C5.50809 17.2613 5.53252 17.2831 5.56244 17.2831C5.59236 17.2831 5.61679 17.2694 5.61679 17.2528C5.61679 17.2362 5.62901 17.2262 5.64405 17.2304C5.65893 17.2348 5.75682 17.1947 5.86146 17.1413C5.96609 17.088 6.05193 17.0559 6.05224 17.0702C6.05255 17.0843 6.06477 17.0794 6.07934 17.0595C6.12304 17 6.32964 16.8966 6.35455 16.9215C6.36739 16.9344 6.37788 16.9248 6.37788 16.9004C6.37788 16.876 6.39417 16.8661 6.41407 16.8783C6.43396 16.8907 6.45041 16.8876 6.45041 16.8714C6.45056 16.8409 6.73423 16.7134 6.79046 16.7185C6.80816 16.7201 6.83432 16.7027 6.84842 16.6797C6.86267 16.6568 6.89713 16.6343 6.92501 16.6296C6.95289 16.625 7.01241 16.6011 7.05721 16.5765C7.10217 16.5517 7.13882 16.5415 7.13882 16.5536C7.13882 16.5657 7.16435 16.5498 7.19568 16.5187C7.22701 16.4874 7.2765 16.4617 7.30579 16.4617C7.33493 16.4617 7.39899 16.4353 7.44802 16.4031C7.4972 16.371 7.53761 16.3588 7.53793 16.376C7.53824 16.3932 7.55218 16.3858 7.56878 16.3595C7.58539 16.3334 7.62188 16.3082 7.64976 16.3035C7.67764 16.2989 7.73309 16.2771 7.77288 16.2551C7.81282 16.2331 7.85355 16.2146 7.86357 16.2142C7.87344 16.2136 7.93061 16.193 7.99045 16.1684C8.05012 16.1438 8.11137 16.1265 8.12625 16.1296C8.14113 16.1329 8.1535 16.1193 8.1535 16.0992C8.1535 16.0793 8.16572 16.0665 8.1806 16.0705C8.19564 16.0746 8.2608 16.0497 8.32549 16.0152C8.39034 15.9806 8.44328 15.9614 8.44328 15.9723C8.44328 15.9833 8.48134 15.9673 8.52771 15.9369C8.57423 15.9065 8.6231 15.8926 8.63641 15.9059C8.64988 15.9192 8.66069 15.9111 8.66069 15.8879C8.66069 15.8647 8.69061 15.8456 8.72726 15.8456C8.76376 15.8456 8.80589 15.8334 8.82077 15.8185C8.83581 15.8035 8.85883 15.7898 8.87215 15.788C8.88546 15.7862 8.976 15.7477 9.07358 15.7026C9.17101 15.6573 9.26891 15.6163 9.29099 15.6114C9.31308 15.6066 9.39641 15.5737 9.47613 15.5385C9.55586 15.5032 9.63731 15.4714 9.65736 15.4678C9.67725 15.4642 9.74633 15.4332 9.81086 15.399C9.87556 15.3647 9.93257 15.3387 9.93774 15.3409C9.94291 15.3431 9.98802 15.3286 10.0378 15.3084C10.1487 15.2636 10.264 15.2203 10.3005 15.2101C10.3154 15.2059 10.3357 15.1984 10.3458 15.1934C10.3558 15.1884 10.3762 15.1819 10.391 15.1793C10.4061 15.1765 10.4365 15.1625 10.4587 15.1484C10.5272 15.1047 11.0887 14.9042 11.0887 14.9233C11.0887 14.9332 11.1258 14.9169 11.1714 14.8872C11.217 14.8572 11.2862 14.8269 11.3254 14.8193C11.3645 14.812 11.4408 14.7877 11.495 14.7655C11.549 14.7432 11.6305 14.72 11.6761 14.7138C11.7217 14.7075 11.7754 14.6925 11.7953 14.6802C11.8152 14.6682 11.8886 14.6452 11.9583 14.6289C12.1181 14.5919 12.096 14.5975 12.2664 14.5491C12.346 14.5266 12.4671 14.4984 12.5351 14.4868C12.6032 14.4751 12.6732 14.4566 12.6908 14.4458C12.8353 14.3565 13.9568 14.5263 14.1291 14.6636C14.157 14.6859 14.1855 14.7001 14.1926 14.6951C14.1995 14.6901 14.2092 14.6873 14.214 14.6889C14.2191 14.6903 14.2476 14.6965 14.2775 14.7025C14.3074 14.7086 14.3972 14.7424 14.4769 14.778C14.6443 14.8525 14.6287 14.8467 14.7577 14.8831C14.8125 14.8986 14.8573 14.9268 14.8573 14.9457C14.8573 14.9647 14.8736 14.9702 14.8935 14.9578C14.9134 14.9454 14.9299 14.9526 14.9299 14.9738C14.9299 14.9949 14.9421 15.0089 14.957 15.0049C15.008 14.9915 15.1473 15.0532 15.1473 15.0892C15.1473 15.109 15.1636 15.1151 15.1835 15.1027C15.2034 15.0905 15.2196 15.0986 15.2196 15.1209C15.2196 15.1431 15.2359 15.1512 15.256 15.139C15.2759 15.1267 15.2922 15.1326 15.2922 15.1522C15.2922 15.1718 15.3492 15.2065 15.419 15.2296C15.4887 15.2526 15.5458 15.2875 15.5458 15.3069C15.5458 15.3265 15.5622 15.3325 15.5821 15.3203C15.602 15.3079 15.6183 15.3151 15.6183 15.3362C15.6183 15.3572 15.6427 15.3746 15.6726 15.3746C15.7026 15.3746 15.727 15.3909 15.727 15.4108C15.727 15.4307 15.752 15.447 15.7826 15.447C15.813 15.447 15.8473 15.4714 15.8587 15.5012C15.8702 15.5309 15.8943 15.5463 15.9123 15.5352C15.9303 15.524 15.9547 15.5403 15.9666 15.5715C15.9787 15.6027 16.0094 15.6282 16.0351 15.6282C16.0608 15.6282 16.1331 15.6763 16.1961 15.735C16.2589 15.7938 16.3177 15.8428 16.3266 15.8439C16.3567 15.8476 16.539 16.0073 16.7738 16.2352C16.9021 16.3597 17.02 16.4617 17.0357 16.4617C17.0513 16.4617 17.0783 16.4867 17.0954 16.5173C17.1124 16.5478 17.2023 16.651 17.2951 16.7467C17.3878 16.8423 17.5369 17.0171 17.6263 17.135C17.7158 17.253 17.8142 17.3821 17.8449 17.422C17.9932 17.6147 18.1187 17.8054 18.1187 17.8383C18.1187 17.8585 18.1349 17.875 18.155 17.875C18.1749 17.875 18.1912 17.898 18.1912 17.9262C18.1912 17.9546 18.2042 17.9831 18.22 17.9896C18.2698 18.0105 18.5389 18.5042 18.9744 19.3734C19.4183 20.2598 19.6003 20.5906 19.8274 20.9245C19.904 21.0375 19.9668 21.1433 19.9668 21.1601C19.9668 21.1769 20.0403 21.2842 20.1299 21.3983C20.2196 21.5125 20.2929 21.6145 20.2929 21.6248C20.2929 21.6352 20.3177 21.6721 20.3479 21.7071C20.5138 21.8983 20.619 22.0373 20.6193 22.0651C20.6195 22.0824 20.6928 22.1685 20.7824 22.2564C20.872 22.3444 20.9451 22.4354 20.9451 22.4588C20.9451 22.5029 22.1271 23.6728 22.1719 23.6728C22.1859 23.6728 22.2227 23.7014 22.2537 23.7363C22.332 23.8245 22.5348 23.999 22.559 23.999C22.5818 23.999 22.6532 24.0546 22.7803 24.1711C22.8292 24.2159 22.8846 24.2527 22.9037 24.2527C22.9227 24.2527 22.9382 24.267 22.9382 24.2845C22.9382 24.3021 22.9872 24.3367 23.0469 24.3614C23.1067 24.3862 23.1556 24.4208 23.1556 24.4383C23.1556 24.4557 23.1802 24.4701 23.2101 24.4701C23.2399 24.4701 23.2644 24.4874 23.2644 24.5085C23.2644 24.5296 23.2793 24.5376 23.2975 24.5264C23.3157 24.5151 23.3362 24.5196 23.3428 24.5364C23.3495 24.5531 23.4732 24.6286 23.6177 24.7041C23.7622 24.7796 23.8803 24.8584 23.8803 24.8793C23.8803 24.9001 23.8911 24.9064 23.9043 24.8932C23.9173 24.88 23.95 24.8876 23.9767 24.9096C24.0035 24.9319 24.0254 24.9396 24.0254 24.9269C24.0254 24.9142 24.1068 24.945 24.2063 24.9955C24.3058 25.0458 24.3914 25.0855 24.3966 25.0835C24.4016 25.0816 24.4923 25.1142 24.5982 25.1559C24.7039 25.1975 24.8588 25.2483 24.9423 25.2686C25.026 25.289 25.127 25.3136 25.1668 25.3235C25.2067 25.3333 25.4227 25.3517 25.647 25.3642C25.8712 25.3767 26.0546 25.3919 26.0546 25.3977C26.0546 25.4037 26.0078 25.5439 25.9504 25.7093C25.8931 25.8748 25.7689 26.263 25.6744 26.5719C25.58 26.8807 25.4896 27.1478 25.4735 27.1652C25.4575 27.1824 25.453 27.2192 25.4634 27.2466C25.4739 27.2741 25.465 27.2966 25.4436 27.2966C25.4223 27.2966 25.414 27.321 25.4255 27.351C25.437 27.3809 25.4273 27.4053 25.4041 27.4053C25.3809 27.4053 25.371 27.4202 25.3823 27.4384C25.3936 27.4565 25.3475 27.6318 25.2802 27.8279C25.2128 28.024 25.0712 28.4617 24.9655 28.8005C24.8598 29.1393 24.7578 29.4369 24.7392 29.4618C24.7204 29.4867 24.7171 29.507 24.732 29.507C24.7468 29.507 24.7407 29.529 24.7186 29.5558C24.6964 29.5824 24.6867 29.6128 24.6969 29.623C24.7072 29.6333 24.6591 29.8029 24.5902 30.0001C24.5213 30.1973 24.4289 30.4851 24.3849 30.6395C24.3407 30.794 24.2898 30.9204 24.2716 30.9204C24.2534 30.9204 24.2478 30.9353 24.2591 30.9536C24.2704 30.9717 24.2641 31.0274 24.2451 31.0772L24.2108 31.1675L24.562 31.1943C24.9763 31.226 26.106 31.1636 26.5983 31.0817C26.7875 31.0502 26.9833 31.0183 27.0331 31.0106C27.0829 31.0031 27.1766 30.9807 27.2414 30.9611C27.3061 30.9415 27.3592 30.9343 27.3592 30.9454C27.3592 30.9564 27.3796 30.949 27.4045 30.929C27.4294 30.9089 27.5069 30.8793 27.5766 30.8632C27.74 30.8253 27.7188 30.8325 27.8744 30.7631C27.9485 30.7299 28.0229 30.703 28.0398 30.703C28.0841 30.703 28.7074 30.3764 28.7753 30.3176C28.8067 30.2904 28.8516 30.268 28.875 30.268C28.8983 30.268 28.9174 30.249 28.9174 30.2258C28.9174 30.2025 28.9267 30.1928 28.9379 30.2041C28.9492 30.2154 29.0048 30.1814 29.0615 30.1286C29.1182 30.0758 29.2028 29.9994 29.2493 29.9586C29.6873 29.5772 30.1127 28.9021 30.2776 28.3273C30.3116 28.2089 30.3536 28.0942 30.371 28.0724C30.3882 28.0506 30.3925 28.0228 30.3802 28.0106C30.368 27.9982 30.3702 27.959 30.3852 27.9233C30.4001 27.8874 30.4158 27.8257 30.4199 27.7858C30.4239 27.746 30.4487 27.5511 30.4748 27.353C30.7418 25.3341 29.5794 21.7982 27.6944 18.895C27.5475 18.6687 27.4322 18.4796 27.4385 18.4749C27.4447 18.4704 27.6291 18.4055 27.8484 18.3309C28.6554 18.0567 29.7078 17.5678 30.8288 16.9466C33.2581 15.6003 35.2514 13.2719 36.7194 10.0658C36.7924 9.90631 36.8671 9.75139 36.8855 9.72148C36.9273 9.65334 37.1992 9.0069 37.2323 8.8971C37.2457 8.8523 37.2686 8.81565 37.2828 8.81565C37.2971 8.81565 37.3109 8.78699 37.3132 8.75221C37.3184 8.67546 37.6116 7.89902 37.645 7.87349C37.658 7.86347 37.6686 7.83903 37.6686 7.81914C37.6686 7.74943 37.9534 6.913 37.981 6.90172C37.9963 6.89546 37.9999 6.86695 37.989 6.83829C37.9778 6.80978 37.988 6.78628 38.0112 6.78628C38.0344 6.78628 38.0447 6.77218 38.0341 6.75495C38.0234 6.73757 38.0768 6.53786 38.153 6.31105C38.2291 6.08408 38.2848 5.87968 38.277 5.85649C38.2692 5.83347 38.2792 5.80433 38.2993 5.79196C38.3195 5.77959 38.3267 5.74544 38.3155 5.71615C38.3043 5.68686 38.3116 5.66289 38.3318 5.66289C38.352 5.66289 38.36 5.63031 38.3495 5.59053C38.3386 5.54839 38.3484 5.518 38.3732 5.518C38.3967 5.518 38.4058 5.50171 38.3934 5.48182C38.3812 5.46177 38.3832 5.4259 38.3981 5.40178C38.413 5.37766 38.4288 5.32472 38.4332 5.28399C38.4377 5.24327 38.4847 5.03933 38.5378 4.83053C38.5909 4.62189 38.6356 4.40527 38.6371 4.34919C38.6387 4.29296 38.6545 4.23813 38.6722 4.22717C38.6899 4.21636 38.6949 4.17752 38.6833 4.14102C38.6717 4.10453 38.6777 4.06505 38.6965 4.05346C38.7154 4.04172 38.7223 3.99958 38.712 3.95979C38.7006 3.91641 38.7109 3.88727 38.7374 3.88727C38.7668 3.88727 38.774 3.85626 38.7587 3.79501C38.7458 3.74426 38.7479 3.68318 38.7629 3.65921C38.7779 3.63525 38.7919 3.56664 38.7938 3.5068C38.7955 3.44697 38.8107 3.29253 38.8273 3.16346C38.8563 2.93978 38.8547 2.9318 38.7941 2.99241C38.759 3.02734 38.6714 3.0806 38.5994 3.11067C38.5273 3.14075 38.4597 3.17834 38.449 3.19416C38.4225 3.23332 38.0223 3.46279 37.877 3.522C37.8123 3.54831 37.7593 3.58528 37.7593 3.60392C37.7593 3.62271 37.7429 3.62788 37.723 3.61551C37.7031 3.60329 37.6868 3.60862 37.6868 3.62741C37.6868 3.64637 37.5523 3.73142 37.3878 3.81663C37.2235 3.90168 37.0769 3.98909 37.0623 4.01086C37.0476 4.03263 37.0354 4.03749 37.035 4.02182C37.0347 4.00616 36.9992 4.02621 36.956 4.06646C36.9127 4.10672 36.8067 4.16671 36.7204 4.1996C36.6341 4.23265 36.5634 4.27181 36.5634 4.28701C36.5634 4.30204 36.5227 4.3246 36.4729 4.33713C36.4231 4.3495 36.3822 4.37676 36.3822 4.39743C36.3822 4.41827 36.3659 4.42516 36.346 4.41278C36.3261 4.40041 36.3098 4.40856 36.3098 4.43095C36.3098 4.4532 36.2935 4.46134 36.2735 4.44897C36.2536 4.43675 36.2373 4.44239 36.2373 4.46181C36.2373 4.48108 36.1598 4.53386 36.0652 4.57913C35.9706 4.6244 35.8849 4.67233 35.8749 4.68564C35.8463 4.72402 35.6784 4.80938 35.6485 4.80093C35.6335 4.7967 35.6213 4.81048 35.6213 4.83163C35.6213 4.85277 35.605 4.85998 35.5851 4.84761C35.565 4.83523 35.5487 4.84134 35.5487 4.86092C35.5487 4.88066 35.4836 4.92545 35.4038 4.9607C35.3241 4.99578 35.259 5.0387 35.259 5.05609C35.259 5.07332 35.2425 5.07739 35.2226 5.06501C35.2027 5.0528 35.1864 5.06094 35.1864 5.08318C35.1864 5.10543 35.1702 5.11357 35.1503 5.1012C35.1302 5.08898 35.1139 5.09431 35.1139 5.11326C35.1139 5.13205 34.9794 5.21726 34.8151 5.30232C34.6506 5.38753 34.5106 5.47101 34.5038 5.48777C34.4972 5.50469 34.4769 5.50923 34.4586 5.49796C34.4404 5.48668 34.4255 5.49294 34.4255 5.5119C34.4255 5.53069 34.291 5.61575 34.1265 5.70095C33.962 5.78601 33.8156 5.87341 33.8008 5.89518C33.7863 5.91695 33.7741 5.92181 33.7737 5.90615C33.7734 5.89048 33.7379 5.91053 33.6946 5.95079C33.6514 5.99104 33.5454 6.05103 33.4591 6.08393C33.3728 6.11698 33.3021 6.15614 33.3021 6.17133C33.3021 6.18637 33.2614 6.20892 33.2114 6.22145C33.1616 6.23383 33.1209 6.26108 33.1209 6.28176C33.1209 6.30259 33.1046 6.30948 33.0847 6.29711C33.0647 6.28474 33.0484 6.29288 33.0484 6.31528C33.0484 6.33752 33.0321 6.34567 33.0122 6.33329C32.9923 6.32108 32.976 6.32703 32.976 6.34676C32.976 6.36634 32.9107 6.4113 32.831 6.44638C32.7512 6.48163 32.6861 6.52454 32.6861 6.54177C32.6861 6.559 32.6698 6.56308 32.6499 6.5507C32.6298 6.53849 32.6135 6.54303 32.6135 6.56088C32.6135 6.59581 32.4322 6.69434 32.3871 6.68384C32.3722 6.6804 32.36 6.69481 32.36 6.71595C32.36 6.7371 32.3437 6.7443 32.3236 6.73193C32.3037 6.71971 32.2874 6.72566 32.2874 6.74524C32.2874 6.76498 32.2223 6.80978 32.1425 6.84502C32.0628 6.88026 31.9975 6.92303 31.9975 6.94041C31.9975 6.95764 31.9812 6.96171 31.9613 6.94934C31.9414 6.93712 31.9251 6.94527 31.9251 6.96751C31.9251 6.98975 31.9087 6.9979 31.8888 6.98568C31.8689 6.9733 31.8526 6.97863 31.8526 6.99758C31.8526 7.01638 31.7181 7.10159 31.5536 7.18664C31.3893 7.27185 31.2493 7.35534 31.2425 7.3721C31.2358 7.38902 31.2154 7.39356 31.1972 7.38228C31.1791 7.371 31.164 7.37711 31.164 7.39559C31.164 7.41423 31.0295 7.49866 30.8652 7.5834C30.7007 7.66814 30.5543 7.75586 30.5395 7.77826C30.525 7.80065 30.5127 7.80614 30.5124 7.79047C30.5121 7.77481 30.4764 7.79486 30.4332 7.83511C30.3899 7.87537 30.2841 7.93536 30.1976 7.96825C30.1113 8.0013 30.0408 8.04062 30.0408 8.05566C30.0408 8.07069 29.9999 8.09325 29.9501 8.10578C29.9003 8.11831 29.8596 8.14541 29.8596 8.16609C29.8596 8.18692 29.8433 8.19381 29.8232 8.18144C29.8033 8.16906 29.7871 8.1736 29.7871 8.19162C29.7871 8.20947 29.6932 8.26978 29.5787 8.32554C29.4641 8.3813 29.3623 8.43785 29.3522 8.45116C29.3422 8.46432 29.2739 8.51178 29.2003 8.55642L29.0665 8.63771L29.1392 8.39148C29.1793 8.25599 29.213 8.10829 29.2142 8.06302C29.2153 8.01775 29.2291 7.97295 29.2446 7.9634C29.2601 7.95369 29.2644 7.91328 29.254 7.87333C29.2429 7.83104 29.2529 7.80097 29.278 7.80097C29.3037 7.80097 29.3121 7.77324 29.2988 7.73158C29.2868 7.69336 29.294 7.65138 29.3151 7.63838C29.3361 7.62538 29.3453 7.60173 29.3355 7.58575C29.3258 7.56993 29.3417 7.43099 29.3712 7.27702C29.6154 6.00107 29.6141 4.30095 29.3681 3.11835C29.3402 2.98443 29.327 2.84987 29.3388 2.81933C29.3507 2.78832 29.3405 2.76404 29.3156 2.76404C29.2891 2.76404 29.2789 2.73475 29.2902 2.69152C29.3007 2.65173 29.2933 2.60928 29.2739 2.59722C29.2545 2.58532 29.2471 2.55321 29.2576 2.52595C29.268 2.4987 29.2598 2.46612 29.2395 2.45343C29.2191 2.4409 29.211 2.40816 29.2213 2.38091C29.2318 2.35381 29.2258 2.32248 29.208 2.31152C29.1903 2.3004 29.1779 2.26249 29.1806 2.22694C29.1857 2.15849 28.9409 1.33521 28.8607 1.15148C28.8347 1.09164 28.7724 0.936728 28.7222 0.807191C28.4184 0.0222902 28.3853 -0.0384842 28.2923 0.0139887ZM25.283 37.7335C24.7736 38.1342 25.0625 38.8909 25.7091 38.8497C26.3127 38.8114 26.5286 38.1742 26.0734 37.7746C25.9063 37.6278 25.4476 37.604 25.283 37.7335ZM0 38.0409V38.3852H0.380624H0.761092V41.3567V44.3281H1.14046H1.51983L1.53002 42.7789L1.5402 41.2298L1.62713 41.0547C2.14042 40.0204 3.76176 39.8646 4.07879 40.819C4.16635 41.0829 4.20175 41.7306 4.20269 43.087L4.20363 44.3281H4.58409H4.96456V42.6834C4.96456 40.5655 4.90786 40.2341 4.47899 39.8409C3.85872 39.2726 2.44101 39.3475 1.72393 39.9866L1.52203 40.1666V38.9317V37.6967H0.761092H0V38.0409ZM39.6798 38.0409V38.3852H40.0603H40.4408V41.2254V44.0655L40.6247 44.1446C41.7247 44.6178 43.2482 44.5002 44.0298 43.8818C45.0119 43.1047 45.1209 40.894 44.2215 39.9935C43.5434 39.3145 42.1508 39.2894 41.4102 39.9427L41.238 40.0945V38.8956V37.6967H40.4589H39.6798V38.0409ZM52.7705 38.5391L52.3991 38.6492V39.1151V39.5811H51.8374H51.2757V39.9254V40.2695H51.8374H52.3991V41.5393C52.3991 42.9556 52.4265 43.2031 52.6239 43.5748C53.099 44.4689 54.3697 44.7331 55.5465 44.1824C56.0523 43.9457 56.0744 43.9061 55.9051 43.5382L55.7873 43.2822L55.5699 43.4119C54.7903 43.877 53.885 43.863 53.471 43.3795C53.2255 43.0927 53.2186 43.0462 53.2047 41.5832L53.1922 40.2695H54.4626H55.7329V39.9254V39.5811H54.4647H53.1964V39.0012C53.1964 38.6823 53.1842 38.4231 53.1691 38.4251C53.1543 38.4271 52.9749 38.4785 52.7705 38.5391ZM13.0349 39.5278C12.8274 39.6039 12.6911 39.7148 12.5213 39.9456L12.3675 40.1547L12.3018 39.8679L12.2364 39.5811H11.9706H11.7047V41.9546V44.3281H12.0841H12.4636L12.4737 42.6513L12.4838 40.9745L12.5994 40.7399C12.845 40.2414 13.3079 40.0333 13.5944 40.2925C13.7571 40.4397 13.7701 40.6059 13.7701 42.5228V44.3281H14.1675H14.5648L14.5751 42.6521L14.5856 40.9762L14.681 40.7724C14.9722 40.1515 15.5589 39.9758 15.7757 40.4448C15.852 40.6098 15.8542 40.6575 15.865 42.471L15.8761 44.3281H16.2545H16.633L16.6327 42.471C16.6323 40.5472 16.6165 40.2865 16.481 39.9714C16.1692 39.2466 15.0466 39.2965 14.4938 40.0594L14.3967 40.1935L14.3527 40.0469C14.2206 39.6061 13.5458 39.3403 13.0349 39.5278ZM18.715 39.5183C18.4994 39.6053 18.3495 39.725 18.2078 39.9227C18.0372 40.1609 18.0258 40.1645 17.9968 39.9886C17.9844 39.9139 17.9572 39.7916 17.9362 39.7169L17.8978 39.5811H17.6278H17.3577V41.9546V44.3281H17.7382H18.1187V42.7169C18.1187 40.9186 18.1179 40.9248 18.3868 40.5326C18.6132 40.2026 19.0267 40.0814 19.2375 40.2833C19.4313 40.469 19.4345 40.5019 19.4502 42.489L19.4648 44.3281H19.8426H20.2204V42.7393C20.2204 40.9966 20.2231 40.9717 20.45 40.5843C20.6681 40.2123 21.0969 40.0655 21.3353 40.2815C21.5136 40.4427 21.525 40.5777 21.525 42.5228V44.3281H21.9072H22.2892L22.2786 42.2716L22.2678 40.2151L22.1411 39.9628C21.7969 39.2778 20.757 39.2856 20.2304 39.9772C20.0689 40.189 20.055 40.1943 20.0268 40.0535C19.9461 39.6495 19.1717 39.3336 18.715 39.5183ZM31.029 39.5281C30.6857 39.6205 30.4001 39.7925 30.1226 40.0738C29.9783 40.2201 29.863 40.3281 29.8663 40.3138C29.8754 40.2742 29.8201 39.7169 29.7999 39.6445C29.7839 39.587 29.7203 39.5811 29.1323 39.5811H28.4826V39.9072V40.2333H28.8048H29.1272L29.1489 40.3873C29.1608 40.472 29.181 41.3933 29.1937 42.4347L29.2167 44.3281H29.5925H29.9683V42.83V41.3319L30.0811 41.1062C30.5643 40.1392 31.9424 39.9028 32.3413 40.7182C32.513 41.0691 32.5385 41.3499 32.5398 42.9058L32.5412 44.3281H32.9238H33.3065L33.2929 42.5434C33.2771 40.4479 33.2498 40.2897 32.831 39.871C32.4854 39.5253 31.638 39.3641 31.029 39.5281ZM36.7271 39.5101C35.94 39.5992 35.3135 39.9498 34.9903 40.4817C34.4264 41.4101 34.5535 43.2467 35.2283 43.9222C35.9286 44.623 37.5134 44.6301 38.0864 43.9349L38.1942 43.8043V44.1683C38.1942 45.1681 37.9384 45.5039 37.1013 45.6029C36.5767 45.6649 35.9972 45.5575 35.5996 45.3244C35.5147 45.2748 35.4374 45.234 35.4277 45.234C35.4073 45.234 35.0409 45.885 35.0425 45.9184C35.043 45.9306 35.1484 45.9875 35.2765 46.0448C36.3656 46.5311 37.8588 46.3884 38.5129 45.7356C38.983 45.2663 38.9897 45.2163 38.9906 42.2044L38.9913 39.7728L38.7195 39.6921C38.1431 39.5209 37.3063 39.4445 36.7271 39.5101ZM47.5459 39.5286C46.4338 39.7698 45.8441 40.6705 45.8865 42.0633C45.9335 43.6102 46.7314 44.4368 48.1775 44.4368C49.5231 44.4368 50.3475 43.6739 50.4778 42.3082C50.6633 40.3647 49.3652 39.134 47.5459 39.5286ZM5.87054 39.9254V40.2695H6.1741H6.47766L6.49755 41.6012C6.52418 43.3873 6.59357 43.7219 7.01633 44.1083C7.6637 44.7001 9.08204 44.5077 9.65955 43.7499L9.80225 43.5626L9.81259 43.9452L9.82277 44.3281H10.4919H11.1611V44.0019V43.6758H10.84H10.5187L10.4957 43.5078C10.483 43.4152 10.4726 42.4939 10.4726 41.4604V39.5811H9.76607H9.05933V39.9254V40.2695H9.36743H9.67537V41.4693V42.6691L9.55758 42.8906C9.0103 43.92 7.66574 44.0543 7.3827 43.1079C7.31425 42.8787 7.30767 42.7398 7.29279 41.2207L7.27697 39.5811H6.57368H5.87054V39.9254ZM23.6267 39.9254V40.2695H24.4602H25.2937V41.9546V43.6396H24.4602H23.6267V43.9838V44.3281H25.656H27.6853V43.9838V43.6396H26.888H26.0909V41.6103V39.5811H24.8588H23.6267V39.9254ZM43.0641 40.2397C44.2069 40.5262 44.3409 42.875 43.2508 43.5137C42.8306 43.7601 41.9586 43.7751 41.3858 43.5458L41.2351 43.4857L41.2457 42.3568L41.2562 41.2281L41.3734 40.99C41.7061 40.3146 42.304 40.0492 43.0641 40.2397ZM48.6052 40.2397C49.4201 40.4173 49.8792 41.5631 49.5866 42.689C49.2263 44.0754 47.3155 44.1188 46.8125 42.7518C46.7004 42.4472 46.6904 41.448 46.7964 41.1393C47.0625 40.3633 47.7054 40.0436 48.6052 40.2397ZM37.5388 40.2327C37.7067 40.2519 37.9227 40.2939 38.019 40.3259L38.1942 40.3841V41.4826C38.1942 43.2004 37.98 43.6089 37.0164 43.7299C36.0457 43.8517 35.4764 43.2006 35.4764 41.969C35.4764 40.6286 36.138 40.0716 37.5388 40.2327Z" fill="#FBFBFB"/>
<path fill-rule="evenodd" clip-rule="evenodd" d="M33.2821 15.1297L33.1022 15.32L33.2926 15.14C33.3972 15.0412 33.4829 14.9556 33.4829 14.9498C33.4829 14.9227 33.4492 14.9528 33.2821 15.1297ZM29.5872 17.5942C29.0112 17.8832 28.4505 18.1216 27.8999 18.3114C27.6521 18.3969 27.4443 18.4705 27.438 18.4749C27.4317 18.4795 27.547 18.6684 27.6939 18.8947C29.6002 21.8307 30.7742 25.4471 30.4679 27.44C30.4203 27.7493 30.4723 27.9124 30.6185 27.9124C30.6357 27.9124 30.6902 27.9603 30.7397 28.019C30.789 28.0778 30.836 28.1191 30.844 28.1111C30.8522 28.103 30.9274 28.1591 31.0112 28.2357C31.095 28.3124 31.1642 28.3647 31.1648 28.352C31.1654 28.3394 31.1883 28.3586 31.2159 28.395C31.2433 28.4311 31.2795 28.4626 31.2962 28.465C31.313 28.4672 31.4327 28.5375 31.5622 28.6211C31.8388 28.7997 32.3277 29.0719 32.4953 29.141C32.5601 29.1676 32.6131 29.2065 32.6131 29.2273C32.6131 29.2482 32.6223 29.256 32.6334 29.2449C32.6447 29.2336 32.7874 29.2773 32.9506 29.3421C33.1137 29.4068 33.2799 29.4726 33.3197 29.4883C33.3596 29.5039 33.4166 29.5205 33.4465 29.5249C33.4764 29.5295 33.6314 29.5669 33.7908 29.6084C33.9503 29.6498 34.1448 29.6888 34.2233 29.6949L34.366 29.7062L34.444 29.4521C34.4869 29.3125 34.5608 28.9946 34.6083 28.7455C34.6559 28.4966 34.7062 28.2878 34.7203 28.2816C34.7344 28.2755 34.737 28.2164 34.7264 28.1503C34.7156 28.0842 34.7239 28.0198 34.7447 28.0068C34.766 27.9937 34.7737 27.929 34.7624 27.859C34.7513 27.7904 34.7535 27.7051 34.7674 27.6693C34.8005 27.5839 34.8039 26.229 34.771 26.1759C34.7571 26.1534 34.7491 26.0741 34.7532 25.9999C34.7574 25.9256 34.7485 25.8359 34.7334 25.8005C34.7186 25.7649 34.7159 25.6875 34.7278 25.6283C34.7406 25.5636 34.7341 25.5207 34.7112 25.5207C34.6904 25.5207 34.6778 25.4759 34.6836 25.4211C34.6894 25.3663 34.6825 25.3027 34.6683 25.2796C34.6542 25.2568 34.6448 25.1998 34.6475 25.1529C34.6547 25.0218 34.5095 24.3614 34.3516 23.8082C33.6386 21.3099 32.1361 19.0112 30.2756 17.5722L30.0218 17.376L29.5872 17.5942Z" fill="#A3A3A3"/>
<path fill-rule="evenodd" clip-rule="evenodd" d="M33.5897 14.8228L33.4649 14.9588L33.6007 14.8339C33.7272 14.7177 33.7532 14.687 33.7257 14.687C33.7196 14.687 33.6585 14.7481 33.5897 14.8228ZM31.5986 16.5084C31.4094 16.6324 30.9817 16.8826 30.6483 17.0643L30.0422 17.3945L30.3314 17.6186C32.4328 19.2474 34.1372 22.1604 34.6224 24.9523C34.6356 25.0275 34.6605 25.0804 34.6777 25.0696C34.6951 25.0589 34.8508 25.0832 35.0237 25.1235C35.9134 25.3309 36.9964 25.3816 37.7952 25.2533C38.0244 25.2165 38.2366 25.1838 38.267 25.1803C38.2972 25.177 38.338 25.1647 38.3575 25.1531C38.3911 25.133 38.6044 25.0763 38.683 25.0665C38.843 25.0466 38.925 24.959 38.9015 24.8334C38.8921 24.7836 38.8752 24.6694 38.8638 24.5798C38.8524 24.49 38.8265 24.3226 38.8066 24.2076C38.7866 24.0927 38.7816 23.98 38.7957 23.9575C38.8123 23.9305 38.8047 23.9263 38.774 23.9454C38.7385 23.9673 38.7314 23.9509 38.7452 23.8785C38.7552 23.8257 38.7476 23.7825 38.7281 23.7825C38.7086 23.7825 38.701 23.7507 38.7112 23.7119C38.7214 23.6729 38.7178 23.6362 38.7032 23.6303C38.6887 23.6243 38.631 23.4564 38.5753 23.2572C38.4839 22.9314 38.428 22.7747 38.1896 22.1773C37.2503 19.8226 34.8326 17.4491 32.3164 16.4114C31.9291 16.2516 32.0063 16.2411 31.5986 16.5084Z" fill="#74746A"/>
<path fill-rule="evenodd" clip-rule="evenodd" d="M28.5043 0.263787C28.5174 0.313598 28.5513 0.395048 28.5793 0.444858L28.6305 0.53555L28.6066 0.444858C28.5934 0.395048 28.5596 0.313598 28.5314 0.263787L28.4803 0.173096L28.5043 0.263787ZM28.9228 1.31466C28.9228 1.34457 28.9369 1.40159 28.954 1.44137C28.9736 1.48711 28.9852 1.49385 28.9852 1.45954C28.9852 1.42963 28.9711 1.37261 28.954 1.33267C28.9344 1.28709 28.9228 1.28035 28.9228 1.31466ZM38.1855 3.32836C38.05 3.40182 38.0583 3.43253 38.1945 3.36204C38.2542 3.33103 38.3032 3.29813 38.3032 3.28858C38.3032 3.26524 38.2993 3.26665 38.1855 3.32836ZM37.9248 6.99003C37.8914 7.12317 37.9179 7.131 37.9665 7.00241C37.9887 6.94351 37.9939 6.89511 37.9779 6.89511C37.9618 6.89511 37.938 6.93787 37.9248 6.99003ZM37.5826 7.98623C37.5298 8.13754 37.555 8.16276 37.6147 8.0185C37.64 7.95741 37.6523 7.89899 37.6419 7.88865C37.6316 7.87831 37.6048 7.92217 37.5826 7.98623ZM37.2201 8.9284C37.1979 8.99246 37.1858 9.0512 37.1936 9.05903C37.2013 9.0667 37.2259 9.02065 37.2483 8.95659C37.2707 8.89253 37.2826 8.83379 37.2748 8.82611C37.2671 8.81828 37.2425 8.86449 37.2201 8.9284ZM15.1022 10.3585C14.9617 10.4346 14.9777 10.4609 15.1204 10.3884C15.257 10.3189 15.2813 10.3008 15.2352 10.3029C15.2169 10.3037 15.1571 10.3287 15.1022 10.3585ZM18.4845 10.5687C18.5217 10.602 18.7351 10.7001 18.7351 10.6838C18.7351 10.663 18.5343 10.5551 18.4953 10.5551C18.481 10.5551 18.4762 10.5612 18.4845 10.5687ZM40.5582 11.4339C40.4965 11.6045 40.5049 11.6507 40.5704 11.5C40.6 11.4317 40.6194 11.3613 40.6135 11.3434C40.6075 11.3255 40.5826 11.3663 40.5582 11.4339ZM13.7558 11.5879C13.7232 11.6377 13.7105 11.6784 13.7278 11.6784C13.7448 11.6784 13.7776 11.6377 13.8003 11.5879C13.823 11.5381 13.8355 11.4972 13.8283 11.4972C13.8211 11.4972 13.7884 11.5381 13.7558 11.5879ZM40.1558 12.281C40.0955 12.4135 40.1218 12.4209 40.1956 12.2921C40.2292 12.2337 40.2436 12.1858 40.228 12.1858C40.2122 12.1858 40.1796 12.2287 40.1558 12.281ZM13.0627 12.8109C13.0068 12.8955 12.9842 12.9458 13.0126 12.9224C13.0669 12.8775 13.2057 12.6568 13.1795 12.6568C13.1711 12.6568 13.1184 12.7262 13.0627 12.8109ZM39.8445 12.8231C39.8109 12.8747 39.7914 12.9251 39.8015 12.9351C39.8116 12.9453 39.8459 12.903 39.8777 12.8415C39.9482 12.7052 39.9288 12.6944 39.8445 12.8231ZM39.173 13.7257C39.1264 13.7755 39.0961 13.8242 39.1058 13.8341C39.1157 13.8438 39.1597 13.8031 39.2037 13.7435C39.3013 13.6116 39.2877 13.6038 39.173 13.7257ZM9.9566 14.7794C9.82111 14.8528 9.82942 14.8835 9.96569 14.813C10.0255 14.782 10.0744 14.749 10.0744 14.7396C10.0744 14.7162 10.0705 14.7176 9.9566 14.7794ZM40.4081 16.7038C40.4758 16.787 40.5386 16.8476 40.5477 16.8383C40.5569 16.8293 40.5016 16.7611 40.4249 16.687L40.2853 16.5523L40.4081 16.7038ZM40.698 17.064C40.7461 17.1261 40.7928 17.1704 40.8016 17.1626C40.8105 17.1546 40.7712 17.1037 40.7142 17.0495L40.6105 16.951L40.698 17.064ZM41.1733 17.7639C41.2184 17.8422 41.2616 17.9002 41.2691 17.8926C41.2848 17.877 41.1325 17.6214 41.1075 17.6214C41.0986 17.6214 41.1282 17.6856 41.1733 17.7639ZM41.0572 18.1831C40.9692 18.2728 40.9054 18.3461 40.9153 18.3461C40.9253 18.3461 41.0055 18.2728 41.0935 18.1831C41.1814 18.0933 41.2453 18.02 41.2355 18.02C41.2254 18.02 41.1452 18.0933 41.0572 18.1831ZM18.4093 18.3279C18.4094 18.348 18.4419 18.4131 18.4815 18.473C18.5753 18.6146 18.5753 18.5643 18.4816 18.4103C18.4419 18.3452 18.4093 18.308 18.4093 18.3279ZM40.4664 18.6915C40.4105 18.7407 40.3791 18.7809 40.3967 18.7809C40.4142 18.7809 40.4668 18.7402 40.5137 18.6904C40.6219 18.5751 40.5981 18.5757 40.4664 18.6915ZM40.0137 19.014C39.8455 19.1329 39.8217 19.167 39.9639 19.0856C40.0301 19.0475 40.1014 18.9961 40.1222 18.9712C40.1758 18.9072 40.1508 18.917 40.0137 19.014ZM18.7739 19.0165C18.7739 19.0364 18.7973 19.0936 18.8256 19.1434C18.8541 19.1932 18.8775 19.2176 18.8775 19.1977C18.8775 19.1777 18.8541 19.1207 18.8256 19.0709C18.7973 19.0211 18.7739 18.9966 18.7739 19.0165ZM39.2725 19.454C39.137 19.5275 39.1453 19.558 39.2816 19.4875C39.3414 19.4567 39.3903 19.4236 39.3903 19.4142C39.3903 19.3909 39.3864 19.3921 39.2725 19.454ZM19.137 19.7413C19.137 19.7612 19.1763 19.8509 19.2243 19.9405C19.2723 20.0303 19.3117 20.0873 19.3117 20.0674C19.3117 20.0475 19.2723 19.9577 19.2243 19.8681C19.1763 19.7784 19.137 19.7214 19.137 19.7413ZM37.125 20.2312C37.1125 20.2514 37.1585 20.3452 37.2272 20.4395C37.4076 20.6869 37.6317 21.0606 37.8734 21.5169C37.9895 21.7362 38.0849 21.8919 38.0852 21.863C38.0855 21.8341 38.0042 21.6671 37.9046 21.4918C37.805 21.3165 37.7232 21.1609 37.7231 21.1457C37.7229 21.1306 37.5942 20.9226 37.4369 20.6834C37.245 20.3918 37.1645 20.2398 37.1925 20.222C37.2236 20.2022 37.2231 20.1952 37.191 20.1947C37.1673 20.1944 37.1376 20.2109 37.125 20.2312ZM19.8754 21.0548C19.9069 21.1197 19.9406 21.1726 19.9499 21.1726C19.986 21.1726 19.9628 21.115 19.8917 21.0277L19.8179 20.937L19.8754 21.0548ZM38.1612 22.0906C38.1585 22.1179 38.328 22.5338 38.4146 22.7126C38.4428 22.7711 38.4456 22.764 38.429 22.6765C38.4077 22.5646 38.1663 22.0366 38.1612 22.0906ZM38.5233 23.0389C38.5203 23.0765 38.669 23.6072 38.69 23.6338C38.7448 23.7034 38.7194 23.5616 38.6317 23.308C38.5736 23.1399 38.5249 23.0189 38.5233 23.0389ZM21.7066 23.2856C21.7066 23.2919 21.7596 23.3353 21.8242 23.3819L21.942 23.467L21.8542 23.3707C21.7791 23.2884 21.7066 23.2466 21.7066 23.2856ZM38.7417 23.8753C38.7437 23.9136 38.7592 23.9856 38.7764 24.0354C38.802 24.1101 38.8053 24.1017 38.7946 23.9877C38.7815 23.847 38.7351 23.7486 38.7417 23.8753ZM23.5909 24.7039C23.5909 24.7138 23.6398 24.7473 23.6996 24.7782C23.7593 24.8092 23.8084 24.8263 23.8084 24.8163C23.8084 24.8064 23.7593 24.7729 23.6996 24.742C23.6398 24.7112 23.5909 24.6939 23.5909 24.7039ZM34.6438 25.1837C34.6435 25.2274 34.6596 25.2732 34.6795 25.2855C34.7257 25.314 34.7257 25.2301 34.6795 25.1587C34.651 25.1145 34.6442 25.1192 34.6438 25.1837ZM36.1747 25.3297C36.2299 25.338 36.3113 25.3379 36.3559 25.3292C36.4006 25.3206 36.3555 25.3137 36.2559 25.314C36.1561 25.3144 36.1197 25.3214 36.1747 25.3297ZM37.2071 25.3292C37.2519 25.3379 37.3252 25.3379 37.3702 25.3292C37.415 25.3206 37.3783 25.3136 37.2886 25.3136C37.1988 25.3136 37.1622 25.3206 37.2071 25.3292ZM34.6801 25.4215C34.6798 25.4763 34.6958 25.5211 34.7157 25.5211C34.7616 25.5211 34.7616 25.447 34.7157 25.3761C34.6884 25.3338 34.6804 25.3438 34.6801 25.4215ZM34.7183 25.6911C34.7169 25.7547 34.732 25.8168 34.752 25.8291C34.7954 25.856 34.7954 25.749 34.752 25.648C34.7257 25.5869 34.7204 25.5936 34.7183 25.6911ZM34.752 26.0223C34.752 26.1054 34.7672 26.1733 34.786 26.1733C34.8048 26.1733 34.8106 26.1127 34.7988 26.0375C34.7699 25.8493 34.752 25.8436 34.752 26.0223ZM25.7506 26.2313C25.7155 26.3425 25.6935 26.4399 25.7014 26.4479C25.7094 26.4559 25.7445 26.3715 25.7796 26.2603C25.8147 26.1492 25.8368 26.0518 25.8288 26.0438C25.8208 26.0358 25.7857 26.1202 25.7506 26.2313ZM34.8029 26.9343C34.8029 27.2632 34.8084 27.3978 34.8151 27.2333C34.8219 27.0688 34.8219 26.7999 34.8151 26.6354C34.8084 26.4709 34.8029 26.6055 34.8029 26.9343ZM25.3545 27.4659C25.3412 27.4791 25.3313 27.524 25.3326 27.5655C25.3346 27.6349 25.3377 27.634 25.3695 27.5542C25.4051 27.4654 25.3977 27.4225 25.3545 27.4659ZM34.752 27.792C34.752 27.9472 34.7688 27.9421 34.8002 27.7768C34.8131 27.7092 34.8076 27.659 34.7872 27.659C34.7678 27.659 34.752 27.7189 34.752 27.792ZM30.5847 27.9241C30.5847 27.9303 30.6377 27.9736 30.7025 28.0204L30.8203 28.1054L30.7324 28.0091C30.6574 27.9267 30.5847 27.8849 30.5847 27.9241ZM34.7421 28.0071C34.7276 28.0216 34.7168 28.0757 34.718 28.1272L34.7204 28.2207L34.7553 28.1333C34.793 28.039 34.7852 27.9642 34.7421 28.0071ZM30.3291 28.1534C30.309 28.2058 30.2995 28.2557 30.3076 28.264C30.3159 28.2721 30.34 28.229 30.3612 28.1683C30.4083 28.0331 30.3798 28.0198 30.3291 28.1534ZM30.8391 28.1194C30.8399 28.1479 31.1282 28.3658 31.1282 28.3379C31.1282 28.3299 31.0631 28.271 30.9833 28.2069C30.9036 28.1429 30.8386 28.1036 30.8391 28.1194ZM25.0442 28.4601C24.9989 28.6009 24.9682 28.7224 24.9761 28.7303C24.9839 28.7381 25.0274 28.6294 25.0729 28.4887C25.1181 28.3481 25.1487 28.2265 25.1408 28.2185C25.133 28.2107 25.0895 28.3194 25.0442 28.4601ZM34.6146 28.7146C34.5128 29.2541 34.5296 29.3183 34.6397 28.8098C34.7569 28.2685 34.7558 28.2751 34.7255 28.2752C34.7102 28.2752 34.6602 28.4731 34.6146 28.7146ZM31.545 28.6377C31.5693 28.677 31.7805 28.7946 31.7805 28.7688C31.7805 28.7603 31.7225 28.7191 31.6516 28.6773C31.5806 28.6353 31.5327 28.6176 31.545 28.6377ZM31.8712 28.8388C31.9539 28.9052 32.3975 29.1342 32.3422 29.0819C32.3223 29.0631 32.1918 28.9875 32.0522 28.914C31.9128 28.8405 31.8312 28.8067 31.8712 28.8388ZM32.469 29.1629C32.5188 29.1914 32.5759 29.2147 32.5959 29.2147C32.6158 29.2147 32.5914 29.1914 32.5416 29.1629C32.4916 29.1344 32.4346 29.1112 32.4147 29.1112C32.3948 29.1112 32.4192 29.1344 32.469 29.1629ZM34.4256 29.5102C34.4254 29.5385 34.4013 29.6076 34.372 29.664C34.3358 29.7334 34.3324 29.7619 34.3615 29.7522C34.4087 29.7363 34.4784 29.5114 34.4459 29.4791C34.435 29.468 34.4257 29.482 34.4256 29.5102ZM29.4815 29.7175C29.3047 29.9213 29.3044 29.9221 29.4573 29.7789C29.586 29.6583 29.7102 29.5015 29.6709 29.5092C29.6653 29.5103 29.5801 29.6041 29.4815 29.7175ZM24.6395 29.7127C24.6191 29.7659 24.6073 29.8339 24.6131 29.8637C24.6189 29.8936 24.6418 29.85 24.6639 29.7669C24.7092 29.5969 24.6952 29.5659 24.6395 29.7127ZM24.3373 30.6885C24.3024 30.7997 24.2801 30.8972 24.2881 30.9051C24.2961 30.913 24.3314 30.8287 24.3663 30.7175C24.4014 30.6064 24.4235 30.509 24.4156 30.501C24.4076 30.493 24.3724 30.5775 24.3373 30.6885ZM24.2527 31.2001C24.3079 31.2084 24.3893 31.2082 24.434 31.1996C24.4784 31.191 24.4333 31.1843 24.3337 31.1844C24.2341 31.1847 24.1976 31.1918 24.2527 31.2001ZM25.521 31.2001C25.5761 31.2084 25.6576 31.2082 25.7022 31.1996C25.7467 31.191 25.7018 31.1843 25.602 31.1844C25.5024 31.1847 25.4659 31.1918 25.521 31.2001Z" fill="#A59853"/>
</svg>
