<svg width="116" height="98" viewBox="0 0 116 98" fill="none" xmlns="http://www.w3.org/2000/svg">
<path d="M123.241 108L123.313 25.11C127.585 22.7475 130.481 18.4275 130.481 13.5C130.481 6.075 123.965 0 116 0C108.035 0 101.518 6.075 101.518 13.5C101.518 18.9 104.922 23.49 109.773 25.65L79.8688 70.065C77.4794 68.445 74.5831 67.5 71.4696 67.5C65.3874 67.5 60.2465 70.9425 58.0743 75.87L42.5793 65.5425C43.2309 64.0575 43.593 62.4375 43.593 60.75C43.593 53.2575 37.1487 47.25 29.1116 47.25C25.2709 47.25 21.5875 48.6723 18.8717 51.2041C16.1559 53.7358 14.6302 57.1696 14.6302 60.75C14.6431 63.0814 15.3035 65.3699 16.5471 67.3927C17.7906 69.4154 19.5748 71.1035 21.7261 72.2925L0.148804 108H123.241ZM116 6.75C119.982 6.75 123.241 9.7875 123.241 13.5C123.241 17.2125 119.982 20.25 116 20.25C112.017 20.25 108.759 17.2125 108.759 13.5C108.759 9.7875 112.017 6.75 116 6.75ZM29.1116 54C33.0939 54 36.3523 57.0375 36.3523 60.75C36.3523 64.4625 33.0939 67.5 29.1116 67.5C25.1292 67.5 21.8709 64.4625 21.8709 60.75C21.8709 57.0375 25.1292 54 29.1116 54ZM71.4696 74.25C75.452 74.25 78.7103 77.2875 78.7103 81C78.7103 84.7125 75.452 87.75 71.4696 87.75C67.4872 87.75 64.2289 84.7125 64.2289 81C64.2289 77.2875 67.4872 74.25 71.4696 74.25Z" fill="#1AD37A"/>
</svg>
