<svg width="8" height="8" viewBox="0 0 8 8" fill="none" xmlns="http://www.w3.org/2000/svg">
<circle opacity="0.15" cx="4" cy="4" r="4" fill="#EB3912"/>
<path d="M3.83532 5.91403C3.85367 5.94068 3.87822 5.96247 3.90686 5.97752C3.9355 5.99258 3.96737 6.00044 3.99973 6.00044C4.03209 6.00044 4.06396 5.99258 4.0926 5.97752C4.12124 5.96247 4.14579 5.94068 4.16414 5.91403L5.96428 3.31382C5.98512 3.28383 5.99734 3.24871 5.99961 3.21226C6.00189 3.17581 5.99413 3.13944 5.97718 3.10709C5.96023 3.07474 5.93475 3.04765 5.90349 3.02877C5.87223 3.00989 5.83639 2.99994 5.79987 3H2.19959C2.16315 3.00015 2.12745 3.01023 2.09632 3.02916C2.06518 3.04808 2.0398 3.07513 2.02289 3.10741C2.00598 3.13968 1.99819 3.17595 2.00035 3.21232C2.00252 3.24869 2.01456 3.28378 2.03518 3.31382L3.83532 5.91403Z" fill="#EB3912"/>
</svg>
