<svg width="250" height="38" viewBox="0 0 250 38" fill="none" xmlns="http://www.w3.org/2000/svg"><path d="M70.15 33.15c1.383 0 2.575-.158 3.575-.475 1-.317 1.817-.758 2.45-1.325A5.249 5.249 0 0077.6 29.3c.3-.8.45-1.675.45-2.625 0-1.85-.658-3.308-1.975-4.375-1.317-1.083-3.292-1.625-5.925-1.625H62.4V33.15h7.75zM62.4 5v12.225h6.4c1.367 0 2.55-.15 3.55-.45 1.017-.3 1.85-.717 2.5-1.25a4.862 4.862 0 001.475-1.925c.317-.767.475-1.6.475-2.5 0-2.117-.633-3.658-1.9-4.625C73.633 5.492 71.667 5 69 5h-6.6zM69 1.175c2.2 0 4.092.217 5.675.65 1.6.433 2.908 1.05 3.925 1.85a7.138 7.138 0 012.275 2.95c.483 1.15.725 2.45.725 3.9 0 .883-.142 1.733-.425 2.55a7.43 7.43 0 01-1.225 2.25c-.55.7-1.25 1.333-2.1 1.9-.833.55-1.817 1-2.95 1.35 2.633.5 4.608 1.442 5.925 2.825 1.333 1.367 2 3.167 2 5.4 0 1.517-.283 2.9-.85 4.15a8.71 8.71 0 01-2.45 3.225c-1.067.9-2.383 1.6-3.95 2.1-1.567.483-3.35.725-5.35.725h-12.65V1.175H69zM103.184 25.6c-2.05.067-3.8.233-5.25.5-1.434.25-2.609.583-3.525 1-.9.417-1.559.908-1.975 1.475-.4.567-.6 1.2-.6 1.9 0 .667.108 1.242.325 1.725.216.483.508.883.875 1.2.383.3.825.525 1.325.675.516.133 1.066.2 1.65.2.783 0 1.5-.075 2.15-.225.65-.167 1.258-.4 1.825-.7a9.674 9.674 0 001.65-1.075c.533-.417 1.05-.892 1.55-1.425V25.6zM88.809 15.25c1.4-1.35 2.908-2.358 4.525-3.025 1.616-.667 3.408-1 5.375-1 1.416 0 2.675.233 3.775.7 1.1.467 2.025 1.117 2.775 1.95s1.316 1.842 1.7 3.025c.383 1.183.575 2.483.575 3.9V37h-1.975c-.434 0-.767-.067-1-.2-.234-.15-.417-.433-.55-.85l-.5-2.4a27.216 27.216 0 01-1.95 1.65c-.634.467-1.3.867-2 1.2-.7.317-1.45.558-2.25.725-.784.183-1.659.275-2.625.275a9.386 9.386 0 01-2.775-.4 6.705 6.705 0 01-2.275-1.25c-.634-.55-1.142-1.242-1.525-2.075-.367-.85-.55-1.85-.55-3 0-1 .275-1.958.825-2.875.55-.933 1.441-1.758 2.675-2.475 1.233-.717 2.841-1.3 4.825-1.75 1.983-.467 4.416-.733 7.3-.8V20.8c0-1.967-.425-3.45-1.275-4.45-.85-1.017-2.092-1.525-3.725-1.525-1.1 0-2.025.142-2.775.425a9.852 9.852 0 00-1.925.925c-.534.333-1 .642-1.4.925-.384.267-.767.4-1.15.4-.3 0-.559-.075-.775-.225a2.363 2.363 0 01-.55-.6l-.8-1.425zM119.912.175V37h-4.45V.175h4.45zM141.854 25.6c-2.05.067-3.8.233-5.25.5-1.434.25-2.609.583-3.525 1-.9.417-1.559.908-1.975 1.475-.4.567-.6 1.2-.6 1.9 0 .667.108 1.242.325 1.725.216.483.508.883.875 1.2.383.3.825.525 1.325.675.516.133 1.066.2 1.65.2.783 0 1.5-.075 2.15-.225.65-.167 1.258-.4 1.825-.7a9.686 9.686 0 001.65-1.075c.533-.417 1.05-.892 1.55-1.425V25.6zm-14.375-10.35c1.4-1.35 2.908-2.358 4.525-3.025 1.616-.667 3.408-1 5.375-1 1.416 0 2.675.233 3.775.7 1.1.467 2.025 1.117 2.775 1.95s1.316 1.842 1.7 3.025c.383 1.183.575 2.483.575 3.9V37h-1.975c-.434 0-.767-.067-1-.2-.234-.15-.417-.433-.55-.85l-.5-2.4a27.216 27.216 0 01-1.95 1.65c-.634.467-1.3.867-2 1.2-.7.317-1.45.558-2.25.725-.784.183-1.659.275-2.625.275a9.38 9.38 0 01-2.775-.4 6.702 6.702 0 01-2.275-1.25c-.634-.55-1.142-1.242-1.525-2.075-.367-.85-.55-1.85-.55-3 0-1 .275-1.958.825-2.875.55-.933 1.441-1.758 2.675-2.475 1.233-.717 2.841-1.3 4.825-1.75 1.983-.467 4.416-.733 7.3-.8V20.8c0-1.967-.425-3.45-1.275-4.45-.85-1.017-2.092-1.525-3.725-1.525-1.1 0-2.025.142-2.775.425a9.832 9.832 0 00-1.925.925c-.534.333-1 .642-1.4.925-.384.267-.767.4-1.15.4-.3 0-.559-.075-.775-.225a2.357 2.357 0 01-.55-.6l-.8-1.425zM158.182 15.35a14.996 14.996 0 011.75-1.675c.617-.5 1.267-.925 1.95-1.275a9.462 9.462 0 012.2-.825c.783-.2 1.625-.3 2.525-.3 1.383 0 2.6.233 3.65.7 1.067.45 1.95 1.1 2.65 1.95.717.833 1.258 1.842 1.625 3.025.367 1.183.55 2.492.55 3.925V37h-4.475V20.875c0-1.917-.442-3.4-1.325-4.45-.867-1.067-2.192-1.6-3.975-1.6a7.55 7.55 0 00-3.7.95c-1.133.633-2.183 1.492-3.15 2.575V37h-4.475V11.675h2.675c.633 0 1.025.308 1.175.925l.35 2.75zM200.488 16.175a1.988 1.988 0 01-.4.425c-.133.1-.317.15-.55.15-.25 0-.525-.1-.825-.3-.3-.217-.675-.45-1.125-.7-.433-.25-.975-.475-1.625-.675-.633-.217-1.417-.325-2.35-.325-1.25 0-2.35.225-3.3.675a6.342 6.342 0 00-2.4 1.9c-.633.833-1.117 1.842-1.45 3.025-.317 1.183-.475 2.508-.475 3.975 0 1.533.175 2.9.525 4.1.35 1.183.842 2.183 1.475 3 .65.8 1.425 1.417 2.325 1.85.917.417 1.942.625 3.075.625 1.083 0 1.975-.125 2.675-.375.7-.267 1.275-.558 1.725-.875.467-.317.85-.6 1.15-.85.317-.267.625-.4.925-.4.367 0 .65.142.85.425l1.25 1.625a8.868 8.868 0 01-1.875 1.75 11.9 11.9 0 01-2.275 1.225c-.8.317-1.642.55-2.525.7-.883.15-1.783.225-2.7.225-1.583 0-3.058-.292-4.425-.875a10.162 10.162 0 01-3.525-2.525c-1-1.117-1.783-2.483-2.35-4.1-.567-1.617-.85-3.458-.85-5.525 0-1.883.258-3.625.775-5.225.533-1.6 1.3-2.975 2.3-4.125a10.527 10.527 0 013.725-2.725c1.483-.65 3.183-.975 5.1-.975 1.783 0 3.35.292 4.7.875a11.079 11.079 0 013.625 2.425l-1.175 1.6zM224.25 21.575c0-1.033-.15-1.975-.45-2.825-.283-.867-.708-1.608-1.275-2.225a5.382 5.382 0 00-2.025-1.45c-.8-.35-1.708-.525-2.725-.525-2.133 0-3.825.625-5.075 1.875-1.233 1.233-2 2.95-2.3 5.15h13.85zm3.6 11.875a8.687 8.687 0 01-1.975 1.75 12.56 12.56 0 01-2.475 1.2c-.866.317-1.766.55-2.7.7-.933.167-1.858.25-2.775.25-1.75 0-3.366-.292-4.85-.875a10.995 10.995 0 01-3.825-2.6c-1.066-1.15-1.9-2.567-2.5-4.25-.6-1.683-.9-3.617-.9-5.8 0-1.767.267-3.417.8-4.95.55-1.533 1.334-2.858 2.35-3.975 1.017-1.133 2.259-2.017 3.725-2.65 1.467-.65 3.117-.975 4.95-.975 1.517 0 2.917.258 4.2.775 1.3.5 2.417 1.233 3.35 2.2.95.95 1.692 2.133 2.225 3.55.534 1.4.8 3 .8 4.8 0 .7-.075 1.167-.225 1.4-.15.233-.433.35-.85.35H210.25c.05 1.6.267 2.992.65 4.175.4 1.183.95 2.175 1.65 2.975a6.804 6.804 0 002.5 1.775c.967.383 2.05.575 3.25.575 1.117 0 2.075-.125 2.875-.375.817-.267 1.517-.55 2.1-.85.584-.3 1.067-.575 1.45-.825.4-.267.742-.4 1.025-.4.367 0 .65.142.85.425l1.25 1.625zM238.941 16.75c.8-1.733 1.784-3.083 2.95-4.05 1.167-.983 2.592-1.475 4.275-1.475.534 0 1.042.058 1.525.175.5.117.942.3 1.325.55l-.325 3.325c-.1.417-.35.625-.75.625-.233 0-.575-.05-1.025-.15-.45-.1-.958-.15-1.525-.15-.8 0-1.516.117-2.15.35a5.07 5.07 0 00-1.675 1.05c-.483.45-.925 1.017-1.325 1.7a14.886 14.886 0 00-1.05 2.3v16h-4.475V11.675h2.55c.484 0 .817.092 1 .275.184.183.309.5.375.95l.3 3.85z" fill="#000"/><path fill-rule="evenodd" clip-rule="evenodd" d="M35.5 5.5c0 2.485-5.988 4.5-13.375 4.5S8.75 7.985 8.75 5.5 14.738 1 22.125 1 35.5 3.015 35.5 5.5zM13.017 22.663C5.34 23.84 0 26.459 0 29.5 0 33.642 9.906 37 22.125 37c12.22 0 22.125-3.358 22.125-7.5 0-3.041-5.34-5.66-13.017-6.837-2.7.536-5.812.837-9.108.837-3.296 0-6.408-.301-9.108-.837zM4.5 16.25c0-2.628 4.964-4.862 11.875-5.674a37.8 37.8 0 005.75.424 37.8 37.8 0 005.75-.424c6.91.812 11.875 3.046 11.875 5.674 0 3.314-7.891 6-17.625 6S4.5 19.564 4.5 16.25z" fill="#000"/></svg>