<svg xmlns="http://www.w3.org/2000/svg" viewBox="0 0 762.41 117.92"><defs><style>.cls-1{fill:#fff;}</style></defs><g id="Layer_2" data-name="Layer 2"><path class="cls-1" d="M169.11,36.3q15.62,0,26.66,11.83t11.06,29q0,17.16-11.06,29t-26.66,11.82q-16.23,0-25.05-11.28v9.12H124.12V7.55h19.94v40Q152.88,36.31,169.11,36.3Zm-19,56.5a20.57,20.57,0,0,0,15.31,6.11,20.82,20.82,0,0,0,15.38-6.11q6.1-6.1,6.1-15.69t-6.1-15.69a20.85,20.85,0,0,0-15.38-6.1,20.6,20.6,0,0,0-15.31,6.1q-6,6.12-6,15.69T150.09,92.8Z"/><path class="cls-1" d="M212.39,115.76V2.91h19.94V115.76Z"/><path class="cls-1" d="M307.92,106.1a40.85,40.85,0,0,1-69.87-29,41,41,0,0,1,69.87-29,39.25,39.25,0,0,1,11.91,29A39.29,39.29,0,0,1,307.92,106.1Zm-44-13.68a20.1,20.1,0,0,0,14.92,6,20.36,20.36,0,0,0,15-6,20.74,20.74,0,0,0,6-15.31,20.73,20.73,0,0,0-6-15.3,20.36,20.36,0,0,0-15-6,20.1,20.1,0,0,0-14.92,6A20.91,20.91,0,0,0,258,77.11,20.91,20.91,0,0,0,263.94,92.42Z"/><path class="cls-1" d="M362.18,117.92q-17.46,0-29.14-11.74T321.37,77.11q0-17.31,11.67-29.06T362.18,36.3a40.1,40.1,0,0,1,20.56,5.41,35.93,35.93,0,0,1,14.07,14.53L379.65,66.29a17.46,17.46,0,0,0-7-7.57A20.43,20.43,0,0,0,362,55.94a20,20,0,0,0-14.84,6q-5.88,6-5.88,15.22a20.56,20.56,0,0,0,5.88,15.08,20,20,0,0,0,14.84,6,21.11,21.11,0,0,0,10.74-2.71,17,17,0,0,0,7-7.49l17.31,9.89a38.69,38.69,0,0,1-14.38,14.61A39.67,39.67,0,0,1,362.18,117.92Z"/><path class="cls-1" d="M470.4,115.76H447.21L419.07,80.64v35.12H399.13V7.55h19.94V72.61l26.59-34.14h23.81L438.4,76.65Z"/><path class="cls-1" d="M514.3,57.64H496.83V89.79q0,4,2,5.87a9.19,9.19,0,0,0,5.88,2.09,84.33,84.33,0,0,0,9.58-.08v18.09q-20.56,2.33-29-3.86t-8.42-22.11V57.64H463.44V38.47h13.45V22.85l19.94-6V38.47H514.3Z"/><path class="cls-1" d="M576.29,38.47h19.94v77.29H576.29v-9.12q-9,11.28-25.2,11.28-15.45,0-26.51-11.82t-11.05-29q0-17.16,11.05-29T551.09,36.3q16.23,0,25.2,11.29ZM539.5,92.8a20.56,20.56,0,0,0,15.3,6.11,20.81,20.81,0,0,0,15.38-6.11q6.11-6.1,6.11-15.69t-6.11-15.69a20.84,20.84,0,0,0-15.38-6.1,20.59,20.59,0,0,0-15.3,6.1q-6,6.12-6,15.69T539.5,92.8Z"/><path class="cls-1" d="M648.79,36.3q12.68,0,21,8.5T678,68.3v47.46H658.07v-45q0-7.74-4.18-11.83t-11.13-4.1q-7.72,0-12.37,4.8T625.76,74v41.74h-20V38.47h20v8.65Q633,36.3,648.79,36.3Z"/><path class="cls-1" d="M703.36,85.31q4,14.53,21.8,14.53,11.43,0,17.31-7.73l16.08,9.27q-11.44,16.55-33.7,16.54-19.17,0-30.77-11.59T682.49,77.11q0-17.46,11.44-29.14T723.3,36.3q17,0,28.06,11.75t11,29.06a47.27,47.27,0,0,1-.77,8.2Zm-.31-15.46h39.42q-1.71-7.89-7-11.75a20.17,20.17,0,0,0-12.14-3.87q-8,0-13.29,4.1A19.53,19.53,0,0,0,703.05,69.85Z"/><rect class="cls-1" width="38.46" height="38.46"/><rect class="cls-1" x="38.46" y="38.46" width="38.46" height="38.46"/><rect class="cls-1" y="76.92" width="38.46" height="38.46"/></g></svg>