<svg width="201" height="59" viewBox="0 0 201 59" fill="none" xmlns="http://www.w3.org/2000/svg"><path d="M151.599 52.106l5.341-1.677V6.211l-5.341 1.676v44.22zm-61.608-26.83c3.353 0 6.458 1.491 8.446 3.976l2.174-5.03c-2.857-2.734-6.646-4.038-10.62-4.038-9.192 0-15.527 7.267-15.465 15.278.062 8.695 6.894 15.775 15.465 15.775 4.347 0 7.638-1.304 10.123-3.105v-6.149c-2.609 2.609-6.397 4.161-9.689 4.161-4.968 0-10.558-4.037-10.558-10.682 0-6.148 4.844-10.185 10.124-10.185zm35.524-5.092c-9.192 0-14.533 7.267-14.533 15.278 0 8.695 6.894 15.775 15.464 15.775 4.348 0 7.639-1.304 10.123-3.105v-6.149c-2.608 2.609-6.396 4.161-9.688 4.161-4.41 0-9.254-2.733-10.247-8.508h23.413v-2.05c0-8.57-5.651-15.402-14.532-15.402zm57.696 0c-8.571 0-15.527 6.956-15.527 15.527 0 8.57 6.956 15.526 15.527 15.526 8.57 0 15.526-6.956 15.526-15.526 0-8.571-6.956-15.527-15.526-15.527zm-57.634 5.093c4.161 0 8.57 2.608 8.943 7.639h-17.886c.372-5.03 4.782-7.64 8.943-7.64zm57.634 20.867a10.417 10.417 0 01-10.434-10.433 10.417 10.417 0 0110.434-10.434 10.416 10.416 0 0110.433 10.434 10.416 10.416 0 01-10.433 10.433z" fill="#2E3338"/><path d="M35.71 40.368c9.433 0 17.08-7.646 17.08-17.079 0-9.432-7.647-17.078-17.08-17.078-9.432 0-17.078 7.646-17.078 17.078 0 9.433 7.646 17.08 17.079 17.08zm0 6.21c-12.861 0-23.289-10.427-23.289-23.289C12.421 10.428 22.85 0 35.711 0 48.573 0 59 10.428 59 23.29c0 12.861-10.427 23.289-23.29 23.289z" fill="#35D07F"/><path d="M23.29 52.79c9.432 0 17.078-7.647 17.078-17.08 0-9.432-7.646-17.078-17.079-17.078-9.432 0-17.078 7.646-17.078 17.079 0 9.432 7.646 17.078 17.078 17.078zm0 6.21C10.428 59 0 48.573 0 35.71 0 22.85 10.428 12.422 23.29 12.422c12.861 0 23.289 10.428 23.289 23.29C46.579 48.573 36.15 59 23.289 59z" fill="#FBCC5C"/><path d="M36.474 46.566a17.028 17.028 0 003.386-6.706 17.028 17.028 0 006.707-3.385 23.188 23.188 0 01-1.81 8.282 23.185 23.185 0 01-8.282 1.81zM19.14 19.14a17.029 17.029 0 00-6.706 3.386c.09-2.848.703-5.656 1.81-8.282a23.186 23.186 0 018.282-1.81 17.028 17.028 0 00-3.386 6.706z" fill="#5EA33B"/></svg>