<svg width="180" height="45" viewBox="0 0 180 45" fill="none" xmlns="http://www.w3.org/2000/svg">
<path d="M178.347 19.1759H178.152V19.8111H177.88V18.2012H178.489C178.554 18.1981 178.62 18.2085 178.681 18.232C178.743 18.2555 178.798 18.2915 178.845 18.3378C178.892 18.384 178.929 18.4396 178.954 18.5009C178.979 18.5622 178.991 18.6279 178.989 18.6941C178.991 18.8008 178.957 18.9051 178.892 18.9891C178.826 19.0731 178.734 19.1314 178.63 19.154L178.989 19.8221H178.684L178.347 19.1759ZM178.445 18.935C178.479 18.9382 178.514 18.9343 178.546 18.9234C178.578 18.9125 178.608 18.8948 178.634 18.8716C178.659 18.8484 178.679 18.8202 178.693 18.7887C178.707 18.7571 178.714 18.7231 178.714 18.6886C178.714 18.6541 178.707 18.62 178.693 18.5885C178.679 18.557 178.659 18.5287 178.634 18.5055C178.608 18.4823 178.578 18.4647 178.546 18.4538C178.514 18.4429 178.479 18.4389 178.445 18.4422H178.152V18.935H178.445Z" fill="#141414"/>
<path d="M178.391 20.6218C178.072 20.6218 177.761 20.5267 177.497 20.3486C177.232 20.1705 177.026 19.9174 176.904 19.6212C176.782 19.3251 176.75 18.9992 176.812 18.6848C176.874 18.3703 177.028 18.0815 177.253 17.8549C177.478 17.6282 177.765 17.4738 178.077 17.4113C178.389 17.3487 178.713 17.3808 179.007 17.5035C179.301 17.6262 179.552 17.8339 179.729 18.1005C179.906 18.367 180 18.6804 180 19.001C180 19.2139 179.959 19.4249 179.878 19.6217C179.798 19.8186 179.679 19.9974 179.53 20.148C179.38 20.2986 179.203 20.418 179.007 20.4993C178.812 20.5806 178.602 20.6222 178.391 20.6218V20.6218ZM178.391 17.5992C178.113 17.5992 177.842 17.682 177.611 17.8373C177.381 17.9925 177.201 18.2131 177.095 18.4713C176.989 18.7294 176.961 19.0135 177.015 19.2875C177.069 19.5616 177.203 19.8133 177.399 20.0109C177.595 20.2085 177.845 20.343 178.117 20.3975C178.389 20.452 178.671 20.4241 178.928 20.3171C179.184 20.2102 179.403 20.0291 179.557 19.7968C179.711 19.5645 179.793 19.2913 179.793 19.0119C179.793 18.6375 179.644 18.2787 179.382 18.0139C179.119 17.7491 178.762 17.6 178.391 17.5992V17.5992Z" fill="#141414"/>
<path d="M172.138 19.658C169.04 19.658 167.92 21.9906 167.92 21.9906C167.92 21.9906 166.995 19.658 163.809 19.658C161.102 19.658 159.895 21.9359 159.895 21.9359V19.9975H156.763V33.3146H160.112V24.5205C160.112 24.5205 160.95 22.812 162.711 22.812C164.386 22.812 165.082 23.7977 165.082 25.6156V33.3146H168.431V24.5205C168.431 24.5205 169.268 22.812 171.029 22.812C172.704 22.812 173.4 23.7977 173.4 25.6156V33.3146H176.749V24.7504C176.781 21.5307 174.824 19.658 172.138 19.658Z" fill="#141414"/>
<path d="M147.586 19.3511C143.65 19.3511 140.518 22.4175 140.518 26.3491C140.518 30.2479 143.65 33.3472 147.586 33.3472C151.522 33.3472 154.654 30.2588 154.654 26.3491C154.654 22.4175 151.522 19.3511 147.586 19.3511ZM147.586 30.3903C145.205 30.3903 143.748 28.5285 143.748 26.3491C143.748 24.1698 145.216 22.308 147.586 22.308C149.956 22.308 151.424 24.1698 151.424 26.3491C151.424 28.5285 149.967 30.3903 147.586 30.3903Z" fill="#141414"/>
<path d="M131.548 19.3511C127.611 19.3511 124.48 22.4175 124.48 26.3491C124.48 30.2479 127.611 33.3472 131.548 33.3472C135.484 33.3472 138.615 30.2588 138.615 26.3491C138.615 22.4175 135.484 19.3511 131.548 19.3511ZM131.548 30.3903C129.166 30.3903 127.709 28.5285 127.709 26.3491C127.709 24.1698 129.177 22.308 131.548 22.308C133.918 22.308 135.386 24.1698 135.386 26.3491C135.386 28.5285 133.918 30.3903 131.548 30.3903Z" fill="#141414"/>
<path d="M108.931 13.4702V16.7009H118.293L107.974 33.3035H123.447V30.0728H113.748L124.012 13.4702H108.931Z" fill="#141414"/>
<path d="M100.667 19.658C97.8724 19.658 96.6981 21.9359 96.6981 21.9359V19.9975H93.5665V33.3146H96.9155V24.5205C96.9155 24.5205 97.8072 22.812 99.5469 22.812C101.004 22.812 102.178 23.6224 102.178 25.5389V33.3146H105.527V24.6957C105.527 21.4759 103.233 19.658 100.667 19.658Z" fill="#141414"/>
<path d="M90.7938 19.9866H87.4447V33.3037H90.7938V19.9866Z" fill="#141414"/>
<path d="M89.1193 13.4702C88.6827 13.4702 88.2559 13.6006 87.8929 13.8449C87.5299 14.0892 87.247 14.4364 87.08 14.8427C86.9129 15.2489 86.8692 15.6959 86.9543 16.1271C87.0395 16.5584 87.2497 16.9545 87.5584 17.2654C87.8671 17.5764 88.2605 17.7881 88.6886 17.8739C89.1168 17.9597 89.5606 17.9156 89.964 17.7474C90.3673 17.5791 90.7121 17.2941 90.9546 16.9286C91.1971 16.563 91.3266 16.1331 91.3266 15.6934C91.3282 15.401 91.2722 15.1112 91.1618 14.8408C91.0514 14.5703 90.8889 14.3246 90.6836 14.1178C90.4783 13.9111 90.2344 13.7474 89.9658 13.6362C89.6973 13.5251 89.4096 13.4687 89.1193 13.4702V13.4702Z" fill="#141414"/>
<path d="M78.3654 19.3511C74.4292 19.3511 71.2976 22.4175 71.2976 26.3491C71.2976 30.2479 74.4292 33.3472 78.3654 33.3472C82.3016 33.3472 85.4332 30.2588 85.4332 26.3491C85.4332 22.4175 82.3016 19.3511 78.3654 19.3511ZM78.3654 30.3903C75.9841 30.3903 74.527 28.5285 74.527 26.3491C74.527 24.1698 75.9949 22.308 78.3654 22.308C80.7358 22.308 82.2037 24.1698 82.2037 26.3491C82.2037 28.5285 80.7467 30.3903 78.3654 30.3903Z" fill="#141414"/>
<path fill-rule="evenodd" clip-rule="evenodd" d="M58.9018 15.4525C60.4586 15.0244 62.1131 15.1363 63.5991 15.7701C65.0944 16.4087 66.3399 17.5247 67.1439 18.9461L69.8296 17.369C68.6918 15.3467 66.9217 13.7603 64.7952 12.857C62.678 11.9614 60.3245 11.8033 58.108 12.408C55.8838 13.0212 53.9229 14.3571 52.5299 16.2082C51.1277 18.074 50.3679 20.3496 50.366 22.6897C50.364 25.0297 51.1199 27.3066 52.519 29.1748C53.554 30.5598 54.9154 31.6632 56.4801 32.385C58.0448 33.1069 59.7635 33.4246 61.4808 33.3094C63.1981 33.1942 64.8597 32.6496 66.3155 31.7251C67.7714 30.8005 68.9754 29.525 69.8188 28.014L67.133 26.4369C66.3291 27.8583 65.0836 28.9742 63.5883 29.6129C62.1022 30.2467 60.4477 30.3586 58.8909 29.9305C57.3291 29.4991 55.9528 28.5596 54.9764 27.2583C53.9954 25.9408 53.465 24.3384 53.465 22.6915C53.465 21.0446 53.9954 19.4422 54.9764 18.1247C55.9592 16.8252 57.3382 15.8864 58.9018 15.4525V15.4525Z" fill="#141414"/>
<path d="M9.79702 9.88927V8.95839H9.80789L34.3276 14.029V17.5882L16.5603 28.5179L30.6089 31.2448V25.0901H44.527C44.6271 24.2285 44.6779 23.3619 44.6792 22.4945C44.6792 10.0754 34.6756 0 22.345 0C12.0805 0 3.43602 6.97615 0.815506 16.4712H9.80789V9.88927H9.79702Z" fill="#141414"/>
<path d="M34.7626 36.5235L30.946 35.735L30.8264 35.7131L10.2428 31.453V27.5761L27.423 17.0297L13.8311 14.3247V20.5342H0.0869884C0.0326209 21.1804 0 21.8375 0 22.5055C0 34.9246 10.0036 45 22.3342 45C32.3704 45 40.8626 38.3305 43.6789 29.1531H34.7626V36.5235Z" fill="#141414"/>
<path d="M30.5981 25.0899V31.2447L16.5495 28.5178L34.3168 17.5881V14.0288L9.80791 8.95825H9.79704V16.482H0.804651C0.438879 17.8073 0.195009 19.1637 0.0761261 20.5341H13.8311V14.3245L27.423 17.0405L10.2429 27.5869V31.4528L30.8264 35.702L30.946 35.7239L34.7626 36.5124V29.142H43.6789C44.0843 27.8203 44.3682 26.4639 44.527 25.0899H30.5981Z" fill="#64B32F"/>
</svg>
