<?xml version="1.0" encoding="UTF-8"?>
<svg width="1500px" height="328px" viewBox="0 0 1500 328" version="1.1" xmlns="http://www.w3.org/2000/svg" xmlns:xlink="http://www.w3.org/1999/xlink">
    <!-- Generator: Sketch 61.2 (89653) - https://sketch.com -->
    <title>DigiFinex-c-01</title>
    <desc>Created with Sketch.</desc>
    <g id="页面-1" stroke="none" stroke-width="1" fill="none" fill-rule="evenodd">
        <g id="画板" transform="translate(-131.000000, -1408.000000)" fill-rule="nonzero">
            <g id="03" transform="translate(130.000000, 1407.000000)">
                <g id="编组-4备份-2">
                    <g id="白色logo" transform="translate(0.988048, 0.892430)">
                        <g id="编组" transform="translate(3.001418, 27.000578)">
                            <g id="编组-2">
                                <path d="M299.34314,145.246037 C282.718436,232.754311 233.108255,276.517068 150.512596,276.517068 L98.1581182,276.517068 L87.1207682,275.884949 L102.074385,215.540558 L147.064488,215.540558 C191.81894,215.540558 218.918512,189.781703 228.377394,138.258247 C229.049989,134.953987 229.594874,131.635362 230.017729,128.267891 L301.809317,86.3239132 C302.714623,92.9324312 303.182884,99.8828684 303.182884,107.186718 C303.182884,118.059167 301.90297,130.750395 299.34314,145.246037 Z" id="Fill-1" fill="#6E45B7"></path>
                                <path d="M276.895249,31.2611645 L212.516383,68.8923661 C203.542789,62.8383886 191.302716,59.8042168 175.818868,59.8042168 L71.9300802,59.8042168 L72.2422546,58.2871309 L84.5277345,0 L192.318702,0 C207.382533,0 220.979146,1.73832763 233.153946,5.22934922 C249.327415,9.87829813 262.941056,17.572912 274.037435,28.3361769 C275.022203,29.3015953 275.958726,30.2641403 276.895249,31.2611645" id="Fill-3" fill="#6E45B7"></path>
                                <polygon id="Fill-5" fill="#00D8CD" points="174.241536 111.705795 164.703191 172.015707 120.104827 172.015707 98.2980289 275.887248 98.1561318 276.516493 -7.43578414e-13 276.516493 36.8536018 226.179697 61.0357627 111.705795"></polygon>
                            </g>
                        </g>
                        <path d="M388.642038,226.481284 L439.160363,226.481284 C467.003478,226.481284 493.680196,203.520993 498.589846,175.334226 C503.499498,147.144586 484.82012,124.184295 456.977005,124.184295 L406.45868,124.184295 L388.642038,226.481284 Z M461.926387,95.7705394 C505.261864,95.7705394 534.33381,131.232423 526.694052,175.107238 C523.288514,194.656959 513.202444,212.614888 499.112029,226.481284 C497.488722,228.073075 495.63838,229.664865 493.790875,231.253783 C477.109413,245.804016 456.031968,254.670924 434.477747,254.670924 L355.89211,254.670924 L383.607517,95.5435512 L461.926387,95.7705394 Z" id="Fill-7" fill="#6E45B7"></path>
                        <polygon id="Fill-9" fill="#6E45B7" points="524.288607 254.669488 552.001176 95.5421145 580.065651 95.5421145 552.353082 254.669488"></polygon>
                        <path d="M605.499915,175.107525 C600.593102,203.297165 619.27248,226.254583 647.112756,226.254583 L697.631082,226.254583 L702.938045,195.792187 L652.419721,195.792187 L657.366266,167.378432 L735.951903,167.378432 L720.749012,254.668338 L642.163374,254.668338 C598.827898,254.668338 569.792844,218.98234 577.43544,175.107525 C585.075198,131.232711 626.543304,95.5438386 669.878781,95.5438386 L748.461581,95.5438386 L743.512198,123.957594 L664.929399,123.957594 C637.086284,123.957594 610.409566,146.917885 605.499915,175.107525" id="Fill-11" fill="#6E45B7"></path>
                        <polygon id="Fill-13" fill="#6E45B7" points="731.972815 254.669488 759.685384 95.5421145 787.749859 95.5421145 760.03729 254.669488"></polygon>
                        <path d="M956.370553,95.5426892 L951.421175,123.959318 L836.688582,123.959318 C828.830301,123.959318 821.170678,130.550597 819.785759,138.506678 L817.211739,153.283899 L918.248387,153.283899 L913.301845,181.697655 L812.038159,181.697655 L799.329825,254.670062 L771.489548,254.670062 L791.718447,138.506678 C795.83631,114.865422 818.060286,95.5426892 841.410928,95.5426892 L956.370553,95.5426892 Z" id="Fill-15" fill="#00D8CD"></path>
                        <polygon id="Fill-17" fill="#00D8CD" points="939.658728 254.669488 967.371297 95.5421145 995.43577 95.5421145 967.723201 254.669488"></polygon>
                        <polygon id="Fill-19" fill="#00D8CD" points="1163.7914 95.7699648 1136.07883 254.897337 1111.81437 233.074861 1024.51339 154.192139 1006.97487 254.897337 978.91039 254.897337 1006.5435 96.2239413 1030.80797 118.046418 1118.10894 196.92914 1135.76666 95.5429766"></polygon>
                        <path d="M1195.63801,138.506965 L1193.06399,153.284187 L1294.10348,153.284187 L1289.15693,181.697942 L1188.11745,181.697942 L1182.88994,211.706361 C1181.50502,219.662442 1186.86875,226.253721 1194.72703,226.253721 L1309.45962,226.253721 L1304.51307,254.670349 L1189.77765,254.670349 C1166.42701,254.670349 1150.9318,235.347616 1155.04967,211.706361 L1167.79773,138.506965 C1171.9156,114.862836 1194.13957,95.5429766 1217.49022,95.5429766 L1332.22564,95.5429766 L1327.27626,123.959605 L1212.54367,123.959605 C1204.68539,123.959605 1197.02293,130.550884 1195.63801,138.506965" id="Fill-21" fill="#00D8CD"></path>
                        <polygon id="Fill-23" fill="#00D8CD" points="1495.41649 95.7702521 1420.67343 175.560927 1467.47972 254.897625 1432.00252 254.897625 1398.89785 198.748206 1346.23404 254.897625 1310.75684 254.897625 1384.97204 175.560927 1338.02102 95.7702521 1373.49821 95.7702521 1406.75046 152.373648 1459.71794 95.7702521 1494.9681 95.7702521"></polygon>
                    </g>
                </g>
            </g>
        </g>
    </g>
</svg>