<svg id="gt_logo" viewBox="0 0 2898 1024" fill="#de596b" xmlns="http://www.w3.org/2000/svg"><path d="M2041.327223 667.597158c-16.976555 0-31.59614 6.05168-43.795052 18.218742-12.10336 12.198913-18.218742 26.627392-18.218742 43.317289 0 25.480758 12.804081 45.228345 38.539646 59.433868 28.028834 7.580525 50.643006 2.611778 67.651412-14.810691a60.198291 60.198291 0 0 0 18.282444-44.177264c0-17.199512-6.05168-31.850947-18.15504-43.635798a59.879781 59.879781 0 0 0-43.954307-18.15504zM1043.437039 195.566117h-46.279427c-19.970544 0-36.182676 16.14843-36.182676 36.150825v25.799268c-49.050459-51.184473-105.108127-76.760783-167.217474-76.760784-71.983141 0-131.862923 26.691094-179.957853 80.073282-47.776421 53.414039-71.664632 120.141774-71.664632 200.215056 0 81.538426 23.888211 149.6039 71.983141 204.037169 48.41344 53.44589 109.567259 80.136984 183.461458 80.136984 58.542041 0 113.230118-23.760807 164.032379-71.346122v51.08892c0 24.748186 20.193501 44.909836 44.909836 44.909836h79.117754V237.004199c0-22.86898-18.569102-41.469934-41.469934-41.469933z m-116.98853 392.148865c-28.156238 31.468736-65.071486 47.139402-110.841297 47.139402-42.775822 0-78.257778-16.243983-106.382165-48.731949-27.455517-32.169457-41.151424-73.894198-41.151424-125.110522 0-48.094931 14.014417-88.227124 42.234357-120.715091 28.665853-32.169457 64.020404-48.41344 106.700674-48.41344 44.909836 0 81.538426 15.925474 109.885768 47.776421 28.283641 32.487966 42.36176 73.894198 42.36176 123.900186 0 50.005988-14.014417 91.412219-42.202505 123.900185z m-384.536489-301.946982v-52.872573a37.265609 37.265609 0 0 0-37.265608-37.32931H455.787058a37.265609 37.265609 0 0 0-37.265608 37.265608v23.091937C373.930123 205.790271 317.936158 180.755426 250.666957 180.755426c-76.760783 0-138.615323 28.888809-185.372515 86.634577C21.722346 321.855123 0 388.105094 0 466.012512c0 80.073282 23.410446 146.832868 70.231339 200.215056 46.438681 52.713318 106.063655 78.99035 178.811219 78.990349 63.701895 0 120.396581-25.034845 169.447041-75.104534v74.594919c0 110.841297-45.228345 166.261946-135.685036 166.261946-49.050459 0-86.316068-16.689896-112.115336-50.005988a104.057045 104.057045 0 0 1-16.243983-31.532438 43.635798 43.635798 0 0 0-41.406231-29.302871H66.88699c-23.665254 0-41.183275 22.295663-35.195297 45.132792 12.740379 48.73195 37.424863 88.290826 74.212707 118.804034C151.929019 1002.446169 210.598465 1021.620439 281.880885 1021.620439c84.468713 0 150.846087-27.805877 199.068422-83.353929 25.640013-28.92066 42.807673-63.447087 51.598535-103.706685 2.930287-14.651436 5.223555-31.532438 6.847953-50.77041 1.656249-19.17427 2.452523-41.406232 2.452523-66.632182v-77.397803c-34.590129-49.687478-51.917044-109.24875-51.917044-178.365306 0-67.842518 17.326915-126.448261 51.917044-175.180211z m-156.292599 297.615253c-27.391815 34.399023-64.721125 51.598535-111.924229 51.598535-47.139402 0-84.086501-16.881002-110.841298-50.961516-24.461528-30.895419-36.724142-70.709103-36.724142-119.441053 0-49.368969 12.262615-89.501162 36.755993-120.715091 27.073305-34.717533 64.020404-51.917044 110.841298-51.917044 43.858755 0 79.850325 15.925474 108.038413 47.776421 27.774026 31.213929 41.724741 72.62016 41.724742 124.537205 0 48.73195-12.676677 88.545634-37.902628 119.759562zM1567.862889 196.043881v-0.509615H1311.940526V38.891306C1311.940526 18.729656 1295.632841 2.39012 1275.471191 2.39012h-50.005987c-20.384606 0-36.947099 16.562493-36.947099 36.947099v156.197047h-52.649616V310.707292h52.649616v459.099557h70.454296c29.23917 0 52.968126-23.697105 52.968125-52.999977V310.707292h126.607516a255.635704 255.635704 0 0 1 36.437484-52.617765c26.117777-28.665853 57.013196-49.368969 92.686258-62.109348zM2197.715375 2.39012c-21.977154 0-40.769213 7.867184-56.471729 23.569702-15.734368 15.734368-23.633403 34.399023-23.633403 55.962114 0 22.677875 7.899035 41.852145 23.633403 57.586513 15.670666 15.734368 34.717533 23.569701 57.013196 23.569701s41.151424-7.867184 56.50358-23.569701c15.925474-15.734368 23.569701-34.717533 23.569701-57.013196S2270.654045 41.248276 2254.728571 25.959822A77.65261 77.65261 0 0 0 2197.715375 2.39012z m24.939292 253.629095H2177.967788c-23.060086 0-41.724741 18.632804-41.724741 41.661039v392.085164c9.39603 11.147832 14.014417 24.20672 14.014417 39.176665s-4.650238 28.347343-14.014417 39.495175v21.977154h79.372561c24.334124 0 44.04986-19.429078 44.04986-43.954308V293.189271c0-20.480159-16.562493-37.042652-37.010801-37.042652z m580.005754 75.709702c-55.579903-54.46512-123.263167-81.69768-202.890536-81.69768-79.372561 0-146.673613 27.073305-201.935007 81.219916-55.165841 54.082909-82.812463 119.759562-82.812463 196.838855 0 81.984339 27.073305 150.017963 81.219916 204.164574 54.146611 54.78363 121.224706 82.239146 201.297988 82.239146 80.774003 0 148.966881-26.8822 204.578636-80.582897 55.229543-54.146611 82.876165-121.288408 82.876165-201.297988 0-79.436263-27.391815-146.355104-82.302848-200.852075z m-87.176044 325.930746c-28.92066 31.054674-67.428456 46.502383-115.714492 46.502383-47.967527 0-86.539024-15.606964-115.778194-47.139402-28.538449-31.022823-42.807673-73.257179-42.807673-126.639367 0-49.75118 14.651436-90.329287 43.954307-121.766173s67.396605-47.139402 114.663411-47.139402c47.776421 0 86.443471 15.702517 115.682641 47.139402 28.856958 31.086525 43.317289 72.62016 43.317289 124.473503 0 51.917044-14.46033 93.386978-43.317289 124.537205z"></path><path d="M1613.760105 636.128422c-25.257801-25.926671-39.495175-60.83531-42.807674-104.789617H1924.752756a29.621381 29.621381 0 0 0 29.621381-29.048064c0-88.131572-22.614173-157.025171-68.001773-206.808202-45.737961-50.10154-107.879159-75.168236-186.487298-75.168236-77.875567 0-140.398976 25.799267-187.60208 77.397802-46.820893 52.235554-70.199488 120.651389-70.199488 205.120102 0 85.169434 24.143018 153.61712 72.397203 205.120102 33.443495 35.768614 74.849727 58.987955 123.900186 69.753575a249.392919 249.392919 0 0 0 63.383385 7.134612c87.908615 1.815504 164.350889 3.599157 251.940995 5.414661v-12.867783c-10.829322-11.689298-16.243983-25.799267-16.243983-42.234356 0-15.925474 5.510214-29.748785 16.562492-41.565487v-15.606964c-69.339513-1.592547-237.289559-3.185095-243.882704-3.185095-39.495175 0-71.855737-12.740379-97.049837-38.221137z m-17.040257-246.844843c7.962737-12.039658 17.199512-22.359365 27.710324-30.959121a123.231316 123.231316 0 0 1 78.353331-26.595541c65.931461 0 107.337693 32.902029 124.537204 98.737937h-248.11888c4.140623-15.384008 9.873794-29.079915 17.518021-41.151424z"></path></svg>