<svg xmlns="http://www.w3.org/2000/svg" viewBox="-10765 4470 156.567 30">
  <defs>
    <style>
      .cls-1 {
        fill: #10359C;
      }

      .cls-2 {
        fill: #00b8ff;
      }
    </style>
  </defs>
  <g id="Group_281" data-name="Group 281" transform="translate(-10934 -893)">
    <path id="Path_437" data-name="Path 437" class="cls-1" d="M25.246,5.026h-3.87l-14.7-22.5v22.5H2.806v-29.2h3.87l14.739,22.6v-22.6h3.83Zm5.36,0v-29.2h8.242a13.268,13.268,0,0,1,6.738,1.684,11.393,11.393,0,0,1,4.522,4.793,15.6,15.6,0,0,1,1.614,7.139v1.865a15.655,15.655,0,0,1-1.594,7.239,11.214,11.214,0,0,1-4.552,4.773,14.113,14.113,0,0,1-6.888,1.7Zm3.85-26.049v22.9h4.051a8.814,8.814,0,0,0,6.928-2.77q2.477-2.77,2.477-7.888v-1.706q0-4.977-2.336-7.737a8.314,8.314,0,0,0-6.628-2.8ZM71.76-2.614H59.528L56.78,5.026H52.81l11.15-29.2h3.369L78.5,5.026H74.548ZM60.691-5.763h9.926L65.644-19.419Zm32.2-7.219,7-11.19h4.532L95.2-9.693l9.445,14.719h-4.572L92.892-6.364,85.672,5.026H81.12L90.585-9.693,81.341-24.172h4.512Z" transform="translate(166.194 5387.573)"/>
    <path id="Path_438" data-name="Path 438" class="cls-2" d="M6.888,5.1H3.038V-24.1h3.85ZM34.909-8.561a18.062,18.062,0,0,1-1.444,7.49,10.936,10.936,0,0,1-4.091,4.883A11.255,11.255,0,0,1,23.2,5.5,11.159,11.159,0,0,1,17.081,3.8,11.2,11.2,0,0,1,12.94-1.031,17.33,17.33,0,0,1,11.426-8.3v-2.106a17.847,17.847,0,0,1,1.464-7.44,11.158,11.158,0,0,1,4.141-4.943A11.111,11.111,0,0,1,23.157-24.5a11.319,11.319,0,0,1,6.186,1.695A10.916,10.916,0,0,1,33.465-17.9a18.15,18.15,0,0,1,1.444,7.49Zm-3.83-1.885q0-5.194-2.086-7.971A6.879,6.879,0,0,0,23.157-21.2a6.8,6.8,0,0,0-5.745,2.777q-2.1,2.777-2.156,7.711v2.146q0,5.033,2.116,7.911A6.834,6.834,0,0,0,23.2,2.227,6.806,6.806,0,0,0,28.973-.49q2.045-2.717,2.106-7.791Z" transform="translate(290.659 5387.504)"/>
    <g id="dot" transform="translate(275.338 5376.413)">
      <path id="Path_7" data-name="Path 7" class="cls-2" d="M-720.5,407.3v2.468l5.415,5.483-5.415,5.415v2.468l7.882-7.882Z" transform="translate(725.503 -407.3)"/>
      <path id="Path_8" data-name="Path 8" class="cls-2" d="M-724.1,409.5v2.6l3.7,3.7-3.7,3.7v2.81l6.374-6.375Z" transform="translate(726.636 -407.992)"/>
      <path id="Path_9" data-name="Path 9" class="cls-2" d="M-727.8,411.8l4.73,4.729-4.73,4.729" transform="translate(727.8 -408.716)"/>
    </g>
  </g>
</svg>
