<svg width="20" height="20" viewBox="0 0 20 20" fill="none" xmlns="http://www.w3.org/2000/svg">
<circle opacity="0.15" cx="10" cy="10" r="10" fill="#888A8F"/>
<path d="M14.8126 7.02257L12.9868 5.18743C12.8661 5.06739 12.7028 5 12.5326 5C12.3624 5 12.1992 5.06739 12.0785 5.18743L5.60577 11.6509L5.01479 14.2014C4.9944 14.2946 4.9951 14.3912 5.01683 14.4842C5.03857 14.5771 5.08079 14.664 5.14041 14.7385C5.20003 14.8131 5.27554 14.8733 5.36144 14.9149C5.44733 14.9565 5.54143 14.9784 5.63687 14.979C5.68134 14.9835 5.72615 14.9835 5.77062 14.979L8.34915 14.388L14.8126 7.93081C14.9326 7.81016 15 7.64688 15 7.47669C15 7.30649 14.9326 7.14322 14.8126 7.02257ZM8.0381 13.8281L5.62132 14.3351L6.17186 11.965L11.0148 7.14076L12.881 9.00701L8.0381 13.8281ZM13.2978 8.556L11.4316 6.68976L12.514 5.61355L14.3491 7.4798L13.2978 8.556Z" fill="white"/>
</svg>
