<svg width="12" height="16" viewBox="0 0 12 16" fill="none" xmlns="http://www.w3.org/2000/svg">
<path d="M11.257 4.17158L7.25705 0.171628C7.20677 0.115795 7.14496 0.0715499 7.0759 0.0419516C7.00683 0.0123533 6.93217 -0.00189172 6.85706 0.000201371H1.14284C0.84002 0.00110577 0.549859 0.121803 0.33573 0.335931C0.121601 0.55006 0.000904404 0.840222 0 1.14304V14.8572C0.000904404 15.16 0.121601 15.4501 0.33573 15.6643C0.549859 15.8784 0.84002 15.9991 1.14284 16H10.2856C10.5884 15.9991 10.8786 15.8784 11.0927 15.6643C11.3068 15.4501 11.4275 15.16 11.4284 14.8572V4.57157C11.4305 4.49646 11.4163 4.4218 11.3867 4.35273C11.3571 4.28367 11.3128 4.22186 11.257 4.17158ZM6.85706 1.37161L10.057 4.57157H6.85706V1.37161ZM10.2856 14.8572H1.14284V1.14304H5.71421V4.57157C5.71512 4.8744 5.83581 5.16456 6.04994 5.37869C6.26407 5.59281 6.55423 5.71351 6.85706 5.71442H10.2856V14.8572Z" fill="white"/>
</svg>
