<svg width="8" height="8" viewBox="0 0 8 8" fill="none" xmlns="http://www.w3.org/2000/svg">
<circle opacity="0.15" cx="4" cy="4" r="4" fill="#1AD37A"/>
<path d="M4.16468 2.58646C4.14633 2.55981 4.12178 2.53802 4.09314 2.52297C4.0645 2.50791 4.03263 2.50005 4.00027 2.50005C3.96791 2.50005 3.93604 2.50791 3.9074 2.52297C3.87876 2.53802 3.85421 2.55981 3.83586 2.58646L2.03572 5.18666C2.01488 5.21665 2.00266 5.25178 2.00039 5.28823C1.99811 5.32468 2.00587 5.36105 2.02282 5.3934C2.03977 5.42575 2.06525 5.45283 2.09651 5.47171C2.12777 5.49059 2.16361 5.50055 2.20013 5.50049L5.80041 5.50049C5.83685 5.50034 5.87255 5.49026 5.90368 5.47133C5.93482 5.45241 5.9602 5.42535 5.97711 5.39308C5.99402 5.36081 6.00181 5.32454 5.99965 5.28817C5.99748 5.2518 5.98544 5.2167 5.96482 5.18666L4.16468 2.58646Z" fill="#1AD37A"/>
</svg>
