<svg viewBox="0 0 32 32" xmlns="http://www.w3.org/2000/svg">
<path d="M26.6399 6.8928C24.0927 4.84224 20.0627 4.49472 19.8899 4.48256C19.7586 4.47175 19.6272 4.50204 19.5139 4.56924C19.4006 4.63644 19.311 4.73722 19.2575 4.8576C19.1807 5.03054 19.1155 5.20843 19.0623 5.39008C20.7475 5.67488 22.8172 6.24768 24.6899 7.40992C24.7613 7.45426 24.8233 7.51223 24.8724 7.58052C24.9214 7.64883 24.9565 7.72611 24.9756 7.80797C24.9948 7.88984 24.9977 7.97467 24.9841 8.05764C24.9704 8.14061 24.9406 8.22008 24.8963 8.29152C24.8519 8.36296 24.794 8.42497 24.7257 8.474C24.6573 8.52304 24.5801 8.55814 24.4982 8.57731C24.4164 8.59647 24.3316 8.59932 24.2485 8.58571C24.1656 8.57209 24.0861 8.54226 24.0147 8.49792C20.7955 6.4992 16.775 6.4 15.9999 6.4C15.2255 6.4 11.2025 6.49984 7.98523 8.49728C7.91379 8.54162 7.83432 8.57145 7.75135 8.58507C7.66838 8.59868 7.58355 8.59583 7.50168 8.57667C7.33635 8.53795 7.19317 8.43515 7.10363 8.29088C7.01409 8.1466 6.98554 7.97267 7.02424 7.80733C7.06295 7.642 7.16575 7.49882 7.31003 7.40928C9.18267 6.25024 11.2524 5.67488 12.9375 5.39264C12.8403 5.0752 12.7519 4.87488 12.7455 4.8576C12.6923 4.73636 12.6023 4.63493 12.4883 4.56763C12.3742 4.50034 12.2419 4.47058 12.11 4.48256C11.9372 4.49536 7.90715 4.84224 5.32475 6.92032C3.97755 8.16704 1.27995 15.4572 1.27995 21.76C1.27995 21.8726 1.31003 21.9802 1.36507 22.0774C3.22491 25.3478 8.30267 26.2022 9.45982 26.24H9.47965C9.58063 26.2403 9.68027 26.2166 9.77031 26.171C9.86045 26.1254 9.93849 26.0591 9.99805 25.9776L11.1673 24.3674C8.01019 23.5526 6.39739 22.1676 6.30523 22.0852C6.17793 21.9728 6.10047 21.8144 6.08991 21.645C6.07935 21.4755 6.13655 21.3087 6.24891 21.1814C6.36127 21.0541 6.51961 20.9767 6.68909 20.9661C6.85856 20.9556 7.02529 21.0128 7.15259 21.1252C7.18971 21.1604 10.1599 23.68 15.9999 23.68C21.8495 23.68 24.8198 21.15 24.8499 21.1252C24.9776 21.0136 25.1444 20.9572 25.3135 20.9685C25.4827 20.9798 25.6405 21.0578 25.7523 21.1852C25.8076 21.2482 25.85 21.3212 25.8771 21.4005C25.9041 21.4797 25.9152 21.5636 25.9099 21.6471C25.9045 21.7307 25.8828 21.8124 25.8459 21.8876C25.8089 21.9627 25.7575 22.0299 25.6947 22.0852C25.6025 22.1676 23.9897 23.5526 20.8326 24.3674L22.0025 25.9776C22.062 26.059 22.1399 26.1252 22.23 26.1708C22.3199 26.2164 22.4194 26.2402 22.5203 26.24H22.5395C23.6979 26.2022 28.775 25.3472 30.6355 22.0774C30.6899 21.9802 30.7199 21.8726 30.7199 21.76C30.7199 15.4572 28.0223 8.16768 26.6399 6.8928ZM11.8399 19.2C10.6022 19.2 9.59991 18.0544 9.59991 16.64C9.59991 15.2256 10.6022 14.08 11.8399 14.08C13.0777 14.08 14.0799 15.2256 14.0799 16.64C14.0799 18.0544 13.0777 19.2 11.8399 19.2ZM20.1599 19.2C18.9222 19.2 17.9199 18.0544 17.9199 16.64C17.9199 15.2256 18.9222 14.08 20.1599 14.08C21.3977 14.08 22.3999 15.2256 22.3999 16.64C22.3999 18.0544 21.3977 19.2 20.1599 19.2Z"></path>
</svg>
