<svg viewBox="0 0 32 32" xmlns="http://www.w3.org/2000/svg"><g clip-path="url(#clip0)"><path d="M16 0a16 16 0 00-5.056 31.184c.8.16 1.087-.352 1.087-.768l-.016-2.72c-4.447.96-5.391-2.144-5.391-2.144-.736-1.856-1.776-2.352-1.776-2.352-1.44-.992.112-.96.112-.96 1.6.112 2.448 1.648 2.448 1.648 1.44 2.432 3.744 1.728 4.655 1.328.16-1.04.56-1.744 1.008-2.144-3.551-.4-7.28-1.776-7.28-7.904 0-1.76.625-3.184 1.649-4.304A5.76 5.76 0 017.6 6.64s1.344-.432 4.4 1.632c2.62-.708 5.38-.708 8 0 3.055-2.08 4.4-1.632 4.4-1.632.88 2.192.32 3.84.16 4.224 1.024 1.12 1.648 2.56 1.648 4.304 0 6.144-3.744 7.488-7.313 7.888.576.496 1.088 1.472 1.088 2.96l-.015 4.4c0 .416.288.928 1.104.768A16 16 0 0016 0z"/></g><defs><clipPath id="clip0"><path d="M0 0h32v32H0z"/></clipPath></defs></svg>