<svg viewBox="0 0 32 32" xmlns="http://www.w3.org/2000/svg"><g clip-path="url(#clip0)"><path d="M31.939 6.092c-1.18.519-2.44.872-3.767 1.033a6.61 6.61 0 002.884-3.63 13.55 13.55 0 01-4.17 1.578A6.56 6.56 0 0015.539 9.55c0 .52.06 1.02.17 1.5-5.453-.258-10.287-2.877-13.521-6.835a6.43 6.43 0 00-.888 3.3c0 2.28 1.16 4.284 2.917 5.461a6.54 6.54 0 01-2.97-.821v.081a6.564 6.564 0 005.26 6.436 6.661 6.661 0 01-2.949.113 6.582 6.582 0 006.139 4.556 13.157 13.157 0 01-8.136 2.807c-.52 0-1.039-.03-1.56-.09a18.661 18.661 0 0010.076 2.946c12.072 0 18.665-9.995 18.665-18.648 0-.279 0-.56-.02-.84 1.282-.919 2.4-2.08 3.28-3.397l-.062-.027z"/></g><defs><clipPath id="clip0"><path d="M0 0h32v32H0z"/></clipPath></defs></svg>